<?xml version="1.0" encoding="UTF-8" standalone="no"?>
<!-- Created with Inkscape (http://www.inkscape.org/) -->

<svg
   width="600"
   height="600"
   viewBox="0 0 600 600"
   version="1.1"
   id="svg826"
   inkscape:version="1.1 (c68e22c387, 2021-05-23)"
   sodipodi:docname="autoScribeText.svg"
   xmlns:inkscape="http://www.inkscape.org/namespaces/inkscape"
   xmlns:sodipodi="http://sodipodi.sourceforge.net/DTD/sodipodi-0.dtd"
   xmlns="http://www.w3.org/2000/svg"
   xmlns:svg="http://www.w3.org/2000/svg">
  <sodipodi:namedview
     id="namedview828"
     pagecolor="#ffffff"
     bordercolor="#666666"
     borderopacity="1.0"
     inkscape:pageshadow="2"
     inkscape:pageopacity="0.0"
     inkscape:pagecheckerboard="0"
     inkscape:document-units="px"
     showgrid="false"
     units="px"
     inkscape:zoom="1.5358306"
     inkscape:cx="393.59811"
     inkscape:cy="264.02652"
     inkscape:window-width="2400"
     inkscape:window-height="1321"
     inkscape:window-x="-9"
     inkscape:window-y="-5"
     inkscape:window-maximized="1"
     inkscape:current-layer="layer1" />
  <defs
     id="defs823" />
  <g
     inkscape:label="Layer 1"
     inkscape:groupmode="layer"
     id="layer1">
    <path
       d="M 143.65674,181.99179 H 94.405943 l -4.944857,12.36215 h 4.944857 q 7.318397,0 10.384207,2.86802 3.16471,2.76911 3.16471,7.31839 0,4.45037 -3.16471,7.31839 -3.06581,2.76912 -10.384207,2.76912 H 67.110321 q -7.318389,0 -10.384203,-2.76912 -3.164713,-2.86802 -3.164713,-7.41729 0,-4.54927 3.263609,-7.41728 3.263604,-2.86803 10.779795,-2.67023 L 99.4497,115.0384 H 86.197476 q -7.318387,0 -10.483102,-2.76912 -3.065812,-2.86802 -3.065812,-7.41729 0,-4.54928 3.065812,-7.318398 3.164715,-2.868017 10.483102,-2.868017 l 43.811454,0.09891 40.35006,99.589465 q 7.12059,0 9.39522,1.58236 4.54927,3.2636 4.54927,8.60405 0,4.45037 -3.0658,7.31838 -3.06581,2.76913 -10.38421,2.76913 h -27.29562 q -7.3184,0 -10.48311,-2.76913 -3.06581,-2.86801 -3.06581,-7.41728 0,-4.45037 3.06581,-7.21948 3.16471,-2.86803 10.48311,-2.86803 h 4.94485 z m -8.40626,-20.27393 -16.31804,-40.15225 -16.41693,40.15225 z"
       style="font-weight:bold;font-size:35.0173px;line-height:1.25;font-family:'Courier New';-inkscape-font-specification:'Courier New';stroke-width:1;stroke:#000000;stroke-opacity:1;fill:none;stroke-miterlimit:4;stroke-dasharray:none"
       id="path20361" />
    <path
       d="m 283.49736,124.82922 v 69.52472 q 6.42832,0 9.49414,2.86802 3.06582,2.86801 3.06582,7.31839 0,4.45037 -3.16472,7.31839 -3.06581,2.76912 -10.3842,2.76912 h -19.28496 v -4.64817 q -8.70296,3.9559 -16.61472,5.93383 -7.91177,1.97795 -15.03238,1.97795 -9.9886,0 -17.307,-4.15369 -7.31839,-4.25257 -11.57097,-11.66986 -3.06582,-5.34045 -3.06582,-13.35112 v -43.61367 h -3.4614 q -7.3184,0 -10.48309,-2.76911 -3.06582,-2.86801 -3.06582,-7.4173 0,-4.45037 3.06582,-7.21949 3.16469,-2.86801 10.48309,-2.86801 h 23.73533 v 60.32728 q 0,6.42832 3.06581,9.49414 3.1647,2.9669 9.59302,2.9669 6.13164,0 13.15333,-2.37353 7.1206,-2.47242 17.5048,-8.80185 v -41.33903 h -7.31839 q -7.3184,0 -10.48309,-2.76911 -3.06582,-2.86801 -3.06582,-7.4173 0,-4.45037 3.06582,-7.21949 3.16469,-2.86801 10.48309,-2.86801 z"
       style="font-weight:bold;font-size:35.0173px;line-height:1.25;font-family:'Courier New';-inkscape-font-specification:'Courier New';stroke-width:1;stroke:#000000;stroke-opacity:1;fill:none;stroke-miterlimit:4;stroke-dasharray:none"
       id="path20363" />
    <path
       d="m 356.97798,145.10313 v 40.64676 q 0,6.5272 2.67022,8.60405 4.15369,3.2636 14.83458,3.2636 15.52686,0 28.68019,-6.62611 5.04375,-2.57132 7.91177,-2.57132 3.95588,0 6.82391,2.9669 2.96691,2.96693 2.96691,7.21951 0,3.95589 -3.1647,6.8239 -4.84597,4.64817 -19.18607,8.60406 -14.24119,3.85699 -24.03201,3.85699 -18.88937,0 -28.38349,-8.10957 -9.39523,-8.20846 -9.39523,-20.07613 v -44.60264 h -7.3184 q -7.31838,0 -10.4831,-2.76911 -3.06581,-2.86801 -3.06581,-7.4173 0,-4.45037 3.06581,-7.21949 3.16472,-2.86801 10.4831,-2.86801 h 7.3184 v -18.29599 q 0,-7.318386 2.76911,-10.384199 2.86803,-3.164708 7.4173,-3.164708 4.45036,0 7.21949,3.164708 2.86802,3.065813 2.86802,10.384199 v 18.29599 h 37.48203 q 7.3184,0 10.3842,2.86801 3.16472,2.76912 3.16472,7.3184 0,4.45038 -3.16472,7.31839 -3.0658,2.76911 -10.3842,2.76911 z"
       style="font-weight:bold;font-size:35.0173px;line-height:1.25;font-family:'Courier New';-inkscape-font-specification:'Courier New';stroke-width:1;stroke:#000000;stroke-opacity:1;fill:none;stroke-miterlimit:4;stroke-dasharray:none"
       id="path20365" />
    <path
       d="m 536.17967,171.40979 q 0,11.66987 -6.52722,22.64746 -6.42832,10.87869 -19.28495,17.4059 -12.75773,6.42832 -26.70223,6.42832 -13.84561,0 -26.50445,-6.32941 -12.65884,-6.42832 -19.28495,-17.40592 -6.62611,-10.97759 -6.62611,-22.94414 0,-12.16436 6.72501,-23.83422 6.72501,-11.76877 19.28495,-18.49378 12.65883,-6.72501 26.40555,-6.72501 13.8456,0 26.60334,6.9228 12.85664,6.82391 19.38384,18.49377 6.52722,11.57098 6.52722,23.83423 z m -20.27392,0.099 q 0,-9.79083 -7.0217,-17.99929 -9.59303,-11.07649 -25.21878,-11.07649 -13.74672,0 -22.94415,8.80186 -9.19744,8.80185 -9.19744,20.37282 0,9.49412 9.29633,17.80149 9.29633,8.20846 22.84526,8.20846 13.64781,0 22.94415,-8.20846 9.29633,-8.30737 9.29633,-17.90039 z"
       style="font-weight:bold;font-size:35.0173px;line-height:1.25;font-family:'Courier New';-inkscape-font-specification:'Courier New';stroke-width:1;stroke:#000000;stroke-opacity:1;fill:none;stroke-miterlimit:4;stroke-dasharray:none"
       id="path20367" />
    <path
       d="m 107.72869,272.59052 q 0,1.17746 -0.3364,2.85953 -0.2523,1.68207 -0.84104,3.53237 -0.58872,1.76618 -1.34566,3.44825 -0.67283,1.59797 -1.59797,2.60722 h 0.0841 q -2.69132,3.19595 -12.69968,3.19595 0,-3.61646 -0.336399,-6.22369 -0.252299,-2.69132 -0.925139,-4.28929 -0.588729,-1.34567 -2.102598,-2.27081 -1.513867,-0.92514 -3.448259,-1.51386 -1.850285,-0.58874 -3.78467,-0.84105 -1.93439,-0.33639 -3.364154,-0.33639 -3.616465,0 -7.064724,0.16819 -3.448259,0.1682 -6.812407,0.67283 -3.280053,0.5046 -6.728306,1.42977 -3.364154,0.92514 -6.896518,2.35491 -2.523114,1.00925 -5.382645,2.52311 -2.775425,1.51387 -5.214437,3.44826 -2.439011,1.85028 -4.205192,4.12109 -1.682076,2.1867 -2.102594,4.70981 l 0.0841,-0.16821 q 0,2.0185 1.345661,4.54162 1.34566,2.43901 3.616465,4.87802 2.354907,2.3549 5.38264,4.3734 3.027742,1.93439 6.391896,2.85953 0.252301,0.084 1.429763,0.5046 1.177457,0.4205 2.859531,1.00925 1.682074,0.5046 3.532359,1.17745 1.934391,0.67283 3.532365,1.26155 1.682073,0.5046 2.775424,0.92514 1.177451,0.33641 1.345663,0.42051 19.512086,4.96213 28.931719,11.94274 9.419626,6.98062 9.419626,17.15718 0,3.28006 -1.42976,6.5601 -1.42977,3.19595 -3.616467,6.13959 -2.186703,2.94363 -4.793922,5.46674 -2.523114,2.43901 -4.793916,4.1211 l 0.08411,-0.084 q -2.439009,1.93439 -5.55085,3.95288 -3.027737,2.0185 -6.560102,3.95289 -3.532359,1.93438 -7.317029,3.61646 -3.784677,1.68207 -7.737553,2.94363 -3.70057,1.17746 -7.821657,2.18671 -4.036983,1.09335 -8.073971,1.85028 -4.03698,0.75693 -7.821652,1.17744 -3.700569,0.42051 -6.728306,0.42051 -1.597974,0 -3.952881,-0.42051 -2.27084,-0.33639 -4.878058,-1.00921 -2.523115,-0.67283 -5.130335,-1.59797 -2.523114,-0.92514 -4.541606,-2.1026 -2.018492,-1.17746 -3.2800497,-2.52311 -1.2615574,-1.34567 -1.2615574,-2.85953 0,-1.34567 0.5046227,-3.28006 0.5046227,-1.93439 1.4297644,-3.70056 1.009247,-1.85029 2.270803,-3.11185 1.345662,-1.34567 2.859532,-1.34567 2.102595,0 3.95288,0.50466 1.850283,0.5046 4.121087,1.17746 2.354908,0.58872 5.382646,1.17744 3.111841,0.5046 7.653448,0.5046 4.541606,0 9.419628,-0.92514 4.962127,-1.00923 9.756043,-2.60721 4.793923,-1.68208 9.16732,-3.78468 4.3734,-2.10259 7.905759,-4.37339 1.513868,-1.00925 3.280053,-2.27081 1.850279,-1.34565 3.364154,-2.85953 1.597968,-1.59797 2.607214,-3.28005 1.09335,-1.68208 1.09335,-3.44826 0,-2.01849 -3.027736,-3.86877 v 0.084 q -4.457504,-2.69132 -8.830904,-4.12109 -4.373397,-1.42976 -7.653446,-2.3549 -9.251421,-2.3549 -22.539829,-7.48524 h 0.08411 q -5.550855,-2.1867 -10.765292,-5.63497 -5.214437,-3.44825 -8.999109,-7.23292 -8.410384,-9.33553 -8.410384,-21.53058 0,-4.79392 2.691323,-9.33552 2.691323,-4.54162 7.317033,-8.49449 4.62571,-4.03699 10.681187,-7.40115 6.139579,-3.36414 13.036091,-5.71906 6.896518,-2.439 14.045343,-3.78467 7.23293,-1.34567 13.961236,-1.34567 2.102597,0 5.214439,0.33641 3.195942,0.2523 6.475996,0.84103 3.364153,0.50461 6.391889,1.34567 3.027736,0.75693 4.793916,1.76618 h -0.0841 q 4.878025,2.60722 7.653445,6.22369 2.85953,3.61646 2.85953,7.06472 z"
       style="font-weight:bold;font-size:29.7793px;line-height:1.25;font-family:'Segoe Script';-inkscape-font-specification:'Segoe Script';stroke-width:1;stroke:#000000;stroke-opacity:1;fill:none;stroke-miterlimit:4;stroke-dasharray:none"
       id="path20370" />
    <path
       id="path20372"
       style="font-weight:bold;font-size:29.7793px;line-height:1.25;font-family:'Segoe Script';-inkscape-font-specification:'Segoe Script';fill:none;stroke:#000000;stroke-width:1;stroke-miterlimit:4;stroke-dasharray:none;stroke-opacity:1"
       d="M 165.33984 284.86914 C 163.04101 284.86914 160.77011 285.4294 158.52734 286.55078 C 156.34065 287.6161 154.23724 288.96188 152.21875 290.58789 C 150.25632 292.15783 148.43402 293.84056 146.75195 295.63477 C 145.12594 297.42898 143.72433 299.05586 142.54688 300.51367 C 137.27636 307.69052 133.0436 314.86611 129.84766 322.04297 C 126.65171 329.21984 125.05469 336.56486 125.05469 344.07812 C 125.05469 347.89084 125.64286 351.53543 126.82031 355.01172 C 127.99776 358.43195 129.7084 361.43253 131.95117 364.01172 C 134.25 366.59091 137.05324 368.63653 140.36133 370.15039 C 143.72548 371.66426 147.53757 372.42188 151.79883 372.42188 C 154.99478 372.42187 158.2466 372.11285 161.55469 371.49609 C 164.91885 370.87933 168.19859 370.03797 171.39453 368.97266 C 174.59048 367.90733 177.67481 366.70307 180.64648 365.35742 C 183.61815 363.95569 186.33764 362.49824 188.80469 360.98438 C 193.40237 358.12484 197.8325 354.95677 202.09375 351.48047 C 206.35502 348.00418 210.39237 344.38749 214.20508 340.63086 C 217.92995 337.01394 221.41283 333.34391 224.66992 329.62305 C 224.5806 330.96688 224.49684 332.32922 224.38086 333.56641 C 224.26873 335.30455 224.15706 336.78992 224.04492 338.02344 C 223.98886 339.25697 223.96094 339.98668 223.96094 340.21094 C 223.96094 340.60342 223.93295 341.49866 223.87695 342.90039 C 223.82089 344.30212 223.7631 345.76152 223.70703 347.27539 C 223.70703 348.78926 223.67905 350.19088 223.62305 351.48047 L 223.62305 353.75 C 223.62305 357.50663 223.79251 361.01165 224.12891 364.26367 C 224.46532 367.51569 224.99766 370.34684 225.72656 372.75781 C 226.51153 375.16879 227.5483 377.04692 228.83789 378.39258 C 230.12748 379.73824 231.69854 380.41211 233.54883 380.41211 C 234.67021 380.41211 235.7628 380.15892 236.82812 379.6543 C 237.89344 379.14968 238.87437 378.50568 239.77148 377.7207 C 240.66858 376.9918 241.39829 376.23418 241.95898 375.44922 C 242.57575 374.60818 242.9406 373.85252 243.05273 373.17969 C 243.27701 372.39471 243.38867 371.60919 243.38867 370.82422 C 243.44467 369.98319 243.47266 369.08599 243.47266 368.13281 C 243.47266 365.44149 243.27529 362.88949 242.88281 360.47852 C 242.54641 358.06754 242.37891 355.96609 242.37891 354.17188 C 242.37891 352.71408 242.79958 351.08718 243.64062 349.29297 C 244.53773 347.49876 245.60241 345.70437 246.83594 343.91016 C 248.12554 342.11593 249.47133 340.4053 250.87305 338.7793 C 252.27478 337.09722 253.50891 335.66769 254.57422 334.49023 C 256.48057 332.41567 258.75147 330.31423 261.38672 328.18359 C 264.02198 326.05295 266.71354 324.119 269.46094 322.38086 C 272.20832 320.64271 274.87199 319.24109 277.45117 318.17578 C 280.08643 317.05439 282.29954 316.49219 284.09375 316.49219 C 285.15907 316.49219 286.19779 316.63372 287.20703 316.91406 C 288.21628 317.19439 289.22513 317.33398 290.23438 317.33398 C 291.4679 317.33398 292.70203 317.19439 293.93555 316.91406 C 295.16907 316.57764 296.26167 316.04335 297.21484 315.31445 C 298.2241 314.52948 299.03754 313.49271 299.6543 312.20312 C 300.3272 310.91352 300.69009 309.31651 300.74609 307.41016 L 300.74609 307.24219 C 300.74609 305.95259 300.43903 304.69055 299.82227 303.45703 C 299.26157 302.16744 298.42021 301.01705 297.29883 300.00781 C 296.2335 298.94249 294.91564 298.10112 293.3457 297.48438 C 291.77576 296.81154 290.0093 296.47656 288.04688 296.47656 C 284.06597 296.47656 280.08443 297.40167 276.10352 299.25195 C 272.1226 301.04617 268.22677 303.40081 264.41406 306.31641 C 260.60136 309.17594 256.92884 312.39985 253.39648 315.98828 C 249.86412 319.52065 246.55646 323.02567 243.47266 326.50195 C 243.75301 323.47422 244.14577 320.33405 244.65039 317.08203 C 245.15501 313.77395 245.74318 310.88502 246.41602 308.41797 C 246.97673 306.56768 247.42532 304.88692 247.76172 303.37305 C 248.09812 301.80311 248.26562 300.79425 248.26562 300.3457 C 248.26562 299.6168 248.15396 298.80336 247.92969 297.90625 C 247.70541 296.95308 247.25681 296.0838 246.58398 295.29883 C 245.96723 294.45779 245.09796 293.75601 243.97656 293.19531 C 242.91125 292.63463 241.48171 292.35547 239.6875 292.35547 C 238.17363 292.35547 236.7441 292.72032 235.39844 293.44922 C 234.05278 294.12205 232.81865 294.96146 231.69727 295.9707 C 230.63195 296.92388 229.73476 297.93469 229.00586 299 C 228.33302 300.06531 227.88443 300.99042 227.66016 301.77539 C 227.43588 302.6725 227.21255 303.79302 226.98828 305.13867 C 226.77585 306.4132 226.59179 307.6586 226.42969 308.88281 C 224.6805 310.79341 221.44314 313.88029 218.83008 316.66016 C 216.19483 319.40755 213.27993 322.32439 210.08398 325.4082 C 206.88803 328.49201 203.43885 331.57439 199.73828 334.6582 C 196.09378 337.68593 192.36544 340.43334 188.55273 342.90039 C 185.8614 344.63853 183.05817 346.32126 180.14258 347.94727 C 177.28305 349.51721 174.3662 350.91881 171.39453 352.15234 C 168.42286 353.32979 165.39631 354.28281 162.3125 355.01172 C 159.28475 355.68455 156.22833 356.02148 153.14453 356.02148 C 151.7428 356.02148 150.45285 355.74038 149.27539 355.17969 C 148.09794 354.56292 147.06117 353.77934 146.16406 352.82617 C 145.32302 351.81692 144.6511 350.63863 144.14648 349.29297 C 143.69793 347.9473 143.47266 346.51777 143.47266 345.00391 C 143.47266 342.8172 143.64212 340.54632 143.97852 338.19141 C 144.37101 335.83651 144.87543 333.50979 145.49219 331.21094 C 146.10895 328.85603 146.83668 326.58513 147.67773 324.39844 C 148.57483 322.21174 149.52787 320.19404 150.53711 318.34375 C 151.60243 316.38133 152.72489 314.50319 153.90234 312.70898 C 155.07979 310.85869 156.22823 309.23181 157.34961 307.83008 C 158.471 306.37228 159.50777 305.2219 160.46094 304.38086 C 161.47018 303.48375 162.33946 303.03516 163.06836 303.03516 C 163.23656 303.03516 163.40602 303.09295 163.57422 303.20508 C 163.79851 303.31722 163.99391 303.56846 164.16211 303.96094 C 164.33031 304.29736 164.49977 304.82969 164.66797 305.55859 C 164.83617 306.23142 165.00368 307.12862 165.17188 308.25 C 165.62044 310.82919 166.51763 312.90468 167.86328 314.47461 C 169.20895 316.04455 171.17082 316.83008 173.75 316.83008 C 175.15173 316.83008 176.30211 316.4094 177.19922 315.56836 C 178.09632 314.72732 178.79615 313.71651 179.30078 312.53906 C 179.80541 311.30554 180.14235 310.01754 180.31055 308.67188 C 180.53482 307.32622 180.64648 306.12 180.64648 305.05469 C 180.64648 303.14834 180.28163 301.04492 179.55273 298.74609 C 178.82383 296.39118 177.78708 294.20599 176.44141 292.1875 C 175.09576 290.11295 173.47081 288.37439 171.56445 286.97266 C 169.71417 285.57093 167.63869 284.86914 165.33984 284.86914 z " />
    <path
       id="path20376"
       style="font-weight:bold;font-size:29.7793px;line-height:1.25;font-family:'Segoe Script';-inkscape-font-specification:'Segoe Script';stroke-width:1;stroke:#000000;stroke-opacity:1;fill:none;stroke-miterlimit:4;stroke-dasharray:none"
       d="M 349.44336 250.55469 C 347.92949 250.55469 346.5837 250.8637 345.40625 251.48047 C 344.2288 252.04116 343.21993 252.8267 342.37891 253.83594 C 341.53786 254.78912 340.89192 255.93754 340.44336 257.2832 C 339.99481 258.5728 339.77148 259.9465 339.77148 261.4043 C 339.77148 262.58175 339.6319 263.5627 339.35156 264.34766 C 339.12728 265.13263 338.84617 265.86232 338.50977 266.53516 C 338.22941 267.15192 337.9483 267.76801 337.66797 268.38477 C 337.4437 269.00153 337.33203 269.73122 337.33203 270.57227 C 337.33203 271.69365 337.80853 272.67459 338.76172 273.51562 C 339.71489 274.35666 340.83736 275.08637 342.12695 275.70312 C 343.47262 276.26384 344.81645 276.68452 346.16211 276.96484 C 347.50777 277.24518 348.60231 277.38477 349.44336 277.38477 C 350.06012 277.38477 350.75996 277.04783 351.54492 276.375 C 352.3299 275.6461 353.17125 274.72099 354.06836 273.59961 C 354.96547 272.47822 355.83474 271.21618 356.67578 269.81445 C 357.51682 268.35666 358.27443 266.92712 358.94727 265.52539 C 359.62009 264.06758 360.15243 262.69389 360.54492 261.4043 C 360.99347 260.05864 361.2168 258.9102 361.2168 257.95703 C 361.2168 256.10674 360.74029 254.67722 359.78711 253.66797 C 358.83394 252.65873 357.71342 251.92903 356.42383 251.48047 C 355.13424 251.03185 353.81637 250.77866 352.4707 250.72266 C 351.18111 250.61052 350.17226 250.55469 349.44336 250.55469 z M 421.35156 256.52734 C 419.33308 256.58342 417.51078 257.42283 415.88477 259.04883 C 414.25876 260.61877 412.80131 262.83383 411.51172 265.69336 C 411.28744 266.08585 410.89467 267.06679 410.33398 268.63672 C 409.77329 270.15059 409.12929 271.94497 408.40039 274.01953 C 407.67149 276.09408 406.9418 278.30914 406.21289 280.66406 C 405.54006 282.9629 404.95189 285.09422 404.44727 287.05664 C 402.09601 296.51393 400.15032 306.04703 398.57812 315.65039 C 398.2902 315.72532 398.00039 315.79165 397.71875 315.9043 C 396.87771 316.18464 396.23176 316.63324 395.7832 317.25 C 393.87685 319.49278 392.14025 321.48256 390.57031 323.2207 C 389.05645 324.95885 387.56913 326.61365 386.11133 328.18359 C 384.70961 329.75353 383.28007 331.32264 381.82227 332.89258 C 380.42053 334.46251 378.85142 336.17315 377.11328 338.02344 C 372.17918 343.40608 367.86072 347.83621 364.16016 351.3125 C 360.45959 354.73273 357.15193 357.42234 354.23633 359.38477 C 351.37679 361.34719 348.77092 362.72089 346.41602 363.50586 C 344.06112 364.23476 341.7623 364.59961 339.51953 364.59961 C 338.95884 364.59961 338.39663 364.26462 337.83594 363.5918 C 337.33132 362.91896 336.88271 361.99386 336.49023 360.81641 C 336.09773 359.58287 335.79068 358.12348 335.56641 356.44141 C 335.34215 354.75933 335.22852 352.93702 335.22852 350.97461 C 335.22852 348.11508 335.39798 345.17227 335.73438 342.14453 C 336.12686 339.06072 336.60338 336.03221 337.16406 333.06055 C 337.72476 330.08887 338.31293 327.25773 338.92969 324.56641 C 339.60252 321.81903 340.21861 319.32481 340.7793 317.08203 C 341.34001 314.83927 341.7886 312.93323 342.125 311.36328 C 342.51748 309.73728 342.71484 308.5869 342.71484 307.91406 C 342.71484 304.49384 341.78973 302.1392 339.93945 300.84961 C 338.14524 299.56002 335.64907 298.91406 332.45312 298.91406 C 330.4907 298.91406 328.72618 299.5321 327.15625 300.76562 C 325.58631 301.94309 324.24052 303.3447 323.11914 304.9707 C 322.05381 306.54064 321.21246 308.10975 320.5957 309.67969 C 320.03501 311.19356 319.75391 312.31602 319.75391 313.04492 C 319.75391 313.71776 319.72592 314.55912 319.66992 315.56836 C 319.66992 316.52153 319.64194 317.55829 319.58594 318.67969 C 319.52987 319.745 319.44612 320.80969 319.33398 321.875 C 319.27792 322.94033 319.16624 323.89335 318.99805 324.73438 C 318.71769 326.58467 318.40867 328.91138 318.07227 331.71484 C 317.73584 334.5183 317.42682 337.5189 317.14648 340.71484 C 316.92219 343.85472 316.72679 347.02279 316.55859 350.21875 C 316.39039 353.41468 316.30664 356.3575 316.30664 359.04883 C 316.30664 362.46905 316.72731 365.66505 317.56836 368.63672 C 318.4094 371.55231 319.66949 374.10431 321.35156 376.29102 C 323.03364 378.47772 325.10914 380.1864 327.57617 381.41992 C 330.0993 382.70951 332.98627 383.35547 336.23828 383.35547 C 339.65851 383.35547 343.21936 382.70951 346.91992 381.41992 C 350.62049 380.13033 354.51827 378.14055 358.61133 375.44922 C 362.76044 372.75789 367.10487 369.36648 371.64648 365.27344 C 376.24416 361.18038 381.12288 356.35749 386.28125 350.80664 C 387.85118 349.12455 389.53196 347.24643 391.32617 345.17188 C 392.72494 343.56117 394.0294 341.98295 395.33203 340.4043 C 395.06231 343.1673 394.81712 345.93407 394.60742 348.70508 C 394.60742 349.0415 394.57944 349.49009 394.52344 350.05078 L 394.52344 352.4043 L 394.52344 356.69531 L 394.52344 363.67578 C 394.52344 364.79717 394.55142 366.00144 394.60742 367.29102 C 394.66348 368.58062 394.74723 369.89849 394.85938 371.24414 C 394.9715 372.58981 395.13902 373.90768 395.36328 375.19727 C 395.64364 376.43079 395.95266 377.57922 396.28906 378.64453 C 396.45728 379.2613 396.73837 379.79559 397.13086 380.24414 C 397.57941 380.74876 397.99814 381.22527 398.39062 381.67383 C 398.8392 382.17845 399.23196 382.62705 399.56836 383.01953 C 399.96085 383.46808 400.21405 383.9446 400.32617 384.44922 C 401.16721 387.75731 402.54091 390.13985 404.44727 391.59766 C 406.35363 393.11152 409.2406 393.86914 413.10938 393.86914 C 417.09028 393.86914 420.67905 393.33485 423.875 392.26953 C 427.12702 391.26029 430.43467 389.60743 433.79883 387.30859 C 434.92021 386.69183 435.98685 386.04589 436.99609 385.37305 C 438.06141 384.75629 439.18192 384.14019 440.35938 383.52344 C 440.58365 383.4113 441.48085 382.99062 443.05078 382.26172 C 444.67678 381.53282 446.63865 380.63563 448.9375 379.57031 C 451.23633 378.50499 453.70459 377.35657 456.33984 376.12305 C 458.9751 374.88952 461.4414 373.73914 463.74023 372.67383 C 466.03907 371.60852 468.00095 370.71133 469.62695 369.98242 C 471.30905 369.19744 472.3179 368.72093 472.6543 368.55273 C 474.1121 367.82383 475.7669 366.95455 477.61719 365.94531 C 479.52354 364.88 481.48543 363.75948 483.50391 362.58203 C 485.57847 361.40458 487.62604 360.19838 489.64453 358.96484 C 491.7191 357.73132 493.62514 356.58289 495.36328 355.51758 C 497.10143 354.45226 498.58679 353.52715 499.82031 352.74219 C 501.10991 351.90113 502.0071 351.31101 502.51172 350.97461 C 502.88729 350.71764 503.28712 350.41401 503.68359 350.11523 C 503.92864 351.22286 504.20906 352.29638 504.53125 353.33008 C 505.87691 357.6474 507.81087 361.26408 510.33398 364.17969 C 512.91317 367.03921 516.02542 369.22636 519.66992 370.74023 C 523.37049 372.19803 527.57534 372.92578 532.28516 372.92578 C 536.09786 372.92578 540.02161 372.39344 544.05859 371.32812 C 548.09558 370.20674 552.0492 368.69346 555.91797 366.78711 C 559.84282 364.82469 563.59905 362.52588 567.1875 359.89062 C 570.83199 357.1993 574.16951 354.31232 577.19727 351.22852 C 579.94464 348.36898 582.12985 345.62158 583.75586 342.98633 C 585.38186 340.35107 586.19531 337.99448 586.19531 335.91992 C 586.19531 333.84536 585.83046 332.41583 585.10156 331.63086 C 584.42872 330.84589 583.61528 330.45312 582.66211 330.45312 C 581.70895 330.45312 580.67219 330.73423 579.55078 331.29492 C 578.48548 331.85562 577.39286 332.78073 576.27148 334.07031 C 573.2998 337.3784 570.15965 340.35107 566.85156 342.98633 C 563.54349 345.62158 560.15207 347.8626 556.67578 349.71289 C 553.19948 351.56317 549.66655 352.99465 546.07812 354.00391 C 542.48969 354.95708 538.92884 355.43359 535.39648 355.43359 C 533.09765 355.43359 531.10786 355.06875 529.42578 354.33984 C 527.79977 353.55488 526.45399 352.60186 525.38867 351.48047 C 524.32336 350.35909 523.53782 349.15287 523.0332 347.86328 C 522.52858 346.57369 522.24747 345.36747 522.19141 344.24609 C 522.19141 344.13395 522.47251 343.88271 523.0332 343.49023 C 523.64998 343.09774 524.09858 342.84455 524.37891 342.73242 C 530.09798 339.25612 535.31168 335.86473 540.02148 332.55664 C 544.78737 329.24855 548.85265 325.88506 552.2168 322.46484 C 555.58096 318.98854 558.18878 315.37187 560.03906 311.61523 C 561.94542 307.80253 562.89844 303.70934 562.89844 299.33594 C 562.89844 297.48566 562.50567 295.60753 561.7207 293.70117 C 560.93573 291.79481 559.81522 290.08418 558.35742 288.57031 C 556.89962 287.05645 555.10524 285.82232 552.97461 284.86914 C 550.90004 283.8599 548.51749 283.35547 545.82617 283.35547 C 542.51809 283.35547 539.43375 283.83199 536.57422 284.78516 C 533.77075 285.68227 531.19084 286.86057 528.83594 288.31836 C 526.48104 289.77616 524.32375 291.42901 522.36133 293.2793 C 520.45497 295.07352 518.74434 296.8679 517.23047 298.66211 C 514.87557 301.52164 512.77216 304.57806 510.92188 307.83008 C 509.0716 311.02602 507.53041 314.3616 506.29688 317.83789 C 505.06336 321.25811 504.11034 324.7073 503.4375 328.18359 C 502.95508 330.90271 502.66758 333.58582 502.5625 336.23633 C 501.94953 336.59263 501.34317 336.96151 500.74609 337.34961 C 499.62471 338.02244 498.64377 338.58465 497.80273 339.0332 C 495.16748 340.54708 492.30843 342.14411 489.22461 343.82617 C 486.14081 345.45219 482.97271 347.10699 479.7207 348.78906 C 476.46868 350.41508 473.24477 352.0121 470.04883 353.58203 C 466.85288 355.15196 463.82438 356.60941 460.96484 357.95508 C 462.42265 355.76838 463.99175 353.33 465.67383 350.63867 C 467.41197 347.94735 469.01095 345.22786 470.46875 342.48047 C 471.92656 339.73308 473.16068 337.0415 474.16992 334.40625 C 475.17918 331.71493 475.68359 329.33237 475.68359 327.25781 C 475.68359 324.17399 475.235 321.37077 474.33789 318.84766 C 473.49686 316.26848 472.34647 314.0534 470.88867 312.20312 C 469.43087 310.35284 467.72024 308.92332 465.75781 307.91406 C 463.85146 306.90481 461.80583 306.40039 459.61914 306.40039 C 456.59139 306.40039 453.08638 307.29757 449.10547 309.0918 C 445.18062 310.88601 441.08743 313.35231 436.82617 316.49219 C 432.56491 319.57599 428.30423 323.16475 424.04297 327.25781 C 419.83778 331.35086 415.94196 335.72516 412.35352 340.37891 C 412.80208 337.85579 413.27858 335.24797 413.7832 332.55664 C 414.34389 329.86532 414.90415 327.22957 415.46484 324.65039 C 416.02554 322.07121 416.5858 319.60492 417.14648 317.25 C 417.70718 314.8951 418.23951 312.79169 418.74414 310.94141 C 419.64124 307.63332 420.67997 304.10234 421.85742 300.3457 C 423.09094 296.533 424.23937 292.71896 425.30469 288.90625 C 426.37 285.03747 427.26719 281.2533 427.99609 277.55273 C 428.725 273.85217 429.08984 270.43089 429.08984 267.29102 C 429.08984 266.16962 429.03402 265.0212 428.92188 263.84375 C 428.80973 262.6663 428.50072 261.57369 427.99609 260.56445 C 427.49147 259.5552 426.70594 258.68592 425.64062 257.95703 C 424.63138 257.22812 423.20185 256.75162 421.35156 256.52734 z M 541.62109 299.16797 C 541.7893 299.16797 542.06845 299.25172 542.46094 299.41992 C 542.9095 299.53207 543.33018 299.7554 543.72266 300.0918 C 544.17122 300.42822 544.56399 300.90472 544.90039 301.52148 C 545.2368 302.08218 545.4043 302.81187 545.4043 303.70898 C 545.4043 306.06389 544.7603 308.27896 543.4707 310.35352 C 542.23718 312.42808 540.52655 314.50161 538.33984 316.57617 C 536.20922 318.65073 533.68708 320.78204 530.77148 322.96875 C 527.85588 325.15544 524.71572 327.538 521.35156 330.11719 C 522.1926 326.69697 523.22936 323.16402 524.46289 319.51953 C 525.75248 315.87502 527.23785 312.53945 528.91992 309.51172 C 530.60201 306.48398 532.50999 304.01768 534.64062 302.11133 C 536.77125 300.14891 539.09798 299.16797 541.62109 299.16797 z M 455.91797 323.05273 C 456.36653 323.05273 456.70346 323.19232 456.92773 323.47266 C 457.20808 323.69692 457.43336 324.00594 457.60156 324.39844 C 457.76983 324.73484 457.8815 325.0997 457.9375 325.49219 C 457.9935 325.82861 458.02148 326.10776 458.02148 326.33203 C 457.85328 328.40658 457.34885 330.62165 456.50781 332.97656 C 455.72284 335.33147 454.65621 337.77181 453.31055 340.29492 C 452.02095 342.81804 450.50768 345.396 448.76953 348.03125 C 447.08745 350.61044 445.29307 353.19035 443.38672 355.76953 C 440.91968 359.07762 438.42546 362.27362 435.90234 365.35742 C 433.43529 368.38516 430.85538 370.76771 428.16406 372.50586 C 426.36984 373.68331 424.51963 374.7759 422.61328 375.78516 C 420.70693 376.7944 418.88462 377.63577 417.14648 378.30859 C 415.40834 379.0375 413.81132 379.59775 412.35352 379.99023 C 410.95178 380.43879 409.82931 380.66406 408.98828 380.66406 C 409.21256 380.49585 409.40992 380.10309 409.57812 379.48633 C 409.80241 378.92564 409.99782 378.30955 410.16602 377.63672 C 410.33422 377.01996 410.4738 376.42983 410.58594 375.86914 C 410.75414 375.25237 410.83984 374.86156 410.83984 374.69336 C 411.00804 372.89915 411.37095 371.10476 411.93164 369.31055 C 412.54841 367.51633 413.25019 365.77778 414.03516 364.0957 C 414.8762 362.35756 415.74548 360.70275 416.64258 359.13281 C 417.53969 357.50681 418.35313 355.99352 419.08203 354.5918 C 419.69879 353.47041 420.76348 351.98505 422.27734 350.13477 C 423.84729 348.22841 425.58583 346.26459 427.49219 344.24609 C 429.39854 342.17153 431.30458 340.20966 433.21094 338.35938 C 435.11729 336.45302 436.71431 334.93974 438.00391 333.81836 C 438.84495 333.14553 440.10699 332.22042 441.78906 331.04297 C 443.47114 329.80944 445.20968 328.60323 447.00391 327.42578 C 448.85419 326.24833 450.59274 325.23948 452.21875 324.39844 C 453.90083 323.50133 455.13301 323.05273 455.91797 323.05273 z " />
    <text
       xml:space="preserve"
       style="font-style:normal;font-weight:normal;font-size:15.9404px;line-height:1.25;font-family:sans-serif;fill:none;fill-opacity:1;stroke:#000000;stroke-width:1;stroke-opacity:1;stroke-miterlimit:4;stroke-dasharray:none"
       x="215.43364"
       y="44.008991"
       id="text20279"><tspan
         sodipodi:role="line"
         id="tspan20277"
         style="stroke-width:1;stroke:#000000;stroke-opacity:1;fill:none;stroke-miterlimit:4;stroke-dasharray:none"
         x="215.43364"
         y="44.008991" /></text>
  </g>
</svg>
