<?xml version="1.0" encoding="UTF-8" standalone="no"?>
<!-- Created with Inkscape (http://www.inkscape.org/) -->

<svg
   width="800"
   height="800"
   viewBox="0 0 800 800"
   version="1.1"
   id="svg826"
   inkscape:version="1.1 (c68e22c387, 2021-05-23)"
   sodipodi:docname="autoScribeTextLarge.svg"
   xmlns:inkscape="http://www.inkscape.org/namespaces/inkscape"
   xmlns:sodipodi="http://sodipodi.sourceforge.net/DTD/sodipodi-0.dtd"
   xmlns="http://www.w3.org/2000/svg"
   xmlns:svg="http://www.w3.org/2000/svg">
  <sodipodi:namedview
     id="namedview828"
     pagecolor="#ffffff"
     bordercolor="#666666"
     borderopacity="1.0"
     inkscape:pageshadow="2"
     inkscape:pageopacity="0.0"
     inkscape:pagecheckerboard="0"
     inkscape:document-units="px"
     showgrid="false"
     units="px"
     inkscape:zoom="1.0859962"
     inkscape:cx="461.78799"
     inkscape:cy="331.03247"
     inkscape:window-width="1920"
     inkscape:window-height="1051"
     inkscape:window-x="-9"
     inkscape:window-y="-9"
     inkscape:window-maximized="1"
     inkscape:current-layer="layer1" />
  <defs
     id="defs823" />
  <g
     inkscape:label="Layer 1"
     inkscape:groupmode="layer"
     id="layer1">
    <path
       d="m 191.37688,213.31722 h -66.5842 l -6.68516,16.7129 h 6.68516 q 9.89405,0 14.03884,3.8774 4.2785,3.74367 4.2785,9.89403 0,6.01664 -4.2785,9.89404 -4.14479,3.74369 -14.03884,3.74369 H 87.890595 q -9.894034,0 -14.038836,-3.74369 -4.278507,-3.8774 -4.278507,-10.02775 0,-6.15034 4.412209,-10.02772 4.412202,-3.87741 14.573653,-3.61 L 131.61155,122.80015 h -17.91624 q -9.89403,0 -14.172538,-3.74369 -4.144799,-3.8774 -4.144799,-10.02774 0,-6.15037 4.144799,-9.894051 4.278508,-3.877392 14.172538,-3.877392 l 59.23053,0.133721 54.55092,134.639132 q 9.62662,0 12.70179,2.13926 6.15035,4.4122 6.15035,11.63217 0,6.01665 -4.14479,9.89403 -4.14479,3.7437 -14.03884,3.7437 h -36.90208 q -9.89405,0 -14.17256,-3.7437 -4.14479,-3.87738 -4.14479,-10.02773 0,-6.01664 4.14479,-9.76032 4.27851,-3.87741 14.17256,-3.87741 h 6.68514 z m -11.36477,-27.40917 -22.06104,-54.2835 -22.19473,54.2835 z"
       style="font-weight:bold;font-size:35.0173px;line-height:1.25;font-family:'Courier New';-inkscape-font-specification:'Courier New';stroke-width:1.33333333;fill:none;stroke:#000000;stroke-opacity:1;stroke-miterlimit:4;stroke-dasharray:none"
       id="path20361" />
    <path
       d="m 380.43322,136.03676 v 93.99336 q 8.69072,0 12.83553,3.8774 4.14481,3.87738 4.14481,9.89403 0,6.01664 -4.27852,9.89404 -4.1448,3.74369 -14.03883,3.74369 h -26.07214 v -6.28406 q -11.76589,5.34815 -22.46213,8.02219 -10.69625,2.67408 -20.3229,2.67408 -13.504,0 -23.39805,-5.61555 -9.89404,-5.74923 -15.64328,-15.77697 -4.14481,-7.21998 -4.14481,-18.04993 V 163.4459 h -4.67961 q -9.89405,0 -14.17252,-3.74367 -4.14481,-3.87738 -4.14481,-10.02776 0,-6.01664 4.14481,-9.76033 4.27847,-3.87738 14.17252,-3.87738 h 32.08878 v 81.55896 q 0,8.69071 4.1448,12.83552 4.27849,4.01108 12.9692,4.01108 8.28962,0 17.78253,-3.20888 9.62664,-3.34256 23.66547,-11.89958 V 163.4459 h -9.89404 q -9.89404,0 -14.17252,-3.74367 -4.14481,-3.87738 -4.14481,-10.02776 0,-6.01664 4.14481,-9.76033 4.27848,-3.87738 14.17252,-3.87738 z"
       style="font-weight:bold;font-size:35.0173px;line-height:1.25;font-family:'Courier New';-inkscape-font-specification:'Courier New';stroke-width:1.33333333;fill:none;stroke:#000000;stroke-opacity:1;stroke-miterlimit:4;stroke-dasharray:none"
       id="path20363" />
    <path
       d="m 479.77473,163.4459 v 54.95205 q 0,8.82439 3.60998,11.63217 5.61555,4.4122 20.05548,4.4122 20.99141,0 38.77395,-8.95812 6.81885,-3.47627 10.69625,-3.47627 5.34811,0 9.22552,4.01107 4.01109,4.01112 4.01109,9.76036 0,5.34813 -4.27849,9.22551 -6.55147,6.28406 -25.93844,11.63219 -19.25326,5.21443 -32.48988,5.21443 -25.53732,0 -38.37282,-10.96367 -12.7018,-11.09736 -12.7018,-27.14175 V 163.4459 h -9.89405 q -9.89402,0 -14.17253,-3.74367 -4.1448,-3.87738 -4.1448,-10.02776 0,-6.01664 4.1448,-9.76033 4.27851,-3.87738 14.17253,-3.87738 h 9.89405 v -24.73511 q 0,-9.89403 3.74368,-14.038827 3.87741,-4.2785 10.02775,-4.2785 6.01663,0 9.76033,4.2785 3.8774,4.144797 3.8774,14.038827 v 24.73511 h 50.67351 q 9.89405,0 14.03883,3.87738 4.27852,3.74369 4.27852,9.89405 0,6.01666 -4.27852,9.89404 -4.14478,3.74367 -14.03883,3.74367 z"
       style="font-weight:bold;font-size:35.0173px;line-height:1.25;font-family:'Courier New';-inkscape-font-specification:'Courier New';stroke-width:1.33333333;fill:none;stroke:#000000;stroke-opacity:1;stroke-miterlimit:4;stroke-dasharray:none"
       id="path20365" />
    <path
       d="m 722.04494,199.01097 q 0,15.77698 -8.82442,30.61804 -8.69071,14.70736 -26.07213,23.53176 -17.2477,8.69072 -36.09985,8.69072 -18.71846,0 -35.83247,-8.557 -17.11401,-8.69071 -26.07212,-23.53178 -8.95812,-14.84106 -8.95812,-31.01914 0,-16.4455 9.09182,-32.22247 9.09182,-15.91069 26.07213,-25.00251 17.114,-9.09182 35.69876,-9.09182 18.71844,0 35.96616,9.35922 17.38143,9.22553 26.20582,25.00249 8.82442,15.64329 8.82442,32.22249 z m -27.40916,0.13384 q 0,-13.23663 -9.49292,-24.33399 -12.96922,-14.97476 -34.09432,-14.97476 -18.58476,0 -31.01915,11.8996 -12.4344,11.89958 -12.4344,27.54286 0,12.8355 12.56809,24.06657 12.5681,11.09736 30.88546,11.09736 18.45104,0 31.01915,-11.09736 12.56809,-11.23107 12.56809,-24.20028 z"
       style="font-weight:bold;font-size:35.0173px;line-height:1.25;font-family:'Courier New';-inkscape-font-specification:'Courier New';stroke-width:1.33333333;fill:none;stroke:#000000;stroke-opacity:1;stroke-miterlimit:4;stroke-dasharray:none"
       id="path20367" />
    <path
       d="m 142.80426,335.8014 q 0,1.59186 -0.4548,3.86592 -0.34109,2.27406 -1.13703,4.77556 -0.79592,2.38777 -1.81926,4.66183 -0.90962,2.16036 -2.16036,3.52481 h 0.1137 q -3.63851,4.32074 -17.16923,4.32074 0,-4.88924 -0.45479,-8.41407 -0.34109,-3.6385 -1.25073,-5.79887 -0.79593,-1.81926 -2.84259,-3.07 -2.04666,-1.25073 -4.66185,-2.04665 -2.50147,-0.79594 -5.11665,-1.13705 -2.61518,-0.45478 -4.54814,-0.45478 -4.889248,0 -9.551093,0.22738 -4.661844,0.2274 -9.209976,0.90963 -4.43444,0.68219 -9.096276,1.93297 -4.54814,1.25073 -9.32369,3.1837 -3.411102,1.36444 -7.277021,3.41109 -3.752212,2.04667 -7.049614,4.66185 -3.2974,2.50147 -5.685174,5.57147 -2.274068,2.95629 -2.842584,6.36739 l 0.113698,-0.22741 q 0,2.72889 1.819255,6.14001 1.819254,3.29739 4.889249,6.59479 3.183697,3.18369 7.277015,5.91258 4.09333,2.61519 8.64147,3.86592 0.341096,0.11357 1.932956,0.68219 1.591853,0.56849 3.865919,1.36445 2.274066,0.68219 4.775543,1.59184 2.615183,0.90963 4.775551,1.70554 2.274064,0.68219 3.752211,1.25074 1.591845,0.45481 1.819257,0.5685 26.379204,6.70851 39.113994,16.14589 12.73478,9.43739 12.73478,23.19551 0,4.43444 -1.93295,8.86887 -1.93296,4.32073 -4.88925,8.30036 -2.9563,3.97962 -6.4811,7.39072 -3.41111,3.2974 -6.4811,5.57148 l 0.11371,-0.11356 q -3.29739,2.61518 -7.50442,5.34406 -4.09332,2.7289 -8.86887,5.34408 -4.775548,2.61517 -9.8922,4.88924 -5.116662,2.27406 -10.46072,3.97962 -5.002954,1.59185 -10.574423,2.9563 -5.457765,1.47815 -10.915537,2.50147 -5.457761,1.02333 -10.574416,1.59183 -5.002953,0.56851 -9.096276,0.56851 -2.160368,0 -5.344065,-0.56851 -3.070042,-0.45478 -6.594849,-1.36439 -3.411104,-0.90963 -6.935913,-2.16036 -3.411103,-1.25074 -6.139986,-2.8426 -2.728883,-1.59185 -4.4344352,-3.41109 -1.7055519,-1.81927 -1.7055519,-3.86592 0,-1.81927 0.6822204,-4.43445 0.6822204,-2.61518 1.9329577,-5.00294 1.364443,-2.50148 3.069993,-4.20704 1.819257,-1.81927 3.86592,-1.81927 2.842586,0 5.344063,0.68227 2.501474,0.68219 5.571469,1.59186 3.183698,0.79592 7.277023,1.59183 4.207027,0.68219 10.347014,0.68219 6.139986,0 12.734786,-1.25073 6.708506,-1.36442 13.1896,-3.5248 6.481104,-2.27407 12.393681,-5.11667 5.912581,-2.84257 10.688124,-5.91256 2.046661,-1.36445 4.43444,-3.07001 2.501471,-1.81924 4.548141,-3.86591 2.16036,-2.16037 3.5248,-4.43444 1.47815,-2.27407 1.47815,-4.66185 0,-2.72888 -4.09333,-5.23035 v 0.11357 q -6.026282,-3.63851 -11.938863,-5.57148 -5.912577,-1.93295 -10.347012,-3.18368 -12.50738,-3.18369 -30.472531,-10.11961 h 0.113712 q -7.504432,-2.95629 -14.554046,-7.61815 -7.049614,-4.66183 -12.166269,-9.77849 -11.370348,-12.62109 -11.370348,-29.10808 0,-6.4811 3.638511,-12.62108 3.638512,-6.14 9.892201,-11.48405 6.25369,-5.45778 14.440341,-10.00592 8.300352,-4.54813 17.624033,-7.73184 9.323689,-3.29738 18.988483,-5.11665 9.778498,-1.81927 18.874775,-1.81927 2.842593,0 7.049613,0.45481 4.32073,0.34109 8.75517,1.13702 4.54814,0.6822 8.64146,1.81927 4.09332,1.02332 6.4811,2.38777 h -0.1137 q 6.5948,3.52481 10.34701,8.41407 3.86592,4.88924 3.86592,9.55108 z"
       style="font-weight:bold;font-size:29.7793px;line-height:1.25;font-family:'Segoe Script';-inkscape-font-specification:'Segoe Script';stroke-width:1.33333333;fill:none;stroke:#000000;stroke-opacity:1;stroke-miterlimit:4;stroke-dasharray:none"
       id="path20370" />
    <path
       d="m 318.47611,384.58019 q 0,1.13703 -0.45479,2.84259 -0.3411,1.59185 -1.02333,3.2974 -0.68219,1.70555 -1.47814,3.41111 -0.79593,1.59185 -1.59185,2.61518 -5.68517,7.61814 -12.50739,15.57738 -6.82221,7.84553 -14.66773,15.46367 -7.73185,7.61812 -16.37332,14.66773 -8.64145,7.04963 -17.96514,12.8485 -5.00296,3.07 -11.02924,5.91259 -6.02628,2.72886 -12.50738,4.88925 -6.48108,2.16036 -13.3033,3.41109 -6.70851,1.25074 -13.18961,1.25074 -8.64146,0 -15.46366,-3.07 -6.70851,-3.06998 -11.37034,-8.30034 -4.54815,-5.23037 -6.93592,-12.16629 -2.38777,-7.0496 -2.38777,-14.78144 0,-15.23626 6.4811,-29.79031 6.48108,-14.55405 17.16921,-29.10808 2.38778,-2.9563 5.68518,-6.59481 3.4111,-3.6385 7.39073,-6.8222 4.09333,-3.2974 8.52775,-5.45778 4.54815,-2.27406 9.20998,-2.27406 4.66186,0 8.41407,2.84259 3.86593,2.8426 6.59478,7.04961 2.72889,4.09332 4.20704,8.86888 1.47814,4.66184 1.47814,8.52775 0,2.16036 -0.45479,4.88925 -0.34109,2.72889 -1.36443,5.23036 -1.02334,2.38777 -2.84258,4.09333 -1.81927,1.70555 -4.66185,1.70555 -5.23035,0 -7.95926,-3.1837 -2.72886,-3.18369 -3.6385,-8.41405 -0.34108,-2.27406 -0.68218,-3.63851 -0.34109,-1.47814 -0.68219,-2.16037 -0.34109,-0.79592 -0.79594,-1.02333 -0.3411,-0.22739 -0.68219,-0.22739 -1.47815,0 -3.5248,1.81925 -1.93295,1.70555 -4.20704,4.66185 -2.27406,2.84259 -4.66183,6.59481 -2.38777,3.6385 -4.54815,7.61812 -2.04665,3.75222 -3.86589,8.18665 -1.70557,4.43443 -2.9563,9.20997 -1.25074,4.66186 -2.04666,9.43739 -0.68219,4.77555 -0.68219,9.21 0,3.06997 0.90962,5.79886 1.02333,2.72889 2.72888,4.77556 1.81926,1.93294 4.20703,3.18369 2.38778,1.13702 5.23036,1.13702 6.25368,0 12.39368,-1.36443 6.25369,-1.47816 12.27997,-3.86592 6.02628,-2.50148 11.82517,-5.68518 5.91256,-3.2974 11.37034,-6.8222 7.73183,-5.00295 15.12256,-11.14293 7.50442,-6.25369 13.98552,-12.50739 6.4811,-6.25369 11.82517,-11.82515 5.34406,-5.68519 8.86887,-9.5511 2.04666,-2.27406 3.52479,-3.75222 1.47815,-1.59185 2.8426,-2.50147 1.47814,-1.02333 2.95629,-1.36445 1.59185,-0.45479 3.75222,-0.45479 0.68219,0 2.04665,1.81926 1.47815,1.70556 1.47815,5.00295 z"
       style="font-weight:bold;font-size:29.7793px;line-height:1.25;font-family:'Segoe Script';-inkscape-font-specification:'Segoe Script';stroke-width:1.33333333;fill:none;stroke:#000000;stroke-opacity:1;stroke-miterlimit:4;stroke-dasharray:none"
       id="path20372" />
    <path
       d="m 403.75372,382.87463 q -0.11357,3.86592 -1.47815,6.48113 -1.25073,2.61515 -3.29741,4.20701 -1.93295,1.47814 -4.43442,2.16037 -2.50147,0.56848 -5.00296,0.56848 -2.04666,0 -4.09333,-0.56848 -2.04665,-0.5685 -4.20702,-0.5685 -3.63851,0 -8.98259,2.27409 -5.23035,2.16035 -10.80181,5.68515 -5.57147,3.5248 -10.91554,7.84555 -5.34407,4.32074 -9.20998,8.52776 -2.16037,2.38778 -5.00296,5.79887 -2.84256,3.29739 -5.45776,6.93592 -2.50148,3.63851 -4.32072,7.27702 -1.70556,3.63851 -1.70556,6.5948 0,3.6385 0.68219,8.52776 0.79592,4.88924 0.79592,10.34702 0,1.93296 -0.11357,3.6385 0,1.59185 -0.4548,3.1837 -0.2274,1.36445 -1.47815,3.07001 -1.13704,1.59183 -2.95628,3.06997 -1.81926,1.59186 -3.97963,2.61518 -2.16037,1.02333 -4.43443,1.02333 -3.75222,0 -6.3674,-2.72888 -2.61519,-2.72888 -4.20703,-7.61814 -1.47814,-4.88924 -2.16036,-11.48404 -0.68219,-6.59481 -0.68219,-14.21293 0,-0.45478 0,-3.06999 0.11356,-2.61517 0.11356,-5.68517 0.1137,-3.06999 0.2274,-5.91258 0.11356,-2.8426 0.11356,-3.63852 0,-0.45478 0.1137,-2.95628 0.22741,-2.50147 0.45479,-6.02628 0.3411,-3.63851 0.56849,-7.73186 0.3411,-4.20701 0.5685,-7.95922 0.34109,-3.75222 0.5685,-6.59481 0.22738,-2.95629 0.3411,-3.86592 0.11356,-0.34109 0.22738,-2.27406 0.2274,-2.04668 0.45481,-4.66186 0.34106,-2.61517 0.79591,-5.34406 0.45479,-2.72887 0.90961,-4.54812 0.45481,-1.59186 1.81927,-3.75222 1.47815,-2.16036 3.63851,-4.09333 2.27407,-2.04665 5.00295,-3.4111 2.72888,-1.47814 5.79889,-1.47814 3.6385,0 5.79887,1.13702 2.27408,1.13704 3.5248,2.84259 1.36444,1.59186 1.81926,3.52481 0.4548,1.81927 0.4548,3.29742 0,0.90961 -0.68219,4.0933 -0.68219,3.07 -1.81926,6.82222 -1.36445,5.00295 -2.38777,11.71145 -1.02333,6.59481 -1.59186,12.73479 6.25369,-7.04961 13.41702,-14.21294 7.16331,-7.27701 14.89515,-13.07589 7.73183,-5.91257 15.80479,-9.55108 8.07294,-3.75222 16.14587,-3.75222 3.97963,0 7.16333,1.36445 3.18369,1.25071 5.34408,3.4111 2.27406,2.04665 3.4111,4.66183 1.25073,2.50147 1.25073,5.11665 v 0.22741 z"
       style="font-weight:bold;font-size:29.7793px;line-height:1.25;font-family:'Segoe Script';-inkscape-font-specification:'Segoe Script';stroke-width:1.33333333;fill:none;stroke:#000000;stroke-opacity:1;stroke-miterlimit:4;stroke-dasharray:none"
       id="path20374" />
    <path
       d="m 485.5065,316.01701 q 0,1.93295 -0.90961,4.66183 -0.79594,2.61518 -2.16036,5.57149 -1.36445,2.84259 -3.07001,5.79887 -1.70555,2.84258 -3.52481,5.11665 -1.81925,2.27406 -3.41111,3.75221 -1.59183,1.36444 -2.84256,1.36444 -1.70557,0 -4.43445,-0.56849 -2.72888,-0.56848 -5.45778,-1.70555 -2.61518,-1.25074 -4.54812,-2.95628 -1.93298,-1.70556 -1.93298,-3.97962 0,-1.70556 0.45481,-2.9563 0.56848,-1.25074 1.13702,-2.50147 0.68221,-1.36445 1.13704,-2.9563 0.56849,-1.59183 0.56849,-3.97961 0,-2.95629 0.90962,-5.57147 0.90964,-2.72888 2.61521,-4.66186 1.70552,-2.04665 4.0933,-3.18367 2.38777,-1.25075 5.45777,-1.25075 1.47815,0 4.09333,0.22739 2.72889,0.11357 5.34406,1.02333 2.61518,0.90964 4.54813,2.95629 1.93297,2.04668 1.93297,5.7989 z m 57.87506,95.3972 q -1.13702,2.38779 -3.86591,6.13999 -2.72888,3.63851 -6.13998,7.84555 -3.4111,4.20701 -7.16333,8.52775 -3.63851,4.20701 -6.8222,7.61814 -10.46071,11.25663 -19.7844,19.55699 -9.21,8.30034 -17.62404,13.75812 -8.30036,5.45777 -15.80479,8.07295 -7.50442,2.61517 -14.44034,2.61517 -6.59479,0 -11.71147,-2.61517 -5.00292,-2.50148 -8.41403,-6.93592 -3.4111,-4.43445 -5.11666,-10.34701 -1.70556,-6.02628 -1.70556,-12.9622 0,-5.45778 0.34109,-11.93885 0.34109,-6.48113 0.79594,-12.84851 0.56849,-6.48109 1.25074,-12.16626 0.68219,-5.68517 1.25073,-9.43741 0.34108,-1.70552 0.45478,-3.86591 0.2274,-2.16035 0.3411,-4.32071 0.11356,-2.27409 0.11356,-4.20704 0.11356,-2.04665 0.11356,-3.4111 0,-1.47815 1.13704,-4.54815 1.25074,-3.18368 3.41112,-6.36739 2.27406,-3.29739 5.45777,-5.68518 3.18368,-2.50148 7.16331,-2.50148 6.4811,0 10.11961,2.61518 3.7522,2.61518 3.7522,9.5511 0,1.36445 -0.79591,4.66183 -0.68219,3.18372 -1.81927,7.73184 -1.13702,4.54816 -2.50147,10.1196 -1.25073,5.45778 -2.38777,11.48407 -1.13702,6.02628 -1.93295,12.27997 -0.68219,6.13999 -0.68219,11.93888 0,3.9796 0.45478,7.39071 0.4548,3.4111 1.25076,5.91259 0.79591,2.38777 1.81924,3.75222 1.13704,1.36442 2.27407,1.36442 4.54815,0 9.32368,-1.47814 4.77555,-1.59185 10.57443,-5.57146 5.91258,-3.97963 13.41701,-10.91555 7.50442,-7.04961 17.51034,-17.96514 3.5248,-3.75222 6.36739,-6.93591 2.9563,-3.1837 5.79887,-6.36739 2.95629,-3.1837 6.02628,-6.70851 3.1837,-3.52479 7.04962,-8.07295 0.90962,-1.25074 2.61518,-1.81924 1.70555,-0.68219 3.52481,-0.68219 1.25073,0 2.61517,0.45478 1.36444,0.34109 2.38777,1.25076 1.13705,0.90961 1.81927,2.61515 0.68219,1.59186 0.68219,4.20704 0,1.93297 -0.56848,4.32074 -0.45481,2.27406 -1.93298,4.88924 z"
       style="font-weight:bold;font-size:29.7793px;line-height:1.25;font-family:'Segoe Script';-inkscape-font-specification:'Segoe Script';stroke-width:1.33333333;fill:none;stroke:#000000;stroke-opacity:1;stroke-miterlimit:4;stroke-dasharray:none"
       id="path20376" />
    <path
       d="m 690.74129,424.14899 q 0,2.16039 -1.47815,4.66186 -1.36443,2.38777 -3.52482,4.77554 -2.04665,2.38777 -4.54812,4.54812 -2.50149,2.16039 -4.66186,3.63854 -1.02333,0.68218 -3.63851,2.38777 -2.50147,1.59183 -6.02628,3.7522 -3.52479,2.16036 -7.73183,4.66184 -4.09333,2.50149 -8.30037,4.88926 -4.0933,2.38778 -7.95922,4.54814 -3.75222,2.04665 -6.70851,3.52479 -0.68219,0.3411 -4.09332,1.93297 -3.2974,1.47816 -7.95925,3.63851 -4.66183,2.16036 -10.00591,4.66184 -5.34406,2.50147 -10.00589,4.66185 -4.66186,2.16036 -7.95925,3.63851 -3.18369,1.47814 -3.63851,1.70555 -2.38777,1.25072 -4.54814,2.50146 -2.04667,1.36447 -4.32073,2.61521 -6.82221,4.66183 -13.41702,6.70848 -6.4811,2.16038 -14.55403,2.16038 -7.84553,0 -11.71146,-3.06999 -3.86592,-2.95631 -5.57147,-9.66482 -0.22739,-1.02332 -1.02333,-1.93295 -0.68219,-0.79591 -1.59186,-1.81925 -0.79591,-0.90963 -1.70552,-1.93295 -0.79595,-0.90963 -1.13707,-2.16038 -0.68219,-2.16036 -1.25073,-4.66185 -0.45478,-2.61516 -0.68217,-5.34406 -0.22741,-2.72887 -0.34109,-5.34406 -0.11356,-2.61516 -0.11356,-4.88924 0,-5.79887 0,-9.43738 0,-3.63851 0,-5.79888 0,-2.16036 0,-3.18369 0.11356,-1.13704 0.11356,-1.81927 1.59183,-21.03513 4.88924,-41.84286 3.29739,-20.92144 8.41404,-41.50178 1.02334,-3.97961 2.38777,-8.64145 1.47816,-4.77557 2.95631,-8.98258 1.47814,-4.20703 2.61518,-7.27703 1.13702,-3.18369 1.59184,-3.97963 2.61518,-5.79887 5.91258,-8.98257 3.29742,-3.29738 7.39072,-3.4111 3.75222,0.45481 5.79888,1.93297 2.16036,1.47813 3.18369,3.52481 1.02333,2.04665 1.25074,4.43442 0.22741,2.38777 0.22741,4.66186 0,6.36739 -1.47815,13.87181 -1.47815,7.50443 -3.63851,15.34998 -2.16038,7.73183 -4.66185,15.46366 -2.38777,7.61813 -4.20701,14.32664 -1.02335,3.75222 -2.16039,8.52775 -1.13702,4.77557 -2.27406,10.00592 -1.13704,5.23035 -2.27406,10.68811 -1.02332,5.45778 -1.93298,10.57443 7.27704,-9.43739 15.80479,-17.73773 8.64146,-8.30037 17.28294,-14.55406 8.64146,-6.36739 16.60071,-10.00589 8.07293,-3.63854 14.21293,-3.63854 4.43442,0 8.30034,2.04668 3.97963,2.04668 6.93592,5.7989 2.95629,3.7522 4.66183,8.98254 1.81927,5.11665 1.81927,11.37037 0,4.20702 -2.04668,9.66479 -2.04665,5.34406 -5.00295,10.91553 -2.95629,5.57146 -6.48109,11.02923 -3.41109,5.45778 -6.3674,9.8922 5.79888,-2.72889 12.27998,-5.91258 6.4811,-3.18369 13.07592,-6.4811 6.59478,-3.4111 12.84846,-6.70851 6.25371,-3.41108 11.59777,-6.48108 1.70555,-0.90963 3.97961,-2.27408 2.27408,-1.47814 4.66186,-2.72888 2.38777,-1.36445 4.54812,-2.27406 2.16039,-1.02334 3.52481,-1.02334 1.02335,0 2.38778,1.59185 1.47813,1.59184 1.47813,5.23035 z m -74.36207,-15.69106 q 0,-0.4548 -0.11357,-1.13705 -0.11356,-0.79593 -0.45479,-1.47813 -0.34111,-0.79594 -0.90963,-1.25073 -0.4548,-0.56851 -1.36444,-0.56851 -1.59183,0 -5.00295,1.81925 -3.29739,1.70557 -7.0496,4.09333 -3.63853,2.38777 -7.04963,4.88926 -3.4111,2.38776 -5.11665,3.7522 -2.61519,2.27406 -6.4811,6.13998 -3.86592,3.75222 -7.73184,7.95926 -3.86592,4.09333 -7.04963,7.95925 -3.06998,3.7522 -4.32071,6.02627 -1.47815,2.84258 -3.29741,6.13998 -1.81924,3.1837 -3.52481,6.70851 -1.59185,3.4111 -2.8426,7.04962 -1.13702,3.63851 -1.47811,7.27701 0,0.3411 -0.3411,1.59186 -0.22741,1.13704 -0.5685,2.38777 -0.3411,1.36445 -0.79593,2.50147 -0.3411,1.25074 -0.79592,1.59186 1.70555,0 4.54814,-0.90964 2.95629,-0.79591 6.4811,-2.27407 3.52479,-1.36444 7.39071,-3.41109 3.86592,-2.04667 7.50445,-4.43445 5.45775,-3.5248 10.46072,-9.66478 5.11666,-6.25369 10.1196,-12.9622 3.86591,-5.23035 7.27702,-10.46072 3.52481,-5.34406 6.13999,-10.46073 2.72888,-5.11665 4.32074,-9.89219 1.70555,-4.77556 2.04665,-8.98257 z"
       style="font-weight:bold;font-size:29.7793px;line-height:1.25;font-family:'Segoe Script';-inkscape-font-specification:'Segoe Script';stroke-width:1.33333333;fill:none;stroke:#000000;stroke-opacity:1;stroke-miterlimit:4;stroke-dasharray:none"
       id="path20378" />
    <path
       d="m 734.51711,377.8717 q 0,-1.81926 -0.6822,-2.9563 -0.68219,-1.25074 -1.59184,-1.93297 -0.79592,-0.68219 -1.70556,-0.90961 -0.79593,-0.3411 -1.13704,-0.3411 -5.11665,0 -9.43737,3.97962 -4.32074,3.86592 -7.73186,10.00591 -3.4111,6.13998 -6.02627,13.53072 -2.50148,7.39071 -4.20704,14.32662 6.82221,-5.23037 12.7348,-9.66479 5.91258,-4.43445 10.2333,-8.64146 4.43444,-4.20703 6.93591,-8.41407 2.61519,-4.20702 2.61519,-8.98257 z m 55.14617,43.54842 q 0,4.20703 -3.29738,9.55109 -3.29742,5.34406 -8.86885,11.14294 -6.14003,6.25369 -13.53073,11.71145 -7.27705,5.34407 -15.2363,9.32368 -7.84552,3.86592 -16.03217,6.13999 -8.18666,2.16038 -15.91849,2.16038 -9.55109,0 -17.05552,-2.95629 -7.39074,-3.07 -12.6211,-8.86887 -5.11665,-5.9126 -7.84553,-14.66776 -2.72887,-8.75516 -2.72887,-20.12551 0,-6.82221 1.25072,-13.87182 1.36446,-7.04961 3.86592,-13.98552 2.5015,-7.04962 6.2537,-13.53072 3.75222,-6.59481 8.52775,-12.39368 3.07,-3.63851 6.93592,-7.27703 3.97963,-3.75222 8.75516,-6.70851 4.77554,-2.95627 10.46073,-4.77554 5.79887,-1.93294 12.50738,-1.93294 5.45776,0 9.6648,2.04665 4.32072,1.93297 7.27701,5.00295 2.95628,3.06999 4.54814,6.93592 1.59184,3.86592 1.59184,7.61813 0,8.86887 -3.86592,16.6007 -3.7522,7.61813 -10.57442,14.66776 -6.8222,6.93589 -16.487,13.6444 -9.55107,6.70851 -21.14885,13.75814 -0.56848,0.22739 -1.81924,1.02333 -1.13704,0.79591 -1.13704,1.02332 0.1137,2.27406 1.13704,4.88925 1.02332,2.61518 3.18368,4.88924 2.16038,2.27407 5.45778,3.86592 3.41111,1.47815 8.07294,1.47815 7.16332,0 14.44035,-1.93295 7.27701,-2.04667 14.32664,-5.79888 7.04961,-3.75222 13.75809,-9.09628 6.70851,-5.34406 12.73483,-12.05257 2.27405,-2.61517 4.43438,-3.75222 2.27413,-1.13704 4.20705,-1.13704 1.93296,0 3.29742,1.59186 1.47814,1.59185 1.47814,5.79888 z"
       style="font-weight:bold;font-size:29.7793px;line-height:1.25;font-family:'Segoe Script';-inkscape-font-specification:'Segoe Script';stroke-width:1.33333333;fill:none;stroke:#000000;stroke-opacity:1;stroke-miterlimit:4;stroke-dasharray:none"
       id="path20380" />
    <text
       xml:space="preserve"
       style="font-style:normal;font-weight:normal;font-size:21.5505px;line-height:1.25;font-family:sans-serif;fill:none;fill-opacity:1;stroke:#000000;stroke-width:1.33333333;stroke-opacity:1;stroke-miterlimit:4;stroke-dasharray:none"
       x="288.41504"
       y="26.772537"
       id="text20279"><tspan
         sodipodi:role="line"
         id="tspan20277"
         style="stroke-width:1.33333333;fill:none;stroke:#000000;stroke-opacity:1;stroke-miterlimit:4;stroke-dasharray:none"
         x="288.41504"
         y="26.772537" /></text>
  </g>
</svg>
