<?xml version="1.0" encoding="UTF-8" standalone="no"?>
<!-- Created with Inkscape (http://www.inkscape.org/) -->

<svg
   width="340.79352"
   height="336.0972"
   viewBox="0 0 340.79352 336.0972"
   version="1.1"
   id="svg826"
   inkscape:version="1.1 (c68e22c387, 2021-05-23)"
   sodipodi:docname="bigN.svg"
   xmlns:inkscape="http://www.inkscape.org/namespaces/inkscape"
   xmlns:sodipodi="http://sodipodi.sourceforge.net/DTD/sodipodi-0.dtd"
   xmlns="http://www.w3.org/2000/svg"
   xmlns:svg="http://www.w3.org/2000/svg">
  <sodipodi:namedview
     id="namedview828"
     pagecolor="#ffffff"
     bordercolor="#666666"
     borderopacity="1.0"
     inkscape:pageshadow="2"
     inkscape:pageopacity="0.0"
     inkscape:pagecheckerboard="0"
     inkscape:document-units="px"
     showgrid="false"
     units="px"
     inkscape:zoom="1.5358305"
     inkscape:cx="204.7752"
     inkscape:cy="88.876995"
     inkscape:window-width="1920"
     inkscape:window-height="1051"
     inkscape:window-x="-9"
     inkscape:window-y="-9"
     inkscape:window-maximized="1"
     inkscape:current-layer="layer1" />
  <defs
     id="defs823" />
  <g
     inkscape:label="Layer 1"
     inkscape:groupmode="layer"
     id="layer1"
     transform="translate(-6.0983095,-11.503463)">
    <path
       d="m 109.91764,119.19036 v 171.27803 h 20.44286 q 20.44286,0 29.00676,8.0114 8.84016,7.73513 8.84016,20.44286 0,12.43147 -8.84016,20.44286 -8.5639,7.73514 -29.00676,7.73514 H 56.047935 q -20.442862,0 -29.283018,-7.73514 -8.563902,-8.01139 -8.563902,-20.71912 0,-12.15521 8.563902,-20.1666 8.563901,-8.0114 26.520469,-8.0114 V 68.91197 H 44.44523 q -20.442862,0 -29.283019,-7.735137 -8.5639015,-8.011391 -8.5639015,-20.719117 0,-12.707725 8.5639015,-20.442862 8.840157,-8.011391 29.283019,-8.011391 L 109.91764,12.279717 254.6752,239.36124 V 68.91197 h -20.44286 q -20.44286,0 -29.28302,-7.735137 -8.5639,-8.011391 -8.5639,-20.719117 0,-12.707725 8.5639,-20.442862 8.84016,-8.011391 29.28302,-8.011391 l 74.31257,0.276254 q 20.44286,0 29.00676,7.735137 8.84016,7.735137 8.84016,20.442862 0,12.431471 -8.5639,20.442862 -8.56391,8.011392 -26.24422,8.011392 v 278.18868 h -56.07974 z"
       style="font-weight:bold;font-size:565.77px;line-height:1.25;font-family:'Courier New';-inkscape-font-specification:'Courier New';fill:none;stroke:#000000;stroke-width:1;stroke-miterlimit:4;stroke-dasharray:none;stroke-opacity:1"
       id="path2308" />
    <text
       xml:space="preserve"
       style="font-style:normal;font-weight:normal;font-size:10.5833px;line-height:1.25;font-family:sans-serif;fill:#000000;fill-opacity:1;stroke:none;stroke-width:0.264583"
       x="145.74362"
       y="60.468098"
       id="text20279"><tspan
         sodipodi:role="line"
         id="tspan20277"
         style="stroke-width:0.264583"
         x="145.74362"
         y="60.468098" /></text>
  </g>
</svg>
