<?xml version="1.0" encoding="UTF-8" standalone="no"?>
<!-- Created with Inkscape (http://www.inkscape.org/) -->

<svg
   width="100mm"
   height="100mm"
   viewBox="0 0 354.33071 354.3307"
   id="svg2"
   version="1.1"
   inkscape:version="1.1 (c68e22c387, 2021-05-23)"
   sodipodi:docname="snailPaths.svg"
   xmlns:inkscape="http://www.inkscape.org/namespaces/inkscape"
   xmlns:sodipodi="http://sodipodi.sourceforge.net/DTD/sodipodi-0.dtd"
   xmlns="http://www.w3.org/2000/svg"
   xmlns:svg="http://www.w3.org/2000/svg"
   xmlns:rdf="http://www.w3.org/1999/02/22-rdf-syntax-ns#"
   xmlns:cc="http://creativecommons.org/ns#"
   xmlns:dc="http://purl.org/dc/elements/1.1/">
  <defs
     id="defs4" />
  <sodipodi:namedview
     id="base"
     pagecolor="#ffffff"
     bordercolor="#666666"
     borderopacity="1.0"
     inkscape:pageopacity="0.0"
     inkscape:pageshadow="2"
     inkscape:zoom="2.8"
     inkscape:cx="187.67857"
     inkscape:cy="196.60714"
     inkscape:document-units="px"
     inkscape:current-layer="layer1"
     showgrid="false"
     width="100mm"
     inkscape:window-width="1920"
     inkscape:window-height="1051"
     inkscape:window-x="-9"
     inkscape:window-y="-9"
     inkscape:window-maximized="1"
     inkscape:pagecheckerboard="0" />
  <metadata
     id="metadata7">
    <rdf:RDF>
      <cc:Work
         rdf:about="">
        <dc:format>image/svg+xml</dc:format>
        <dc:type
           rdf:resource="http://purl.org/dc/dcmitype/StillImage" />
      </cc:Work>
    </rdf:RDF>
  </metadata>
  <g
     inkscape:label="Calque 1"
     inkscape:groupmode="layer"
     id="layer1"
     transform="translate(0,-698.0315)">
    <path
       style="opacity:1;fill:none;fill-opacity:1;stroke:#000000;stroke-width:0.93749998;stroke-linecap:round;stroke-linejoin:round;stroke-miterlimit:4;stroke-dasharray:none;stroke-dashoffset:0;stroke-opacity:1"
       d="m 303.16415,792.33491 c -4.83875,0.61845 -0.62436,7.59944 -4.19733,9.26026 -4.28484,1.04329 -3.67812,-4.18552 -3.90197,-6.81669 -1.15224,-4.23449 -5.74795,0.50018 -8.24006,1.54345 -10.91543,7.53574 -15.76184,20.74301 -20.27529,32.65261 -4.99212,19.3911 -4.85196,39.78598 -3.36921,59.63299 2.62616,16.95785 4.52028,35.22727 -4.11727,50.83815 -6.22791,7.33579 -6.63967,18.27568 -14.68829,24.12755 -6.87374,3.6017 -15.03991,0.52235 -22.42952,1.22785 -10.25609,-0.15675 -20.36098,1.92972 -29.97883,5.34102 -8.44255,2.05065 -17.09394,-1.52913 -24.39002,-5.23152 -12.87482,9.79224 -28.22833,16.992 -44.62301,17.39025 -12.65726,-0.94225 -26.143686,-2.1178 -36.809214,-9.83821 -4.933817,-3.2898 -11.255615,-7.7521 -17.223103,-4.04442 -8.329035,3.1648 -10.427323,13.86629 -19.084899,16.6533 -2.308235,1.49568 -8.021972,1.00627 -7.484052,4.75986 5.787202,6.53332 15.534663,5.77012 23.397832,6.35722 22.695846,1.1481 45.395446,1.3786 68.086856,2.2851 21.15402,0.062 42.10145,-4.53759 63.22739,-3.0591 21.73057,-0.2276 43.56524,-0.5227 65.15896,-3.10704 8.99061,-1.65705 17.85803,-4.28868 26.55678,-6.91222 10.11374,-7.4992 14.82775,-19.92013 19.72073,-31.06387 4.98554,-13.97314 4.65021,-29.61246 -0.77725,-43.41752 -5.41697,-15.91429 -12.35408,-31.84948 -12.41981,-48.92133 -0.67513,-13.12901 0.11181,-26.36115 2.42042,-39.33757 3.39762,-8.18235 9.7438,-15.89887 9.79688,-25.08742 -0.3668,-2.21588 -1.97347,-4.87542 -4.35672,-5.2327 z"
       id="path4189"
       inkscape:connector-curvature="0" />
    <path
       style="opacity:1;fill:none;fill-opacity:1;stroke:#000000;stroke-width:0.93749998;stroke-linecap:round;stroke-linejoin:round;stroke-miterlimit:4;stroke-dasharray:none;stroke-dashoffset:0;stroke-opacity:1"
       d="m 309.26333,222.26867 c -0.94293,2.90077 -1.48119,5.94555 -2.48319,8.85318 -2.85305,9.07779 -4.65302,18.76059 -10.21017,26.70745 -4.59986,6.64523 -10.29158,12.62648 -15.81847,18.54991 -4.65248,4.59273 -9.07732,9.44828 -14.33186,13.38916 -1.22389,1.06805 -3.08905,1.58732 -3.85959,3.07879 -0.0245,1.81289 2.16593,1.09748 3.23565,0.86169 7.06018,-1.67329 13.84301,-4.3514 20.96066,-5.81528 3.63898,-0.66538 5.6649,-4.05631 8.09182,-6.48419 2.99767,-2.98518 4.90476,-6.76966 6.74825,-10.52071 3.83297,-7.86228 8.16899,-15.7125 9.47709,-24.48436 1.00037,-5.58075 0.49525,-11.29548 0.49767,-16.93288 -0.16978,-2.41681 -0.0866,-4.99122 -0.96527,-7.24764 -0.49625,-0.26707 -0.86053,-0.25075 -1.34259,0.0449 z"
       id="path4237"
       inkscape:connector-curvature="0"
       transform="translate(0,698.03148)" />
    <path
       style="opacity:1;fill:none;fill-opacity:1;stroke:#000000;stroke-width:0.93749998;stroke-linecap:round;stroke-linejoin:round;stroke-miterlimit:4;stroke-dasharray:none;stroke-dashoffset:0;stroke-opacity:1"
       d="m 300.93894,94.154891 c -0.9023,1.161109 -0.4747,2.976793 -0.30467,4.332348 1.04095,1.15697 2.70702,-0.218326 3.99607,-0.481141 1.27172,-0.137641 1.64237,-1.813594 0.51593,-2.431666 -1.19185,-0.862696 -2.68667,-1.76042 -4.20733,-1.419541 z"
       id="path4231"
       inkscape:connector-curvature="0"
       transform="translate(0,698.03148)" />
    <path
       style="opacity:1;fill:none;fill-opacity:1;stroke:#000000;stroke-width:0.93749998;stroke-linecap:round;stroke-linejoin:round;stroke-miterlimit:4;stroke-dasharray:none;stroke-dashoffset:0;stroke-opacity:1"
       d="m 293.43284,95.379109 c -3.44037,0.907953 -6.56638,2.890885 -9.35221,5.071571 -5.72169,4.60476 -8.92917,11.41591 -12.29475,17.76347 -3.09627,6.39383 -5.59398,13.16304 -6.79515,20.18079 -0.81433,1.36916 0.74688,3.58793 1.82751,1.75958 4.41752,-8.59244 9.88458,-16.53823 16.17895,-23.8378 3.77949,-4.60121 7.88869,-8.94884 12.13338,-13.14592 0.58685,-1.59836 -0.44313,-3.360636 -0.25846,-5.068028 -0.042,-1.026572 0.0627,-2.814383 -1.43927,-2.723663 z"
       id="path4229"
       inkscape:connector-curvature="0"
       transform="translate(0,698.03148)" />
    <path
       style="opacity:1;fill:none;fill-opacity:1;stroke:#000000;stroke-width:0.93749998;stroke-linecap:round;stroke-linejoin:round;stroke-miterlimit:4;stroke-dasharray:none;stroke-dashoffset:0;stroke-opacity:1"
       d="m 259.39987,939.31795 c -1.39246,0.68393 -1.85376,2.48492 -2.90578,3.58312 -1.59854,2.06646 -2.85744,4.36048 -3.47328,6.90905 -1.66745,4.07901 -3.40543,8.29085 -6.23601,11.74006 -2.18379,2.4885 -5.32875,4.14243 -8.68889,3.9982 -5.73951,0.2002 -11.41028,-1.51838 -17.17753,-0.73789 -8.64695,0.79032 -17.57098,1.03524 -25.69378,4.4512 -5.88345,2.50054 -12.52583,2.36936 -18.43134,0.16058 -3.13163,-1.00005 -6.1477,-2.37162 -8.75942,-4.30745 -1.79416,-0.42666 -3.01148,1.56785 -4.39849,2.34635 -14.60372,11.20305 -33.56839,16.96305 -51.8968,14.57321 -8.27693,-1.25396 -16.552919,-3.52637 -23.849048,-7.83145 -3.817713,-2.03938 -7.339652,-4.62584 -10.863103,-7.15018 -1.967982,-0.6122 -4.036228,0.38187 -5.98545,0.73345 -2.610519,0.85074 -5.713576,1.56533 -7.333471,3.94936 0.53575,1.68347 2.292392,2.74097 3.539735,3.95365 6.029781,4.66886 14.094516,4.58649 21.288901,5.47887 6.198343,0.59317 12.224246,2.36476 18.109086,4.41912 7.4754,2.40034 15.4695,1.69517 23.12772,0.74529 7.38216,-1.1461 14.0604,-4.82472 21.36701,-6.30263 5.90765,-1.27799 11.90996,-2.89384 18.0106,-3.26573 5.5568,0.12415 10.92793,2.00902 16.48847,2.62649 7.31096,0.95681 14.71416,1.08583 22.07758,1.03135 5.4874,-0.4524 10.94485,-1.47009 16.26355,-2.88601 4.82429,-1.55586 9.42298,-3.88242 14.50009,-4.57361 4.22138,-1.00494 8.90587,-0.9945 12.73793,-3.2773 3.25721,-2.45252 5.94938,-5.63516 8.29122,-8.95561 2.24886,-4.2961 2.21719,-9.35305 2.31674,-14.08492 -0.003,-2.40503 -0.17852,-5.06966 -1.56011,-7.10017 -0.2402,-0.19187 -0.56169,-0.28023 -0.86613,-0.2264 z"
       id="path4223"
       inkscape:connector-curvature="0" />
    <path
       style="opacity:1;fill:none;fill-opacity:1;stroke:#000000;stroke-width:0.93749998;stroke-linecap:round;stroke-linejoin:round;stroke-miterlimit:4;stroke-dasharray:none;stroke-dashoffset:0;stroke-opacity:1"
       d="m 148.56895,815.52742 c -16.07737,-1.3875 -32.11942,3.668 -46.51173,10.44524 -18.385229,10.38346 -32.365375,27.69375 -41.126607,46.71018 -6.347689,13.87473 -8.339041,29.41581 -8.077265,44.54079 1.06735,11.59331 6.699489,22.12227 14.303707,30.75425 11.630761,14.75214 28.11401,27.74657 47.604395,28.39673 9.36565,1.13835 18.86137,0.1378 27.60273,-3.50995 18.25882,-5.75575 34.22644,-21.74678 35.49519,-41.51772 0.26446,-14.54429 -1.98025,-29.5467 -8.32496,-42.73901 -5.07514,-8.46569 -14.5448,-15.9503 -24.97178,-13.61995 -11.24899,1.82534 -22.77888,9.59671 -25.44047,21.16987 -1.2893,4.01141 1.94587,8.048 0.85239,11.83808 -3.45854,2.53859 -6.31035,-2.74512 -6.15111,-5.75716 -0.5572,-7.56717 1.75199,-15.14832 7.30599,-20.49444 8.94224,-9.92426 23.93947,-15.33598 36.89286,-10.59889 13.01074,5.65425 19.84146,19.48124 22.44869,32.72074 4.53793,18.05611 4.30532,38.63264 -7.20425,54.15757 -3.46884,3.8252 3.07372,5.33984 5.91668,6.09072 6.14228,1.76944 12.64853,1.52224 18.42643,-1.28652 13.34482,-4.21083 27.54703,-3.3355 41.40975,-2.80031 5.41507,-0.77208 6.69252,-7.28636 9.06051,-11.30822 2.06345,-2.66076 0.0612,-5.40129 -2.77196,-6.18971 -9.79384,-4.25609 -11.67963,-15.84466 -12.50733,-25.2353 -4.2059,-22.57378 -12.60736,-44.38919 -23.92166,-64.34041 -9.90156,-15.81532 -24.70172,-30.0119 -43.20099,-34.67269 -5.63661,-1.27837 -11.35844,-2.18256 -17.10921,-2.75389 z"
       id="path4187"
       inkscape:connector-curvature="0" />
    <path
       style="opacity:1;fill:none;fill-opacity:1;stroke:#000000;stroke-width:0.93749998;stroke-linecap:round;stroke-linejoin:round;stroke-miterlimit:4;stroke-dasharray:none;stroke-dashoffset:0;stroke-opacity:1"
       d="m 74.785123,256.42248 c -1.552285,0.45997 -0.578091,2.13045 0.329729,2.70321 8.217903,7.85958 17.973168,14.53231 29.103298,17.38837 5.9534,1.64344 12.12344,2.66921 18.31558,2.23053 12.10875,-0.18459 23.91411,-4.4677 34.07423,-10.89658 1.25223,-0.45464 0.89495,-2.52254 -0.52134,-2.17435 -4.87744,1.97216 -9.8336,3.3937 -15.09474,3.99369 -3.58091,0.53372 -7.18913,0.8546 -10.79779,0.22265 -8.18294,-0.94939 -16.42586,-1.3643 -24.5855,-2.4974 -9.066283,-1.55199 -17.484819,-5.43587 -25.913499,-8.98538 -1.643034,-0.57024 -3.155362,-1.84914 -4.909968,-1.98474 z"
       id="path4207"
       inkscape:connector-curvature="0"
       transform="translate(0,698.03148)" />
    <g
       id="g4178"
       style="fill:none;stroke:#000000;stroke-opacity:1;stroke-width:0.63135227;stroke-miterlimit:4;stroke-dasharray:none"
       transform="matrix(1.4742558,0.17754259,-0.17754259,1.4742558,126.53598,-429.76179)">
      <path
         inkscape:connector-curvature="0"
         d="m 78.107258,938.70062 c -0.333229,0.0657 -0.675581,0.12002 -1.001123,0.21991 -0.433986,0.11341 -0.845062,0.29677 -1.260482,0.46303 -0.46009,0.20183 -0.915105,0.41904 -1.355819,0.66048 -0.477394,0.24573 -0.942133,0.5152 -1.383549,0.82103 -0.379951,0.26478 -0.721153,0.58111 -1.065726,0.88948 -0.283487,0.26346 -0.526872,0.56192 -0.771236,0.86055 -0.256005,0.3193 -0.451725,0.67866 -0.664461,1.0265 -0.250056,0.38979 -0.443191,0.81044 -0.654712,1.22112 -0.241202,0.49196 -0.506376,0.97134 -0.772898,1.44987 -0.192999,0.40495 -0.433315,0.78479 -0.634609,1.18531 -0.263342,0.49604 -0.56969,0.96666 -0.882535,1.43236 -0.319905,0.45046 -0.662685,0.88162 -1.029636,1.29446 -0.356799,0.40444 -0.765991,0.75761 -1.166291,1.11754 -0.483952,0.41905 -1.024319,0.76688 -1.567969,1.10238 -0.604371,0.35539 -1.241055,0.6507 -1.884972,0.92615 -0.541986,0.25043 -1.086591,0.49425 -1.636361,0.72713 -0.467341,0.17203 -0.924481,0.36378 -1.379752,0.56472 -0.186822,0.0667 -0.211605,0.14923 -0.309464,0.25626 -0.120242,0.15168 -0.268666,0.31192 -0.314327,0.48902 0.09906,-0.11084 0.06064,-0.44855 0.147615,-0.20292 0.11507,0.16487 0.236395,0.3324 0.377608,0.48062 0.331743,0.30333 0.695409,0.57002 1.068974,0.81925 0.432521,0.27969 0.909647,0.47472 1.390584,0.65296 0.628226,0.22521 1.277515,0.38161 1.928388,0.52476 0.747326,0.15224 1.512054,0.19898 2.271156,0.25871 0.786641,0.064 1.577526,0.0444 2.366029,0.0386 0.765579,0.0142 1.528488,-0.0474 2.291367,-0.10157 0.836589,-0.0606 1.674062,-0.10773 2.511671,-0.1516 0.809644,-0.0211 1.614711,-0.10802 2.420579,-0.18257 0.907413,-0.0845 1.816307,-0.15065 2.725753,-0.20855 0.979717,-0.0684 1.962165,-0.0868 2.941845,-0.15359 1.076009,-0.0651 2.147443,-0.17659 3.218956,-0.29146 1.228348,-0.14275 2.462867,-0.21873 3.693737,-0.33388 1.346299,-0.11631 2.686409,-0.29024 4.02874,-0.44369 1.384277,-0.16626 2.775104,-0.26754 4.161678,-0.41048 1.327675,-0.15745 2.660108,-0.2713 3.988233,-0.42374 1.369531,-0.1693 2.741771,-0.31387 4.115671,-0.44241 1.41566,-0.12928 2.83401,-0.22546 4.25261,-0.31557 1.35788,-0.0854 2.71691,-0.1508 4.07607,-0.21183 1.2989,-0.0373 2.59433,-0.13783 3.89046,-0.22532 1.34459,-0.10819 2.68673,-0.24124 4.02318,-0.42476 1.35794,-0.18565 2.71139,-0.39981 4.06497,-0.61434 1.30771,-0.19994 2.60991,-0.43389 3.91049,-0.67543 1.34547,-0.26712 2.69117,-0.53201 4.02964,-0.83262 1.34012,-0.30645 2.67144,-0.64896 4.01195,-0.95409 1.25818,-0.31215 2.52453,-0.58892 3.78655,-0.88474 1.22589,-0.29105 2.46149,-0.53792 3.69954,-0.7708 1.06215,-0.19064 2.11577,-0.42443 3.17614,-0.62485 0.97004,-0.1631 1.93687,-0.33999 2.90185,-0.5305 0.90046,-0.18531 1.80712,-0.33748 2.71546,-0.47823 0.87226,-0.13139 1.7481,-0.23684 2.62516,-0.33017 0.84731,-0.0886 1.69649,-0.15665 2.54602,-0.21959 0.84187,-0.0622 1.68485,-0.10706 2.52801,-0.14732 0.84667,-0.0187 1.68908,-0.1038 2.53215,-0.17729 0.88611,-0.0809 1.77363,-0.14404 2.66143,-0.20289 0.8063,-0.0911 1.61532,-0.16278 2.41948,-0.27153 0.87245,-0.13705 1.75182,-0.2262 2.62412,-0.3632 0.89702,-0.13763 1.79021,-0.29672 2.68403,-0.45334 0.98728,-0.17873 1.97647,-0.35024 2.96114,-0.54318 1.08349,-0.22555 2.17856,-0.38716 3.26721,-0.58384 1.13982,-0.22184 2.29089,-0.37557 3.43652,-0.56194 1.18973,-0.1959 2.38322,-0.36658 3.5733,-0.5602 1.16997,-0.20284 2.34971,-0.34168 3.52196,-0.52893 1.03889,-0.15712 2.07112,-0.34835 3.1028,-0.5462 0.94187,-0.16976 1.88076,-0.35167 2.81793,-0.54552 0.90809,-0.17211 1.81482,-0.34798 2.71964,-0.53663 0.82407,-0.15846 1.64324,-0.33645 2.46212,-0.51937 0.74422,-0.15091 1.4825,-0.3237 2.2194,-0.50636 0.71403,-0.15989 1.42442,-0.33219 2.13367,-0.51187 0.65276,-0.14681 1.29208,-0.34322 1.93627,-0.52247 0.52308,-0.1376 1.03437,-0.31696 1.53826,-0.51274 0.49723,-0.19792 0.97825,-0.43339 1.4693,-0.6461 0.43746,-0.19747 0.8998,-0.35449 1.32181,-0.58464 0.4837,-0.25362 0.97475,-0.49082 1.47828,-0.70234 0.38316,-0.19899 0.7931,-0.34304 1.1784,-0.53652 0.43644,-0.22488 0.88367,-0.4274 1.33752,-0.61427 0.38004,-0.13432 0.74305,-0.30711 1.11332,-0.46543 0.36067,-0.15923 0.73694,-0.27734 1.0985,-0.43387 0.40791,-0.21307 0.86356,-0.30838 1.28641,-0.48086 0.4383,-0.16756 0.88149,-0.32064 1.32794,-0.46487 0.35705,-0.0841 0.691,-0.22729 1.03327,-0.35556 0.33559,-0.13666 0.68303,-0.23279 1.03333,-0.32229 3.4806,-0.80035 4.61246,4.12195 1.13187,4.9223 l 0,0 c -0.13355,0.0352 -0.26437,0.0808 -0.39349,0.12982 -0.414,0.15499 -0.82376,0.3238 -1.25334,0.43225 -0.38402,0.12386 -0.76488,0.25586 -1.1416,0.40067 -0.34564,0.12301 -0.70055,0.22218 -1.03281,0.38007 -0.36512,0.15582 -0.73859,0.28777 -1.10609,0.43712 -0.39229,0.16735 -0.77886,0.348 -1.1801,0.4934 -0.3699,0.15098 -0.7314,0.32091 -1.08688,0.50339 -0.46795,0.21811 -0.94363,0.41943 -1.41069,0.63982 -0.39031,0.1577 -0.76181,0.35518 -1.13685,0.54555 -0.52155,0.25726 -1.05595,0.48881 -1.59299,0.71166 -0.55157,0.23838 -1.09049,0.50585 -1.65196,0.72094 -0.6587,0.25422 -1.32684,0.48671 -2.00937,0.66894 -0.68146,0.18899 -1.35814,0.39559 -2.04818,0.55218 -0.71758,0.18171 -1.43619,0.35714 -2.15874,0.51815 -0.77483,0.19203 -1.55132,0.37381 -2.33362,0.53327 -0.84214,0.18802 -1.68479,0.37082 -2.53208,0.53447 -0.9074,0.18918 -1.81661,0.36654 -2.72744,0.53825 -0.96106,0.19879 -1.92393,0.38552 -2.88974,0.55983 -1.08478,0.20803 -2.17046,0.40802 -3.26263,0.5742 -1.16615,0.18396 -2.33852,0.32683 -3.50245,0.5258 -1.19119,0.19375 -2.38568,0.36509 -3.57658,0.56073 -1.11711,0.18031 -2.23896,0.33194 -3.35034,0.54721 -1.06477,0.19069 -2.13499,0.35129 -3.1947,0.57025 -1.01657,0.19731 -2.03685,0.37703 -3.05591,0.56072 -0.92728,0.16242 -1.85403,0.32685 -2.78457,0.46991 -0.90858,0.13863 -1.82238,0.24017 -2.73109,0.37856 -0.91428,0.11952 -1.83235,0.21083 -2.7496,0.30432 -0.8529,0.0565 -1.70554,0.11698 -2.5568,0.19486 -0.90892,0.0792 -1.81741,0.16836 -2.73007,0.19064 -0.799,0.0381 -1.59784,0.0804 -2.39562,0.13925 -0.79596,0.0589 -1.59161,0.1223 -2.38551,0.20513 -0.79725,0.0845 -1.59337,0.18025 -2.38632,0.29902 -0.83955,0.12972 -1.6775,0.27033 -2.50964,0.44201 -0.97866,0.1932 -1.95911,0.37375 -2.94301,0.53844 -1.06177,0.20025 -2.11644,0.43578 -3.18013,0.62561 -1.16459,0.21875 -2.3269,0.45063 -3.47998,0.72445 -1.2728,0.29834 -2.54987,0.57776 -3.81888,0.89221 -1.34561,0.30588 -2.68144,0.65168 -4.02701,0.95749 -1.39942,0.31341 -2.80583,0.59223 -4.21266,0.87013 -1.34434,0.24966 -2.69047,0.49096 -4.04212,0.69807 -1.38937,0.22019 -2.77871,0.43955 -4.17255,0.63021 -1.45057,0.19694 -2.90667,0.34527 -4.3661,0.45969 -1.33395,0.09 -2.66727,0.19255 -4.00403,0.2317 -1.32795,0.0596 -2.65579,0.12334 -3.9825,0.20675 -1.36851,0.0869 -2.7368,0.17936 -4.10251,0.3038 -1.33968,0.12518 -2.67766,0.26662 -4.01306,0.43175 -1.347497,0.15306 -2.69876,0.27184 -4.045786,0.42999 -1.367295,0.13957 -2.738323,0.24212 -4.103399,0.40415 -1.377632,0.15743 -2.75305,0.33539 -4.13476,0.45468 -1.207382,0.11162 -2.417956,0.18852 -3.622893,0.32679 -1.139351,0.12214 -2.27888,0.2391 -3.422914,0.30915 -0.984565,0.0639 -1.971101,0.09 -2.955713,0.1545 -0.861178,0.0547 -1.721828,0.11729 -2.581075,0.19726 -0.872795,0.0807 -1.745067,0.17208 -2.621808,0.19713 -0.806369,0.0422 -1.61261,0.0874 -2.417993,0.14583 -0.869546,0.0617 -1.739527,0.12683 -2.612023,0.1141 -0.933344,0.007 -1.86904,0.0242 -2.800073,-0.0541 -0.992382,-0.0784 -1.990025,-0.1507 -2.964881,-0.36226 -0.883815,-0.19635 -1.764051,-0.41576 -2.61502,-0.72865 -0.850255,-0.32255 -1.685925,-0.68922 -2.444092,-1.1978 -0.730849,-0.49871 -1.44559,-1.03115 -2.046891,-1.68501 -0.623421,-0.73426 -1.165588,-1.53166 -1.440935,-2.4664 -0.253183,-1.01013 -0.334291,-2.03232 0.04505,-3.02908 0.329862,-0.76108 0.756973,-1.46171 1.331181,-2.06617 0.560226,-0.58171 1.184806,-1.0783 1.932755,-1.39917 0.478195,-0.21104 0.958131,-0.41644 1.449619,-0.59493 0.54548,-0.2309 1.084251,-0.47588 1.623218,-0.72154 0.414653,-0.17644 0.825238,-0.3626 1.219418,-0.58164 0.286077,-0.17561 0.571493,-0.35483 0.839154,-0.55735 0.261603,-0.23521 0.533362,-0.46219 0.771741,-0.72114 0.21581,-0.24155 0.418882,-0.49037 0.60931,-0.75257 0.202399,-0.30094 0.403475,-0.60278 0.580259,-0.91981 0.232876,-0.44956 0.491111,-0.8846 0.716336,-1.33814 0.243422,-0.43695 0.485921,-0.87439 0.705183,-1.32415 0.273757,-0.51492 0.513763,-1.04874 0.834528,-1.53809 0.334952,-0.53683 0.646769,-1.08994 1.05622,-1.57641 0.409706,-0.50049 0.832479,-0.99014 1.312298,-1.4259 0.511711,-0.4576 1.025535,-0.91703 1.594887,-1.30296 0.591047,-0.39746 1.198294,-0.77026 1.833558,-1.09363 0.610223,-0.32395 1.22911,-0.6339 1.867418,-0.89922 0.600375,-0.24029 1.198575,-0.49188 1.826925,-0.65173 0.48912,-0.12625 0.983235,-0.23813 1.481056,-0.3241 3.522836,-0.58714 4.353176,4.3949 0.830341,4.98204 z"
         id="path4144"
         style="opacity:1;fill:none;fill-opacity:1;stroke:#000000;stroke-width:0.63135227;stroke-linecap:round;stroke-linejoin:round;stroke-miterlimit:4;stroke-dasharray:none;stroke-dashoffset:0;stroke-opacity:1" />
      <path
         inkscape:connector-curvature="0"
         d="m 222.03779,932.819 c 0.27737,-0.25317 0.50898,-0.54699 0.7408,-0.84073 0.37514,-0.4853 0.73157,-0.98458 1.11282,-1.46527 0.41141,-0.52371 0.81772,-1.05134 1.21586,-1.58525 0.40482,-0.50285 0.75695,-1.04282 1.11957,-1.57567 0.3473,-0.50718 0.64028,-1.04724 0.93343,-1.58653 0.34024,-0.63766 0.61054,-1.31024 0.87238,-1.9831 0.30374,-0.78185 0.61437,-1.56047 0.90744,-2.34645 0.32057,-0.93847 0.66664,-1.86773 0.99048,-2.80508 0.33716,-1.01707 0.68304,-2.03093 1.04135,-3.04075 0.33117,-0.95688 0.63964,-1.92175 0.93445,-2.89044 0.2558,-0.92517 0.49054,-1.85606 0.71608,-2.78905 0.1967,-0.82778 0.38898,-1.65584 0.4992,-2.49993 0.10887,-0.91646 0.17162,-1.83756 0.23589,-2.75797 0.0563,-0.82364 0.11898,-1.64611 0.11942,-2.4719 -0.003,-0.76558 -0.0121,-1.53023 -0.0658,-2.29398 -0.0385,-0.72487 -0.11969,-1.44424 -0.21954,-2.16274 -0.11156,-0.72057 -0.17242,-1.44806 -0.27948,-2.16905 -0.10795,-0.69872 -0.20936,-1.3978 -0.34486,-2.09172 -0.14819,-0.71167 -0.27718,-1.4269 -0.39435,-2.14425 -0.11475,-0.58464 -0.24489,-1.16541 -0.39261,-1.74248 -0.13,-0.53351 -0.30717,-1.05371 -0.50395,-1.5658 -0.19741,-0.52736 -0.39111,-1.05792 -0.62643,-1.56987 -0.23154,-0.53053 -0.48472,-1.05124 -0.74067,-1.57034 -0.34729,-0.63926 -0.66294,-1.29471 -1.00024,-1.93913 -0.37054,-0.74878 -0.77457,-1.48007 -1.1586,-2.22182 -0.39054,-0.72063 -0.75763,-1.453 -1.11739,-2.18931 -0.38307,-0.83036 -0.8097,-1.63943 -1.22165,-2.45557 -0.43045,-0.86051 -0.88266,-1.70947 -1.33426,-2.55895 -0.46997,-0.87432 -0.93262,-1.75309 -1.37704,-2.64074 -0.44372,-0.93101 -0.88649,-1.8622 -1.28809,-2.81226 -0.42888,-1.0095 -0.87375,-2.01211 -1.29387,-3.02531 -0.412,-1.0313 -0.83257,-2.05848 -1.20746,-3.10403 -0.36596,-0.97408 -0.70816,-1.95633 -1.01426,-2.95083 -0.30577,-1.00675 -0.53841,-2.03309 -0.74862,-3.06335 -0.17785,-0.97763 -0.35333,-1.95543 -0.53494,-2.93241 -0.17954,-0.94993 -0.33606,-1.90403 -0.47151,-2.86119 -0.1295,-0.94309 -0.28779,-1.88186 -0.42217,-2.82433 -0.1515,-0.90194 -0.31819,-1.80118 -0.46509,-2.70391 -0.13902,-0.84686 -0.25414,-1.69727 -0.36037,-2.54878 -0.10906,-0.80493 -0.15626,-1.61658 -0.25235,-2.42276 -0.1099,-0.8055 -0.21139,-1.61204 -0.30364,-2.41974 -0.0896,-0.79849 -0.16134,-1.59879 -0.22685,-2.39957 -0.0857,-0.81582 -0.10307,-1.63389 -0.0945,-2.45336 0.0113,-0.71924 0.0273,-1.4384 0.0403,-2.15761 -0.003,-0.8301 0.0657,-1.65745 0.12436,-2.48477 0.0776,-0.81767 0.2028,-1.62971 0.30466,-2.4445 0.11072,-0.85325 0.30508,-1.69154 0.48793,-2.53127 0.15844,-0.84838 0.41651,-1.67071 0.6973,-2.485 0.24676,-0.72881 0.47256,-1.4642 0.71405,-2.19475 0.22743,-0.7221 0.49877,-1.42949 0.75341,-2.14233 0.19799,-0.58655 0.38138,-1.17731 0.58713,-1.76122 0.1859,-0.57285 0.41729,-1.1286 0.6362,-1.68922 0.12777,-0.328 0.2493,-0.65788 0.38136,-0.98416 1.36409,-3.30066 6.03193,-1.37155 4.66784,1.92911 l 0,0 c -0.12774,0.29222 -0.22001,0.59891 -0.34459,0.89266 -0.1985,0.50807 -0.41127,1.01026 -0.57721,1.53037 -0.20816,0.59061 -0.38962,1.18963 -0.59434,1.78155 -0.24115,0.67505 -0.49914,1.34458 -0.71425,2.02846 -0.24835,0.75129 -0.47974,1.50788 -0.73505,2.25691 -0.21639,0.62673 -0.42167,1.25728 -0.53673,1.91227 -0.15074,0.69223 -0.31531,1.38233 -0.41153,2.08494 -0.0911,0.72474 -0.19817,1.44749 -0.27808,2.17361 -0.0524,0.73896 -0.11789,1.47766 -0.11253,2.21919 -0.0129,0.70681 -0.0284,1.41356 -0.0398,2.12039 -0.008,0.6642 0.004,1.3262 0.0781,1.98735 0.061,0.74697 0.12769,1.49349 0.21106,2.23835 0.0917,0.8046 0.1944,1.60779 0.30256,2.41035 0.0902,0.79247 0.14584,1.58849 0.24719,2.37983 0.0984,0.78959 0.20477,1.5782 0.33376,2.36347 0.15182,0.93539 0.32806,1.86651 0.48002,2.80187 0.13444,0.94483 0.29411,1.88577 0.42317,2.83132 0.12423,0.8845 0.27052,1.7658 0.43595,2.64354 0.17631,0.9488 0.34794,1.89819 0.51851,2.84799 0.17664,0.87034 0.37103,1.73768 0.62771,2.58848 0.28196,0.92144 0.60388,1.82932 0.9415,2.73179 0.34543,0.96824 0.73927,1.91712 1.11818,2.87254 0.4153,1.00394 0.85826,1.9961 1.28185,2.99655 0.35719,0.85076 0.75839,1.68139 1.15174,2.51587 0.42418,0.85062 0.86958,1.69089 1.31909,2.52832 0.46816,0.88118 0.93684,1.76189 1.38361,2.65423 0.42132,0.83553 0.85817,1.6636 1.25039,2.51346 0.34308,0.70225 0.69351,1.40047 1.06628,2.08763 0.37952,0.73605 0.78248,1.45993 1.14877,2.20289 0.35496,0.68115 0.6917,1.37142 1.05546,2.04806 0.28179,0.57423 0.56243,1.14932 0.8183,1.73569 0.26538,0.60091 0.51035,1.21081 0.73374,1.82864 0.26439,0.6934 0.50207,1.39758 0.6798,2.11871 0.18452,0.72168 0.34716,1.44852 0.48426,2.18082 0.10866,0.66649 0.22915,1.33081 0.36709,1.99194 0.15074,0.77539 0.26747,1.55593 0.38637,2.33676 0.1033,0.73072 0.17593,1.46543 0.28325,2.19571 0.11537,0.83282 0.20811,1.6674 0.25534,2.50722 0.0606,0.88365 0.0768,1.76822 0.0779,2.65389 -0.003,0.9398 -0.0637,1.87634 -0.13169,2.8135 -0.0718,1.02713 -0.14299,2.055 -0.26841,3.07728 -0.13886,1.01691 -0.35243,2.01886 -0.59588,3.01579 -0.2488,1.02865 -0.50728,2.05524 -0.79388,3.07406 -0.3176,1.04132 -0.64862,2.0789 -1.00593,3.10732 -0.35366,0.99671 -0.69464,1.99756 -1.02758,3.0014 -0.33727,0.97581 -0.6965,1.9436 -1.03178,2.92009 -0.30218,0.8104 -0.6222,1.61333 -0.93532,2.41947 -0.34046,0.86898 -0.69487,1.73576 -1.13946,2.55763 -0.37449,0.68892 -0.75577,1.37487 -1.19973,2.02237 -0.40443,0.58959 -0.79468,1.18915 -1.24251,1.74785 -0.43247,0.57943 -0.87351,1.15237 -1.32049,1.72065 -0.38052,0.46788 -0.71662,0.97032 -1.09359,1.44109 -0.35385,0.44735 -0.71704,0.88802 -1.13224,1.28073 -2.52538,2.52538 -6.09681,-1.04605 -3.57143,-3.57143 z"
         id="path4156"
         style="opacity:1;fill:none;fill-opacity:1;stroke:#000000;stroke-width:0.63135227;stroke-linecap:round;stroke-linejoin:round;stroke-miterlimit:4;stroke-dasharray:none;stroke-dashoffset:0;stroke-opacity:1" />
      <path
         inkscape:connector-curvature="0"
         d="m 192.08846,908.53736 c 0.18491,-0.5126 0.45756,-0.98488 0.70842,-1.46634 0.3009,-0.53334 0.61494,-1.05906 0.91119,-1.59502 0.31938,-0.58847 0.65436,-1.16844 0.95303,-1.76787 0.31377,-0.62792 0.59468,-1.26826 0.83532,-1.92756 0.25432,-0.74883 0.45702,-1.51374 0.68232,-2.27161 0.22736,-0.7227 0.4085,-1.458 0.567,-2.19844 0.14974,-0.70682 0.20157,-1.43019 0.26334,-2.14884 0.0647,-0.77397 0.11036,-1.54936 0.15359,-2.32478 0.006,-0.7056 -0.0167,-1.41113 -0.0337,-2.11647 -0.0468,-0.68438 -0.11697,-1.36691 -0.17573,-2.05034 -0.0602,-0.7048 -0.16843,-1.40471 -0.25482,-2.10674 -0.0725,-0.74955 -0.16844,-1.49501 -0.28166,-2.23935 -0.0837,-0.68219 -0.22802,-1.35383 -0.36293,-2.02709 -0.11938,-0.59344 -0.20776,-1.19226 -0.35235,-1.7802 -0.11715,-0.5404 -0.26852,-1.07084 -0.41613,-1.60328 -0.15732,-0.56913 -0.3175,-1.13911 -0.49965,-1.701 -0.23592,-0.64487 -0.40043,-1.31134 -0.58657,-1.97119 -0.23101,-0.84095 -0.43255,-1.69034 -0.62323,-2.54133 -0.1774,-0.92924 -0.39401,-1.8499 -0.59928,-2.77321 -0.18522,-0.91717 -0.37404,-1.83358 -0.55665,-2.7513 -0.2132,-1.0225 -0.33094,-2.06086 -0.49923,-3.09071 -0.16908,-0.9797 -0.33352,-1.96007 -0.47252,-2.94453 -0.14144,-1.03214 -0.2464,-2.06873 -0.34213,-3.10595 -0.11985,-0.98904 -0.24465,-1.97737 -0.35381,-2.96767 -0.14552,-1.02697 -0.28623,-2.05432 -0.40427,-3.08485 -0.13224,-1.16819 -0.22727,-2.33996 -0.31115,-3.51246 -0.0953,-1.3007 -0.0905,-2.6062 -0.0979,-3.90964 -0.005,-1.17392 -0.008,-2.34784 -0.0111,-3.52176 -0.0207,-1.16178 0.009,-2.3222 0.0577,-3.4828 0.0551,-1.14292 0.0805,-2.28724 0.15394,-3.42916 0.0653,-1.30171 0.25333,-2.58951 0.44981,-3.87632 0.23767,-1.54463 0.5905,-3.06743 0.94102,-4.5893 0.32949,-1.43682 0.7392,-2.85171 1.20406,-4.25003 0.45267,-1.35113 0.94532,-2.68863 1.45727,-4.01831 0.44029,-1.16048 0.913,-2.30642 1.41651,-3.44068 0.46379,-1.03742 0.96437,-2.05741 1.47914,-3.0703 0.49166,-0.93867 1.04408,-1.8425 1.64789,-2.71267 0.59914,-0.85818 1.27751,-1.65627 1.98316,-2.42778 0.62548,-0.69335 1.31161,-1.32511 2.01803,-1.9341 0.73884,-0.62176 1.51934,-1.19037 2.3119,-1.74098 0.70987,-0.48175 1.45391,-0.90915 2.18663,-1.35444 0.7294,-0.43726 1.49738,-0.8041 2.2766,-1.14251 0.6489,-0.28324 1.31374,-0.52577 1.98521,-0.74916 0.64984,-0.19195 1.31882,-0.30632 1.98684,-0.41325 0.59013,-0.0776 1.18641,-0.0762 1.78046,-0.0812 0.59979,0.0188 1.19751,0.0882 1.78866,0.18871 0.51624,0.0947 1.0152,0.24845 1.50945,0.42188 0.49941,0.19126 0.97373,0.43944 1.43486,0.70857 0.36726,0.19537 0.67422,0.47839 1.01403,0.71347 0.43332,0.3086 0.81001,0.68134 1.15804,1.08148 0.28107,0.3084 0.5352,0.63796 0.77452,0.9794 0.29305,0.43095 0.52145,0.89813 0.71845,1.37914 0.16968,0.42249 0.29445,0.86007 0.40388,1.30137 0.0986,0.41812 0.17242,0.8413 0.2418,1.26505 0.0395,0.37839 0.11997,0.74055 0.18574,1.11383 0.0761,0.54588 0.10387,1.0961 0.10181,1.64662 -0.0117,0.63559 -0.0905,1.26467 -0.18663,1.89203 -0.0519,0.52514 -0.19758,1.03548 -0.27928,1.55463 -0.009,0.0529 -0.0177,0.10574 -0.0265,0.15861 -0.59455,3.52159 -5.57484,2.68077 -4.98029,-0.84082 l 0,0 c 0.0134,-0.0786 0.0267,-0.15723 0.0401,-0.23585 0.0903,-0.46677 0.19898,-0.92882 0.25352,-1.40222 0.0626,-0.40794 0.12394,-0.81433 0.12929,-1.22829 -0.002,-0.25431 -0.015,-0.51175 -0.0425,-0.76631 -0.066,-0.3261 -0.13727,-0.71715 -0.17985,-1.07697 -0.0477,-0.29167 -0.0966,-0.58312 -0.16128,-0.87163 -0.0533,-0.21819 -0.10903,-0.43579 -0.19348,-0.64451 -0.0488,-0.12057 -0.0993,-0.23959 -0.16505,-0.35178 -0.13902,-0.19996 -0.2863,-0.38998 -0.45417,-0.56792 -0.11469,-0.13409 -0.0837,-0.11593 -0.2347,-0.24818 -0.23623,-0.16635 -0.46576,-0.35978 -0.67204,-0.49402 -0.18106,-0.10698 -0.36782,-0.20396 -0.55384,-0.30024 -0.25381,-0.0892 -0.49584,-0.1798 -0.76508,-0.22277 -0.26945,-0.0403 -0.54472,-0.07 -0.81698,-0.1027 -0.34217,0.003 -0.68432,0.007 -1.02631,0.0181 -0.39896,0.0636 -0.79683,0.13309 -1.19167,0.21907 -0.53245,0.17645 -1.05983,0.36729 -1.57399,0.59239 -0.56709,0.24313 -1.12535,0.50896 -1.6573,0.82256 -0.64529,0.39186 -1.29986,0.76879 -1.92878,1.18684 -0.64888,0.45006 -1.28899,0.91309 -1.89602,1.41894 -0.55797,0.48005 -1.10247,0.97491 -1.59451,1.52391 -0.55584,0.60146 -1.08625,1.22786 -1.55837,1.89784 -0.47415,0.67717 -0.90144,1.38466 -1.2899,2.11459 -0.47492,0.93399 -0.93739,1.87415 -1.36521,2.83081 -0.46939,1.05735 -0.91017,2.12534 -1.31989,3.20749 -0.48486,1.25706 -0.95,2.52209 -1.37868,3.79948 -0.41641,1.2452 -0.77921,2.50639 -1.07371,3.78637 -0.32223,1.39907 -0.65,2.7983 -0.87003,4.21808 -0.17469,1.14404 -0.34815,2.28795 -0.40285,3.44572 -0.0747,1.10188 -0.0901,2.20703 -0.1475,3.30991 -0.0458,1.08585 -0.0741,2.17129 -0.0532,3.25828 0.003,1.1684 0.006,2.3368 0.011,3.50519 0.007,1.19283 -4.5e-4,2.38774 0.0851,3.57813 0.0786,1.1012 0.16737,2.20174 0.29132,3.29891 0.11832,1.0375 0.26472,2.07104 0.40659,3.1055 0.11225,1.02005 0.24394,2.03766 0.36284,3.05692 0.0881,0.95693 0.18437,1.91331 0.31415,2.86563 0.13331,0.95036 0.2951,1.89618 0.45703,2.84204 0.15581,0.97102 0.27118,1.94872 0.46723,2.91314 0.17459,0.88055 0.35711,1.7595 0.53318,2.63973 0.20469,0.92154 0.42145,1.8404 0.59809,2.76791 0.16984,0.76335 0.35141,1.52488 0.55731,2.27928 0.168,0.60236 0.31846,1.20995 0.53461,1.79784 0.19796,0.6259 0.38204,1.25699 0.55593,1.88985 0.16133,0.58383 0.32557,1.16637 0.45636,1.75812 0.15794,0.65523 0.27194,1.31837 0.39674,1.98051 0.15041,0.75065 0.30782,1.50032 0.40401,2.26043 0.12028,0.79178 0.22401,1.58495 0.3013,2.38218 0.0937,0.76322 0.2111,1.52409 0.27402,2.29066 0.0675,0.78678 0.15252,1.57237 0.19279,2.36121 0.0202,0.83949 0.0502,1.67953 0.0273,2.51925 -0.0461,0.82607 -0.0951,1.65208 -0.16436,2.47659 -0.0802,0.92989 -0.15839,1.86373 -0.35758,2.77734 -0.18713,0.86718 -0.39855,1.72893 -0.66356,2.57604 -0.25576,0.86031 -0.48419,1.72933 -0.78345,2.57603 -0.3092,0.83583 -0.66249,1.65146 -1.06106,2.44873 -0.33287,0.66032 -0.69465,1.30488 -1.05069,1.95288 -0.27777,0.49948 -0.56421,0.9941 -0.85309,1.4872 -0.01,0.0191 -0.53167,1.02203 -0.39176,0.72146 -1.12939,3.38816 -5.92096,1.79096 -4.79158,-1.59719 z"
         id="path4160"
         style="opacity:1;fill:none;fill-opacity:1;stroke:#000000;stroke-width:0.63135227;stroke-linecap:round;stroke-linejoin:round;stroke-miterlimit:4;stroke-dasharray:none;stroke-dashoffset:0;stroke-opacity:1" />
      <path
         inkscape:connector-curvature="0"
         d="m 211.22159,808.61422 c -0.14571,-0.42465 -0.25613,-0.86006 -0.3564,-1.29729 -0.0904,-0.50516 -0.18826,-1.00725 -0.2941,-1.50936 -0.13009,-0.59891 -0.23307,-1.20295 -0.32052,-1.80939 -0.10298,-0.70475 -0.17246,-1.4115 -0.18915,-2.12348 -0.0234,-0.74374 0.0187,-1.48502 0.0779,-2.22594 0.0602,-0.82761 0.18579,-1.64855 0.33796,-2.46365 0.12734,-0.75805 0.29077,-1.50819 0.45792,-2.25817 0.16986,-0.74537 0.36029,-1.48675 0.56361,-2.22374 0.19697,-0.72142 0.43572,-1.43003 0.66135,-2.14272 0.25721,-0.75209 0.52559,-1.50077 0.81066,-2.24274 0.27579,-0.73181 0.58121,-1.45193 0.89332,-2.16884 0.22309,-0.47779 0.45379,-0.95186 0.6771,-1.42956 1.51277,-3.23521 6.08806,-1.09583 4.57528,2.13939 l 0,0 c -0.2049,0.43809 -0.41393,0.87411 -0.62314,1.31014 -0.28499,0.65125 -0.56137,1.30653 -0.81223,1.97178 -0.25114,0.64205 -0.47645,1.29439 -0.70583,1.94445 -0.2076,0.65557 -0.42864,1.30691 -0.61015,1.97042 -0.18311,0.65221 -0.34763,1.31057 -0.50023,1.97046 -0.15471,0.69378 -0.30723,1.38712 -0.42319,2.0888 -0.12044,0.64081 -0.22205,1.286 -0.26777,1.93699 -0.046,0.57269 -0.0846,1.14448 -0.0629,1.71965 0.008,0.50678 0.0696,1.00818 0.13912,1.51019 0.0708,0.49788 0.15626,0.99347 0.26318,1.48498 0.1003,0.47665 0.19901,0.95304 0.27756,1.43376 0.0611,0.27547 0.13028,0.54967 0.22218,0.81668 1.12939,3.38815 -3.66218,4.98534 -4.79157,1.59719 z"
         id="path4166"
         style="opacity:1;fill:none;fill-opacity:1;stroke:#000000;stroke-width:0.63135227;stroke-linecap:round;stroke-linejoin:round;stroke-miterlimit:4;stroke-dasharray:none;stroke-dashoffset:0;stroke-opacity:1" />
      <path
         inkscape:connector-curvature="0"
         d="m 203.86079,805.59433 c -0.2008,-0.35621 -0.37134,-0.72754 -0.55658,-1.09148 -0.20899,-0.42825 -0.42567,-0.85191 -0.62114,-1.28676 -0.16102,-0.42362 -0.37726,-0.82141 -0.58354,-1.22384 -0.20929,-0.40209 -0.45392,-0.78349 -0.70387,-1.16106 -0.26407,-0.35237 -0.53585,-0.69731 -0.82246,-1.03161 -0.29826,-0.35817 -0.65164,-0.66405 -0.99185,-0.98069 -0.39562,-0.34627 -0.8074,-0.67287 -1.20735,-1.01432 -0.36052,-0.27951 -0.7247,-0.55422 -1.08577,-0.83305 -0.16825,-0.11382 -0.33336,-0.23161 -0.49793,-0.35072 -2.88501,-2.1052 0.0922,-6.18521 2.9772,-4.08001 l 0,0 c 0.19989,0.14838 0.40989,0.28209 0.60787,0.43326 0.42657,0.32944 0.85968,0.65049 1.27859,0.98967 0.45604,0.38958 0.9289,0.75867 1.37293,1.16214 0.47781,0.44727 0.96726,0.88527 1.38518,1.39146 0.42033,0.49262 0.82218,1.00042 1.19703,1.52869 0.35193,0.53303 0.69199,1.07428 0.98517,1.64242 0.24636,0.48066 0.50043,0.95869 0.69794,1.46223 0.16058,0.35993 0.34194,0.70933 0.51446,1.06351 0.13128,0.25872 0.26315,0.52102 0.38512,0.78157 1.83748,3.06247 -2.49351,5.66107 -4.331,2.59859 z"
         id="path4168"
         style="opacity:1;fill:none;fill-opacity:1;stroke:#000000;stroke-width:0.63135227;stroke-linecap:round;stroke-linejoin:round;stroke-miterlimit:4;stroke-dasharray:none;stroke-dashoffset:0;stroke-opacity:1" />
      <ellipse
         ry="6.5659914"
         rx="6.3134532"
         cy="781.6413"
         cx="218.44548"
         id="path4174"
         style="opacity:1;fill:none;fill-opacity:1;stroke:#000000;stroke-width:0.63135227;stroke-linecap:round;stroke-linejoin:round;stroke-miterlimit:4;stroke-dasharray:none;stroke-dashoffset:0;stroke-opacity:1" />
      <ellipse
         style="opacity:1;fill:none;fill-opacity:1;stroke:#000000;stroke-width:0.63135227;stroke-linecap:round;stroke-linejoin:round;stroke-miterlimit:4;stroke-dasharray:none;stroke-dashoffset:0;stroke-opacity:1"
         id="ellipse4176"
         cx="196.7272"
         cy="791.7428"
         rx="6.3134532"
         ry="6.5659914" />
    </g>
    <path
       style="opacity:1;fill:none;fill-opacity:1;stroke:#000000;stroke-width:0.93749998;stroke-linecap:round;stroke-linejoin:round;stroke-miterlimit:4;stroke-dasharray:none;stroke-dashoffset:0;stroke-opacity:1"
       d="m 231.36222,220.17142 c -1.85951,3.48076 -1.82414,7.63924 -2.26692,11.48901 -0.40917,3.4628 -0.0108,7.04439 -0.94653,10.41473 -1.61308,3.19333 -5.63019,3.52338 -8.70207,3.82369 -6.28597,0.39393 -12.5639,-1.17083 -18.84431,-0.56634 -3.76385,0.4486 -6.75021,2.9135 -9.94961,4.68478 -2.90806,1.2403 -6.13433,1.33295 -9.24477,0.83554 -1.61291,-0.94173 -2.99273,0.0562 -3.38099,1.72126 -1.5266,3.21864 -3.64491,6.11226 -5.66797,9.00816 -0.35196,1.79657 1.95691,2.30798 3.14144,3.00432 3.7153,1.64579 7.69901,3.04383 11.82877,2.61056 2.12116,0.10885 4.18691,-0.14179 6.08409,-1.15353 4.19349,-1.78024 8.62332,-3.08997 13.179,-3.49322 6.47481,-0.77056 13.00475,-1.5552 19.48432,-1.73956 4.54638,0.0813 9.25798,1.55016 13.88566,0.92384 3.50318,-1.06674 4.89148,-4.91217 6.48755,-7.83378 0.9116,-2.24608 2.29522,-4.49034 2.39271,-6.95499 -0.49602,-1.83601 -2.83414,-1.59905 -4.18611,-2.47951 -5.97307,-2.76039 -9.2381,-9.14015 -10.75803,-15.24157 -0.6302,-2.79234 -0.87343,-5.6773 -1.02369,-8.50602 -0.12724,-0.71176 -0.95284,-0.85782 -1.51254,-0.54737 z"
       id="path4193"
       inkscape:connector-curvature="0"
       transform="translate(0,698.03148)" />
    <path
       style="opacity:1;fill:none;fill-opacity:1;stroke:#000000;stroke-width:0.93749998;stroke-linecap:round;stroke-linejoin:round;stroke-miterlimit:4;stroke-dasharray:none;stroke-dashoffset:0;stroke-opacity:1"
       d="m 147.72968,176.82512 c -9.43241,0.12011 -18.58247,4.92075 -24.29394,12.3912 -2.7679,3.24854 -4.39783,7.36136 -4.52402,11.63199 -0.32991,1.12105 0.72849,2.72652 1.90144,1.75593 2.11341,-2.61935 4.3276,-5.164 6.92775,-7.37147 6.53282,-5.93949 16.19158,-7.09668 24.5093,-5.22535 4.56232,1.13515 8.24975,4.23212 11.26262,7.71148 3.65762,4.18374 7.57376,8.17947 10.21989,13.0948 1.19534,1.08959 2.33259,-0.73551 1.76136,-1.84175 -1.70408,-7.15903 -3.27732,-14.64292 -7.50266,-20.81418 -3.2398,-4.24218 -7.32961,-8.07423 -12.27424,-10.21941 -2.52436,-1.00522 -5.3044,-1.10571 -7.9875,-1.11324 z"
       id="path4197"
       inkscape:connector-curvature="0"
       transform="translate(0,698.03148)" />
    <path
       style="opacity:1;fill:none;fill-opacity:1;stroke:#000000;stroke-width:0.93749998;stroke-linecap:round;stroke-linejoin:round;stroke-miterlimit:4;stroke-dasharray:none;stroke-dashoffset:0;stroke-opacity:1"
       id="path4211"
       d="m 51.542432,888.97015 c 0.0851,-0.42315 0.216861,-0.83581 0.352591,-1.24498 0.272566,-0.81656 0.578499,-1.62127 0.875754,-2.42898 0.452855,-1.26224 0.949379,-2.50791 1.458163,-3.74843 0.630335,-1.56362 1.38657,-3.07018 2.178509,-4.55683 0.935393,-1.72091 1.929956,-3.40889 2.947111,-5.08249 1.078663,-1.76442 2.247743,-3.47077 3.461874,-5.14406 1.304047,-1.77172 2.739229,-3.44096 4.190943,-5.09192 1.627974,-1.84063 3.364241,-3.58066 5.138318,-5.2794 1.819162,-1.73169 3.713089,-3.38183 5.606382,-5.03128 1.857645,-1.60514 3.741431,-3.17924 5.635565,-4.74098 1.842078,-1.51684 3.734319,-2.97096 5.644895,-4.40002 1.859226,-1.38448 3.772819,-2.69336 5.691422,-3.99351 1.886081,-1.2677 3.822401,-2.45755 5.771681,-3.62483 1.85245,-1.1013 3.72554,-2.16716 5.62268,-3.18947 1.85088,-0.99062 3.72823,-1.9304 5.6167,-2.84691 1.77667,-0.8612 3.57784,-1.66995 5.38023,-2.47538 1.73433,-0.77788 3.48802,-1.51138 5.24544,-2.23519 1.60184,-0.67011 3.22341,-1.29121 4.8508,-1.89605 1.42603,-0.53327 2.86245,-1.03806 4.29414,-1.55581 1.25151,-0.45416 2.51371,-0.87887 3.78254,-1.28195 1.17615,-0.373 2.36867,-0.68851 3.56256,-0.9984 1.11401,-0.28346 2.23254,-0.54849 3.35102,-0.81357 1.06354,-0.24844 2.12721,-0.49646 3.18934,-0.75093 1.08541,-0.26316 2.1814,-0.47798 3.28085,-0.67283 1.0757,-0.18689 2.15844,-0.3285 3.23958,-0.47933 1.06174,-0.14886 2.12699,-0.27039 3.19304,-0.38357 0.95481,-0.1004 1.91121,-0.18471 2.86812,-0.26218 0.82757,-0.0554 1.6529,-0.13692 2.47836,-0.21688 0.3693,-0.0411 0.74025,-0.0632 1.11098,-0.086 1.78235,-0.10956 1.9373,2.41106 0.15495,2.52062 l 0,0 c -0.3412,0.0209 -0.68263,0.0405 -1.02243,0.079 -0.83871,0.0812 -1.67731,0.1639 -2.51815,0.22042 -0.93595,0.0757 -1.87139,0.15817 -2.80529,0.25631 -1.03853,0.1102 -2.0763,0.22845 -3.11064,0.37345 -1.05058,0.14656 -2.10277,0.28388 -3.14816,0.46486 -1.04989,0.18578 -2.09646,0.39074 -3.1329,0.64204 -1.06413,0.25487 -2.12974,0.5035 -3.19529,0.75235 -1.10107,0.26093 -2.20219,0.52177 -3.2989,0.80063 -1.1503,0.29857 -2.29949,0.60167 -3.43273,0.96097 -1.23722,0.39269 -2.46776,0.80721 -3.68804,1.24986 -1.4247,0.5152 -2.85411,1.01756 -4.27321,1.54815 -1.59992,0.59454 -3.19414,1.20503 -4.76885,1.86396 -1.73442,0.71428 -3.4652,1.43803 -5.17682,2.20573 -1.77814,0.79459 -3.55519,1.59218 -5.30799,2.44172 -1.85644,0.90083 -3.70193,1.82456 -5.52146,2.79817 -1.86371,1.00386 -3.7033,2.05141 -5.52311,3.13288 -1.908882,1.14293 -3.80523,2.30772 -5.652385,3.54878 -1.886167,1.27807 -3.767606,2.56445 -5.595552,3.92523 -1.878771,1.40504 -3.739464,2.83479 -5.550874,4.32616 -1.876499,1.5472 -3.742815,3.10654 -5.583244,4.69664 -1.863538,1.62348 -3.728039,3.24726 -5.518904,4.95138 -1.722275,1.64834 -3.407726,3.33694 -4.988322,5.12293 -1.400033,1.59163 -2.784905,3.20029 -4.043555,4.90764 -1.174343,1.6172 -2.304273,3.26698 -3.347632,4.97234 -0.992688,1.63279 -1.963046,3.27978 -2.876448,4.95848 -0.752757,1.41176 -1.47217,2.84219 -2.070687,4.32747 -0.497218,1.212 -0.982421,2.42904 -1.424686,3.66237 -0.288508,0.78368 -0.585567,1.56441 -0.85035,2.35659 -0.09557,0.28361 -0.183793,0.5699 -0.256908,0.86021 -0.29357,1.76142 -2.784591,1.34625 -2.491021,-0.41517 z"
       inkscape:connector-curvature="0" />
    <path
       style="opacity:1;fill:none;fill-opacity:1;stroke:#000000;stroke-width:0.93749998;stroke-linecap:round;stroke-linejoin:round;stroke-miterlimit:4;stroke-dasharray:none;stroke-dashoffset:0;stroke-opacity:1"
       d="m 141.19328,117.41405 c -10.36304,0.34322 -20.51999,3.04108 -30.2444,6.49398 -10.18755,3.70388 -19.256746,10.04689 -26.76908,17.80987 -5.597843,5.39844 -10.866614,11.24012 -14.9298,17.89369 -0.617725,1.19083 1.150817,2.08862 1.887624,1.05504 10.948934,-10.44208 22.922703,-19.95167 36.416636,-26.90631 10.09255,-5.2362 20.67218,-9.63413 31.62774,-12.77487 2.4387,-0.79348 5.14544,-0.95392 7.41027,-2.12029 0.64719,-2.0729 -2.1575,-1.49311 -3.37798,-1.4987 -0.67367,0.0159 -1.34734,0.0317 -2.02101,0.0476 z"
       id="path4213"
       inkscape:connector-curvature="0"
       transform="translate(0,698.03148)" />
    <path
       style="opacity:1;fill:none;fill-opacity:1;stroke:#000000;stroke-width:0.93749998;stroke-linecap:round;stroke-linejoin:round;stroke-miterlimit:4;stroke-dasharray:none;stroke-dashoffset:0;stroke-opacity:1"
       d="m 160.56424,869.87638 c -1.4507,0.0956 -1.15546,1.98162 -0.0196,2.37513 5.26027,3.92442 10.02666,8.77287 12.64407,14.88378 3.4064,7.85203 5.3196,16.21622 6.65872,24.62049 0.82818,5.19438 0.877,10.48432 1.33964,15.73826 0.72695,1.39106 2.18728,0.14419 2.31723,-0.96132 3.01427,-6.6113 5.48126,-13.9354 4.0883,-21.28121 -0.59613,-4.71347 -1.78965,-9.37072 -4.10214,-13.55219 -2.98597,-5.75651 -6.04462,-11.67509 -10.65885,-16.31742 -3.32673,-3.10954 -7.85701,-4.73685 -12.26734,-5.50552 z"
       id="path4219"
       inkscape:connector-curvature="0" />
    <path
       style="opacity:1;fill:none;fill-opacity:1;stroke:#000000;stroke-width:0.93749998;stroke-linecap:round;stroke-linejoin:round;stroke-miterlimit:4;stroke-dasharray:none;stroke-dashoffset:0;stroke-opacity:1"
       id="path4138"
       d="m 114.92013,908.32213 c -0.60894,-0.73471 -0.99547,-1.61268 -1.37233,-2.4802 -0.49218,-1.20842 -0.75438,-2.48735 -0.95282,-3.77154 -0.19252,-1.40962 -0.22419,-2.82956 -0.19337,-4.24951 0.0253,-1.63227 0.28082,-3.23842 0.65781,-4.82256 0.45458,-1.78479 1.17607,-3.48147 2.00956,-5.11819 0.90009,-1.72 1.99337,-3.32 3.18815,-4.84587 1.32492,-1.6615 2.82512,-3.17014 4.37246,-4.62243 1.53115,-1.45076 3.20157,-2.74242 4.92865,-3.94917 1.78918,-1.23756 3.75031,-2.16974 5.73803,-3.03531 1.95687,-0.84993 3.96287,-1.56796 6.01182,-2.15908 2.06907,-0.56394 4.20132,-0.8291 6.33567,-0.97814 2.08226,-0.12444 4.16819,-0.085 6.24714,0.068 2.01903,0.18362 3.98441,0.6653 5.89343,1.33203 1.68342,0.65033 3.28716,1.48643 4.82833,2.42082 1.5591,0.97997 2.96876,2.17307 4.38224,3.34752 1.58579,1.34693 3.07644,2.79237 4.46023,4.34502 1.43894,1.67501 2.65616,3.52176 3.75631,5.43176 1.02493,1.8594 1.89974,3.79421 2.68221,5.76629 0.66445,1.83158 1.23541,3.69612 1.79746,5.56129 0.5733,1.94865 1.07111,3.91809 1.56936,5.88687 0.53259,2.11723 1.00756,4.24896 1.43283,6.3902 0.45749,2.36763 0.7529,4.76191 1.01956,7.15723 0.28725,2.55409 0.44434,5.12024 0.56343,7.68687 0.13913,2.50943 0.1895,5.01959 0.14805,7.53222 -0.0294,2.77272 -0.5965,5.48587 -1.2571,8.16543 -0.63194,2.48717 -1.45647,4.91709 -2.37457,7.31133 -0.88828,2.28429 -1.97912,4.47921 -3.12949,6.64052 -1.18932,2.2144 -2.66202,4.24971 -4.2092,6.22334 -1.53241,1.9843 -3.27117,3.79366 -5.08793,5.51642 -1.85063,1.72899 -3.86143,3.26447 -5.89841,4.76351 -1.99573,1.44833 -4.07345,2.77693 -6.21137,4.00399 -2.16418,1.22241 -4.41603,2.27698 -6.68173,3.29464 -2.59807,1.19393 -5.2802,2.18071 -7.99788,3.06218 -2.74844,0.90884 -5.57076,1.54337 -8.40265,2.12461 -2.81203,0.5404 -5.65944,0.85237 -8.51363,1.05414 -2.89635,0.23382 -5.79801,0.18584 -8.6934,-0.0148 -3.14536,-0.23073 -6.25093,-0.79093 -9.33781,-1.41596 -3.15262,-0.64413 -6.24123,-1.53586 -9.284343,-2.57363 -2.999208,-1.01125 -5.841565,-2.40168 -8.636831,-3.87179 -2.823606,-1.55452 -5.495353,-3.36202 -8.1413,-5.19716 -2.794145,-1.94262 -5.392061,-4.13888 -7.917044,-6.41465 -2.616598,-2.38925 -4.985372,-5.02822 -7.314696,-7.69283 -2.137113,-2.52683 -4.239377,-5.08281 -6.287095,-7.68264 -1.938861,-2.46406 -3.764508,-5.00676 -5.380023,-7.69405 -1.653124,-2.73422 -2.869279,-5.69018 -3.964105,-8.68203 -1.086664,-3.05536 -1.856293,-6.20853 -2.522021,-9.37823 -0.678537,-3.30361 -0.913115,-6.67273 -0.998201,-10.03724 -0.09199,-3.44488 0.07823,-6.88536 0.380571,-10.31569 0.336999,-3.5513 0.867097,-7.08087 1.525575,-10.58576 0.729417,-3.73041 1.737604,-7.39524 2.852147,-11.02634 1.19447,-3.83516 2.670304,-7.56873 4.263939,-11.25279 1.711882,-3.91238 3.76878,-7.65734 5.901404,-11.35235 2.152889,-3.76876 4.627223,-7.3355 7.224831,-10.8076 2.771291,-3.65124 5.898755,-7.00742 9.06783,-10.31162 3.097441,-3.20577 6.399928,-6.20233 9.831684,-9.0442 3.304631,-2.75166 6.924031,-5.0755 10.619704,-7.25824 3.692864,-2.17293 7.640114,-3.84465 11.635684,-5.36677 4.22626,-1.56031 8.57758,-2.73615 12.94155,-3.83692 4.15745,-1.02405 8.37305,-1.77924 12.61137,-2.37321 3.9451,-0.50896 7.92332,-0.51148 11.89071,-0.37911 3.7564,0.17525 7.49796,0.57242 11.21876,1.10788 3.33071,0.5203 6.61708,1.27423 9.86746,2.16101 2.96993,0.82715 5.85271,1.91932 8.69449,3.10644 2.61119,1.13269 5.10501,2.50917 7.57237,3.92192 2.27327,1.31592 4.45681,2.78259 6.58127,4.32542 1.9296,1.41752 3.73468,2.99446 5.54598,4.55771 1.75401,1.4844 3.44985,3.0327 5.12159,4.60847 1.67725,1.52492 3.18813,3.21549 4.66924,4.92744 1.44973,1.71911 2.77487,3.53837 4.06655,5.37766 1.35748,1.84611 2.52623,3.81586 3.69792,5.78158 1.17864,2.04112 2.32698,4.09982 3.47295,6.15941 1.24516,2.24614 2.39399,4.54331 3.52003,6.85084 1.14876,2.44324 2.26864,4.90052 3.36514,7.36768 1.11909,2.5246 2.1822,5.07308 3.19841,7.64067 0.99304,2.51637 1.899,5.06594 2.80374,7.61503 0.82365,2.29529 1.66524,4.58405 2.49681,6.87646 0.77407,2.18408 1.4763,4.39343 2.15213,6.60965 0.63606,2.0406 1.25453,4.08688 1.80846,6.15141 0.54709,1.90289 0.99302,3.83141 1.43127,5.76154 0.42896,1.87903 0.66896,3.79042 0.92901,5.69752 0.23677,1.78567 0.36162,3.58352 0.48419,5.3799 0.051,1.49714 0.24987,2.98047 0.50541,4.45455 0.2487,1.35108 0.76142,2.62302 1.26159,3.89474 0.48187,1.32151 1.16474,2.54713 1.8842,3.75033 0.57424,0.92431 1.298,1.74267 2.08732,2.48746 0.64393,0.60769 1.46147,0.93592 2.26806,1.26785 0.87839,0.37905 1.79077,0.65837 2.71612,0.89443 1.70165,0.38568 2.98355,1.35275 4.02076,2.72344 0.86991,1.42487 1.11192,3.02339 1.14008,4.66121 -0.008,1.69184 -0.48779,3.31773 -1.03869,4.90063 -0.57293,1.5835 -1.25818,3.1197 -1.94109,4.65746 -0.64318,1.52073 -1.42385,2.97487 -2.22996,4.41372 -0.74919,1.326 -1.68253,2.5224 -2.70787,3.64284 -0.95704,1.01899 -2.06524,1.85981 -3.26563,2.5673 -1.22802,0.66695 -2.56855,1.05298 -3.93562,1.30244 -1.3275,0.22712 -2.67478,0.17796 -4.0124,0.10126 -1.30896,-0.059 -2.60913,-0.22193 -3.90898,-0.37818 -1.24724,-0.18324 -2.50292,-0.29693 -3.75109,-0.47237 -1.07558,-0.16946 -2.15397,-0.26389 -3.24169,-0.2869 -1.4615,0.0184 -2.91141,0.23386 -4.3648,0.37014 -1.6385,0.14003 -3.27898,0.25546 -4.91948,0.36905 -1.40665,0.10048 -2.81276,0.21459 -4.21383,0.37682 -1.66201,0.21564 -3.32296,0.44015 -4.98401,0.66403 -1.42579,0.1818 -2.84808,0.39284 -4.25874,0.66941 -1.18549,0.17399 -2.30387,0.59047 -3.4238,0.99593 -1.19977,0.44322 -2.37637,0.94532 -3.56675,1.41215 -1.14755,0.45293 -2.30312,0.86627 -3.49997,1.1678 -1.20383,0.27445 -2.43542,0.37084 -3.66001,0.5021 -1.05949,0.0946 -2.1218,0.1427 -3.18528,0.12918 -1.02787,-0.0514 -2.05176,-0.18217 -3.06558,-0.35722 -0.81213,-0.16137 -1.62429,-0.32288 -2.43202,-0.50518 -0.8708,-0.20762 -1.71862,-0.49721 -2.56854,-0.77561 -0.80963,-0.26317 -1.59573,-0.58967 -2.39455,-0.88253 -0.74715,-0.26428 -1.48483,-0.55223 -2.21661,-0.85619 -0.76458,-0.32588 -1.51119,-0.68523 -2.22892,-1.10382 -0.60393,-0.38617 -1.16608,-0.83245 -1.72613,-1.27854 -0.0725,-0.0579 -0.14492,-0.11598 -0.21718,-0.17408 -4.13808,-3.3167 0.55246,-9.16884 4.69055,-5.85214 l 0,0 c 0.0669,0.0532 0.1332,0.10751 0.20042,0.16055 0.31958,0.25476 0.6402,0.50845 0.97058,0.74916 0.30224,0.17624 0.80355,0.39805 1.18907,0.57322 0.63358,0.26354 1.27237,0.51237 1.91983,0.74019 0.71893,0.26358 1.42698,0.55533 2.15313,0.79865 0.62419,0.20575 1.24696,0.41857 1.88274,0.58592 0.69258,0.15713 1.38953,0.29327 2.08536,0.43535 0.61674,0.11478 1.24168,0.17988 1.86519,0.24286 0.76095,0.0134 1.5203,-0.0279 2.279,-0.0873 0.88843,-0.0951 1.78096,-0.16153 2.66035,-0.32593 0.88452,-0.21053 1.72188,-0.55383 2.57183,-0.8734 1.24984,-0.4846 2.47992,-1.02067 3.7408,-1.47762 1.48507,-0.53747 2.98014,-1.05623 4.54618,-1.30605 1.55363,-0.29972 3.11731,-0.54262 4.68728,-0.73988 1.70983,-0.23046 3.41949,-0.46178 5.13055,-0.68229 1.51351,-0.17248 3.03163,-0.30095 4.55109,-0.40785 1.58121,-0.10941 3.16233,-0.22077 4.74167,-0.35461 1.74222,-0.16114 3.48061,-0.4227 5.23457,-0.40047 1.38232,0.0341 2.7558,0.14789 4.12301,0.35952 1.19412,0.17268 2.39796,0.26979 3.59106,0.45147 1.14637,0.1378 2.2926,0.28656 3.44715,0.33707 0.77098,0.0452 1.54982,0.1065 2.31786,-0.008 0.51221,-0.068 1.00944,-0.22361 1.48412,-0.42586 0.55519,-0.27211 1.00977,-0.71092 1.45805,-1.1278 0.63667,-0.68741 1.22066,-1.41534 1.68583,-2.23294 0.69326,-1.23609 1.36997,-2.4824 1.91818,-3.79143 0.60339,-1.3578 1.21391,-2.71171 1.72285,-4.10903 0.27558,-0.76314 0.55338,-1.54821 0.61113,-2.36303 0.006,-0.19358 -0.13959,-1.0468 0.15317,-0.49188 0.20762,0.20737 1.0575,0.65505 0.32022,0.33029 -1.27579,-0.32927 -2.53366,-0.72204 -3.74684,-1.24048 -1.65664,-0.70097 -3.27045,-1.51094 -4.57294,-2.78254 -1.25634,-1.2228 -2.42126,-2.54233 -3.3284,-4.05068 -0.92454,-1.55482 -1.79069,-3.14555 -2.42172,-4.84599 -0.68719,-1.74789 -1.34867,-3.51103 -1.6736,-5.36967 -0.2944,-1.72685 -0.53102,-3.46401 -0.59645,-5.2167 -0.10963,-1.62766 -0.22191,-3.25675 -0.43274,-4.87504 -0.22998,-1.68967 -0.43486,-3.38419 -0.81161,-5.04976 -0.41668,-1.83631 -0.83957,-3.67122 -1.36193,-5.48113 -0.53011,-1.98268 -1.12893,-3.94599 -1.73811,-5.90567 -0.63701,-2.09178 -1.30006,-4.17677 -2.02844,-6.23868 -0.83727,-2.30868 -1.68507,-4.61352 -2.51426,-6.92514 -0.87489,-2.46504 -1.75003,-4.93093 -2.70976,-7.36456 -0.97739,-2.47169 -2.00168,-4.92427 -3.07835,-7.35455 -1.05956,-2.38561 -2.14355,-4.76084 -3.25169,-7.12424 -1.06676,-2.18693 -2.15432,-4.36448 -3.33362,-6.49347 -1.10934,-1.99459 -2.22236,-3.98751 -3.3612,-5.96539 -1.07667,-1.80635 -2.14411,-3.62048 -3.39541,-5.31443 -1.14438,-1.63328 -2.31925,-3.24829 -3.59939,-4.77869 -1.31402,-1.51985 -2.64878,-3.02623 -4.14108,-4.37615 -1.59189,-1.50077 -3.20617,-2.97569 -4.87756,-4.38821 -1.65432,-1.42787 -3.29998,-2.87218 -5.05897,-4.17141 -1.90097,-1.38711 -3.86139,-2.69774 -5.8959,-3.88156 -2.19788,-1.25974 -4.41649,-2.49242 -6.73893,-3.51087 -2.54238,-1.06537 -5.12122,-2.04656 -7.77835,-2.79098 -2.95153,-0.80938 -5.93696,-1.49266 -8.96119,-1.97242 -3.44894,-0.50014 -6.91798,-0.86527 -10.39988,-1.03509 -3.53597,-0.12117 -7.08174,-0.13187 -10.59941,0.3112 -3.97118,0.55329 -7.92041,1.2621 -11.81617,2.21789 -4.08212,1.02831 -8.15382,2.122 -12.10921,3.57477 -3.60122,1.36647 -7.16152,2.86348 -10.49098,4.81641 -3.357767,1.9776 -6.648473,4.08105 -9.650174,6.57781 -3.213755,2.65406 -6.299088,5.46181 -9.199686,8.45714 -2.959275,3.08307 -5.884362,6.21081 -8.476483,9.61486 -2.422451,3.23126 -4.727412,6.55288 -6.733132,10.06238 -1.990353,3.44501 -3.913734,6.93487 -5.513786,10.58192 -1.486394,3.42941 -2.86235,6.90503 -3.977206,10.47538 -1.034446,3.36368 -1.971654,6.75813 -2.651337,10.21364 -0.618047,3.26343 -1.106106,6.55184 -1.425008,9.85868 -0.281475,3.14949 -0.436663,6.3086 -0.353405,9.4718 0.06639,2.90924 0.262993,5.8239 0.841298,8.68175 0.587976,2.81985 1.268499,5.62544 2.227211,8.34527 0.925629,2.54847 1.948939,5.07016 3.352967,7.39913 1.441402,2.41995 3.104277,4.68823 4.837798,6.90696 1.967629,2.50013 3.990468,4.95585 6.042187,7.38739 2.132966,2.44239 4.298172,4.86529 6.691051,7.0592 2.285558,2.06537 4.637578,4.05833 7.168241,5.82103 2.395024,1.66232 4.810625,3.3035 7.360216,4.72295 2.450405,1.29186 4.937867,2.52342 7.568555,3.4113 2.735583,0.93765 5.513553,1.73801 8.348483,2.31995 2.76874,0.56209 5.55322,1.0738 8.37452,1.28498 2.54555,0.18286 5.09657,0.22058 7.64331,0.0148 2.52403,-0.17442 5.0417,-0.44998 7.52962,-0.91937 2.56106,-0.52523 5.1155,-1.08956 7.60079,-1.91332 2.45966,-0.79392 4.8854,-1.6878 7.23534,-2.76863 2.04239,-0.91643 4.07394,-1.8626 6.0264,-2.96091 1.89245,-1.08084 3.72634,-2.26012 5.49347,-3.53649 1.78939,-1.31648 3.56215,-2.65614 5.19053,-4.17222 1.55323,-1.46351 3.03468,-3.00728 4.34142,-4.69795 1.27825,-1.62574 2.50449,-3.29549 3.48986,-5.11965 1.00818,-1.889 1.96652,-3.80635 2.74705,-5.80265 0.80997,-2.1042 1.53645,-4.24008 2.09599,-6.42603 0.53099,-2.12921 1.01039,-4.28256 1.03793,-6.48818 0.0409,-2.35474 -0.01,-4.70669 -0.14121,-7.05842 -0.11108,-2.40565 -0.25646,-4.81097 -0.52548,-7.20487 -0.24267,-2.18509 -0.50816,-4.36974 -0.92285,-6.53004 -0.39678,-2.01309 -0.84797,-4.01579 -1.34627,-6.00624 -0.47084,-1.86056 -0.94008,-3.72203 -1.47997,-5.56412 -0.50085,-1.66412 -1.01176,-3.32664 -1.59036,-4.96555 -0.64617,-1.63984 -1.37317,-3.24638 -2.21527,-4.79593 -0.83653,-1.46986 -1.76973,-2.88746 -2.8597,-4.18376 -1.12417,-1.27587 -2.35386,-2.44504 -3.64314,-3.55381 -1.13776,-0.94573 -2.26593,-1.91588 -3.50926,-2.722 -1.08509,-0.67789 -2.23454,-1.25292 -3.4149,-1.74596 -1.27561,-0.46367 -2.59688,-0.77615 -3.94834,-0.92165 -1.72574,-0.13321 -3.45782,-0.16029 -5.1868,-0.0636 -1.60519,0.0995 -3.20944,0.30108 -4.76887,0.70481 -1.73631,0.49257 -3.42917,1.11274 -5.08687,1.82719 -1.53471,0.66584 -3.05819,1.36281 -4.44339,2.31269 -1.43548,0.99432 -2.81806,2.06849 -4.0882,3.26921 -1.27598,1.19035 -2.51233,2.429 -3.60784,3.79005 -0.91006,1.14316 -1.72731,2.35313 -2.41448,3.64465 -0.58075,1.09776 -1.05726,2.25268 -1.38626,3.45167 -0.26725,1.05421 -0.42564,2.12667 -0.44653,3.21591 -0.0232,0.98712 -0.0134,1.97261 0.11019,2.95439 0.0968,0.65432 0.2121,1.30669 0.42756,1.93437 0.12459,0.29501 0.22641,0.6185 0.37773,0.80711 3.27854,4.16839 -2.61645,8.80495 -5.89501,4.63658 z"
       inkscape:connector-curvature="0" />
  </g>
</svg>
