<?xml version="1.0" encoding="UTF-8" standalone="no"?>
<!-- Created with Inkscape (http://www.inkscape.org/) -->

<svg
   width="458.48123"
   height="414.10596"
   viewBox="0 0 458.48123 414.10596"
   id="svg2"
   version="1.1"
   inkscape:version="1.1 (c68e22c387, 2021-05-23)"
   sodipodi:docname="snail.svg"
   xmlns:inkscape="http://www.inkscape.org/namespaces/inkscape"
   xmlns:sodipodi="http://sodipodi.sourceforge.net/DTD/sodipodi-0.dtd"
   xmlns="http://www.w3.org/2000/svg"
   xmlns:svg="http://www.w3.org/2000/svg"
   xmlns:rdf="http://www.w3.org/1999/02/22-rdf-syntax-ns#"
   xmlns:cc="http://creativecommons.org/ns#"
   xmlns:dc="http://purl.org/dc/elements/1.1/">
  <defs
     id="defs4" />
  <sodipodi:namedview
     id="base"
     pagecolor="#ffffff"
     bordercolor="#666666"
     borderopacity="1.0"
     inkscape:pageopacity="0.0"
     inkscape:pageshadow="2"
     inkscape:zoom="1"
     inkscape:cx="321.5"
     inkscape:cy="186.5"
     inkscape:document-units="px"
     inkscape:current-layer="svg2"
     showgrid="false"
     width="500px"
     inkscape:window-width="1920"
     inkscape:window-height="1051"
     inkscape:window-x="-9"
     inkscape:window-y="-9"
     inkscape:window-maximized="1"
     inkscape:pagecheckerboard="0"
     units="px"
     lock-margins="true"
     fit-margin-top="20"
     fit-margin-left="20"
     fit-margin-right="20"
     fit-margin-bottom="20" />
  <metadata
     id="metadata7">
    <rdf:RDF>
      <cc:Work
         rdf:about="">
        <dc:format>image/svg+xml</dc:format>
        <dc:type
           rdf:resource="http://purl.org/dc/dcmitype/StillImage" />
      </cc:Work>
    </rdf:RDF>
  </metadata>
  <g
     inkscape:label="Calque 1"
     inkscape:groupmode="layer"
     id="layer1" />
  <path
     style="opacity:1;fill:#deaa87;fill-opacity:1;stroke:none;stroke-width:3.69055;stroke-linecap:round;stroke-linejoin:round;stroke-miterlimit:4;stroke-dasharray:none;stroke-dashoffset:0;stroke-opacity:1"
     d="m 415.24837,72.583214 c -7.14307,0.91297 -0.9217,11.218456 -6.19619,13.670196 -6.32538,1.54013 -5.42972,-6.17876 -5.76018,-10.062946 -1.70096,-6.25105 -8.48525,0.73838 -12.16415,2.278476 -16.1136,11.12442 -23.26798,30.62128 -29.93083,48.2025 -7.36948,28.62557 -7.16257,58.73294 -4.9737,88.03153 3.87679,25.03355 6.67293,52.00327 -6.07801,75.04837 -9.19378,10.8293 -9.80163,26.979 -21.68317,35.6176 -10.14717,5.317 -22.20225,0.7711 -33.11096,1.8126 -15.14026,-0.2314 -30.05732,2.8487 -44.2554,7.8846 -12.46308,3.0272 -25.23445,-2.2574 -36.00509,-7.7229 -19.00609,14.4555 -41.67128,25.0839 -65.87346,25.6718 -18.68493,-1.3909 -38.59389,-3.1263 -54.33858,-14.5233 -7.2834,-4.8565 -16.615786,-11.4439 -25.425122,-5.9705 -12.295505,4.6719 -15.393044,20.4697 -28.173548,24.584 -3.407467,2.2079 -11.842211,1.4854 -11.048122,7.0266 8.543195,9.6446 22.932611,8.5179 34.540394,9.3846 33.504108,1.6949 67.013758,2.0352 100.511318,3.3734 31.22803,0.091 62.15108,-6.6985 93.33766,-4.516 32.07915,-0.3359 64.31197,-0.7716 96.18909,-4.5866 13.27214,-2.4462 26.36242,-6.3311 39.2037,-10.204 14.93013,-11.0705 21.88905,-29.4065 29.11218,-45.8572 7.35976,-20.6274 6.86474,-43.7145 -1.1474,-64.09387 -7.99665,-23.49303 -18.23736,-47.01691 -18.33439,-72.21875 -0.99664,-19.38133 0.16505,-38.91491 3.57308,-58.07098 5.01564,-12.07897 14.38401,-23.47026 14.46236,-37.0346 -0.54147,-3.271126 -2.91328,-7.197206 -6.43148,-7.724626 z"
     id="path4189"
     inkscape:connector-curvature="0" />
  <path
     style="opacity:1;fill:#e5bca2;fill-opacity:1;stroke:none;stroke-width:3.69055;stroke-linecap:round;stroke-linejoin:round;stroke-miterlimit:4;stroke-dasharray:none;stroke-dashoffset:0;stroke-opacity:1"
     d="m 424.25211,261.48834 c -1.39197,4.2822 -2.18656,8.7769 -3.66574,13.0692 -4.21173,13.4009 -6.86889,27.6948 -15.07247,39.4262 -6.79042,9.8098 -15.19266,18.6394 -23.35158,27.3837 -6.86809,6.7799 -13.40014,13.9478 -21.157,19.7654 -1.80674,1.5767 -4.56013,2.3432 -5.69762,4.545 -0.0362,2.6762 3.1974,1.6201 4.77654,1.272 10.42239,-2.4701 20.43536,-6.4236 30.94259,-8.5846 5.37194,-0.9823 8.36265,-5.988 11.94532,-9.5721 4.42523,-4.4068 7.24052,-9.9935 9.96192,-15.5309 5.65831,-11.6065 12.05924,-23.1952 13.99028,-36.1444 1.47677,-8.2384 0.7311,-16.6746 0.73468,-24.9967 -0.25064,-3.5677 -0.12784,-7.3681 -1.42496,-10.6991 -0.73257,-0.3942 -1.27033,-0.3701 -1.98196,0.066 z"
     id="path4237"
     inkscape:connector-curvature="0" />
  <path
     style="opacity:1;fill:#da9f78;fill-opacity:1;stroke:none;stroke-width:3.69055;stroke-linecap:round;stroke-linejoin:round;stroke-miterlimit:4;stroke-dasharray:none;stroke-dashoffset:0;stroke-opacity:1"
     d="m 411.96347,72.363934 c -1.332,1.71406 -0.70077,4.39441 -0.44977,6.395506 1.53668,1.70795 3.99617,-0.3223 5.89909,-0.71027 1.87734,-0.203186 2.4245,-2.677266 0.76163,-3.589676 -1.75944,-1.27353 -3.96612,-2.59877 -6.21095,-2.09556 z"
     id="path4231"
     inkscape:connector-curvature="0" />
  <path
     style="opacity:1;fill:#da9f78;fill-opacity:1;stroke:none;stroke-width:3.69055;stroke-linecap:round;stroke-linejoin:round;stroke-miterlimit:4;stroke-dasharray:none;stroke-dashoffset:0;stroke-opacity:1"
     d="m 400.8828,74.171154 c -5.07875,1.34034 -9.69344,4.267586 -13.80594,7.486766 -8.44649,6.79764 -13.18144,16.85241 -18.14978,26.22282 -4.57078,9.43871 -8.25796,19.43157 -10.03115,29.79133 -1.20213,2.02118 1.10256,5.29658 2.69781,2.59753 6.52124,-12.68435 14.59183,-24.4141 23.88372,-35.18989 5.57937,-6.7924 11.64546,-13.21047 17.91156,-19.40629 0.86632,-2.35954 -0.65416,-4.96105 -0.38154,-7.48154 -0.062,-1.515446 0.0926,-4.154646 -2.12468,-4.020726 z"
     id="path4229"
     inkscape:connector-curvature="0" />
  <path
     style="opacity:1;fill:#da9f78;fill-opacity:1;stroke:none;stroke-width:3.69055;stroke-linecap:round;stroke-linejoin:round;stroke-miterlimit:4;stroke-dasharray:none;stroke-dashoffset:0;stroke-opacity:1"
     d="m 350.64258,289.56284 c -2.05558,1.0096 -2.73656,3.6683 -4.28958,5.2894 -2.3598,3.0506 -4.21822,6.4371 -5.12733,10.1993 -2.46153,6.0216 -5.02717,12.2392 -9.20574,17.331 -3.22376,3.6735 -7.86641,6.1151 -12.82673,5.9022 -8.47279,0.2955 -16.8441,-2.2415 -25.35784,-1.0893 -12.76482,1.1667 -25.93867,1.5283 -37.92973,6.571 -8.68528,3.6913 -18.4909,3.4977 -27.20875,0.237 -4.62298,-1.4763 -9.07537,-3.501 -12.93084,-6.3587 -2.64858,-0.6299 -4.44562,2.3145 -6.49315,3.4637 -21.55833,16.5382 -49.5544,25.0412 -76.6112,21.5133 -12.21858,-1.8511 -24.43578,-5.2057 -35.20649,-11.561 -5.63579,-3.0105 -10.83495,-6.8287 -16.03635,-10.5552 -2.905181,-0.9038 -5.958372,0.5637 -8.835856,1.0827 -3.853705,1.2559 -8.434506,2.3108 -10.825831,5.8302 0.790886,2.4851 3.38408,4.0462 5.225435,5.8364 8.901295,6.8923 20.806642,6.7707 31.427152,8.088 9.15013,0.8757 18.0457,3.491 26.73303,6.5236 11.03535,3.5435 22.83641,2.5025 34.14164,1.1003 10.89771,-1.6919 20.75628,-7.1224 31.54245,-9.3041 8.72101,-1.8866 17.58175,-4.272 26.58765,-4.821 8.20307,0.1833 16.13205,2.9658 24.34064,3.8773 10.7926,1.4125 21.72137,1.6029 32.59141,1.5225 8.10062,-0.6678 16.15703,-2.1702 24.00861,-4.2604 7.12172,-2.2968 13.91041,-5.7313 21.40535,-6.7516 6.23169,-1.4835 13.14704,-1.4681 18.80401,-4.8381 4.80837,-3.6204 8.78261,-8.3187 12.23968,-13.2204 3.31982,-6.342 3.27307,-13.8072 3.42003,-20.7925 -0.004,-3.5504 -0.26354,-7.4839 -2.30307,-10.4814 -0.35459,-0.2833 -0.82918,-0.4137 -1.2786,-0.3342 z"
     id="path4223"
     inkscape:connector-curvature="0" />
  <path
     style="opacity:1;fill:#784421;fill-opacity:1;stroke:none;stroke-width:3.69055;stroke-linecap:round;stroke-linejoin:round;stroke-miterlimit:4;stroke-dasharray:none;stroke-dashoffset:0;stroke-opacity:1"
     d="m 187.03154,106.8205 c -23.73377,-2.04825 -47.4154,5.41479 -68.66164,15.4195 -27.14068,15.32829 -47.778483,40.88212 -60.712006,68.95459 -9.370598,20.48218 -12.310276,43.42427 -11.923836,65.75209 1.575645,17.11426 9.889933,32.65736 21.115446,45.40006 17.169586,21.7775 41.502526,40.9601 70.274656,41.9199 13.82578,1.6805 27.84357,0.2034 40.74776,-5.1814 26.95407,-8.4968 50.52582,-32.1031 52.39878,-61.2894 0.3904,-21.47062 -2.92329,-43.6175 -12.28949,-63.09228 -7.49203,-12.49724 -21.47135,-23.54619 -36.86389,-20.10607 -16.60601,2.69461 -33.62668,14.16687 -37.55578,31.25143 -1.90329,5.92173 2.87253,11.88063 1.25832,17.47563 -5.10558,3.74752 -9.31548,-4.05241 -9.08041,-8.49885 -0.82255,-11.17082 2.58633,-22.36228 10.78526,-30.25434 13.20074,-14.65041 35.33998,-22.63931 54.46206,-15.64631 19.20674,8.34692 29.29039,28.75863 33.13924,48.30307 6.699,26.65482 6.35561,57.03032 -10.63507,79.94862 -5.12078,5.6468 4.5375,7.8828 8.73434,8.9912 9.06736,2.6121 18.67203,2.2472 27.2015,-1.8992 19.69991,-6.2161 40.66553,-4.9239 61.12998,-4.1338 7.99385,-1.1398 9.87964,-10.7563 13.37532,-16.6935 3.04611,-3.9279 0.0904,-7.9735 -4.09202,-9.1374 -14.45789,-6.2829 -17.24173,-23.3902 -18.4636,-37.25287 -6.20884,-33.32391 -18.61126,-65.5283 -35.31368,-94.98073 -14.6169,-23.34692 -36.46522,-44.30422 -63.77425,-51.18458 -8.32089,-1.88716 -16.76758,-3.22195 -25.25699,-4.06536 z"
     id="path4187"
     inkscape:connector-curvature="0" />
  <path
     style="opacity:1;fill:#5f361a;fill-opacity:1;stroke:none;stroke-width:3.69055;stroke-linecap:round;stroke-linejoin:round;stroke-miterlimit:4;stroke-dasharray:none;stroke-dashoffset:0;stroke-opacity:1"
     d="m 78.110226,311.90694 c -2.291517,0.679 -0.853391,3.145 0.486753,3.9905 12.131451,11.6025 26.532391,21.4529 42.962931,25.6691 8.78854,2.4261 17.89689,3.9404 27.03786,3.2928 17.87521,-0.2725 35.30254,-6.5954 50.30113,-16.0858 1.84857,-0.6712 1.32115,-3.7238 -0.76961,-3.2098 -7.20019,2.9113 -14.51658,5.0098 -22.28319,5.8955 -5.28622,0.7879 -10.61275,1.2616 -15.93994,0.3287 -12.07983,-1.4015 -24.24821,-2.014 -36.29365,-3.6867 -13.38385,-2.2911 -25.81147,-8.0245 -38.25408,-13.2644 -2.42548,-0.8418 -4.65802,-2.7297 -7.248204,-2.9299 z"
     id="path4207"
     inkscape:connector-curvature="0" />
  <g
     id="g4178"
     style="fill:#d38d5f"
     transform="matrix(2.1763288,0.26209227,-0.26209227,2.1763288,154.50598,-1731.5028)">
    <path
       inkscape:connector-curvature="0"
       d="m 78.107258,938.70062 c -0.333229,0.0657 -0.675581,0.12002 -1.001123,0.21991 -0.433986,0.11341 -0.845062,0.29677 -1.260482,0.46303 -0.46009,0.20183 -0.915105,0.41904 -1.355819,0.66048 -0.477394,0.24573 -0.942133,0.5152 -1.383549,0.82103 -0.379951,0.26478 -0.721153,0.58111 -1.065726,0.88948 -0.283487,0.26346 -0.526872,0.56192 -0.771236,0.86055 -0.256005,0.3193 -0.451725,0.67866 -0.664461,1.0265 -0.250056,0.38979 -0.443191,0.81044 -0.654712,1.22112 -0.241202,0.49196 -0.506376,0.97134 -0.772898,1.44987 -0.192999,0.40495 -0.433315,0.78479 -0.634609,1.18531 -0.263342,0.49604 -0.56969,0.96666 -0.882535,1.43236 -0.319905,0.45046 -0.662685,0.88162 -1.029636,1.29446 -0.356799,0.40444 -0.765991,0.75761 -1.166291,1.11754 -0.483952,0.41905 -1.024319,0.76688 -1.567969,1.10238 -0.604371,0.35539 -1.241055,0.6507 -1.884972,0.92615 -0.541986,0.25043 -1.086591,0.49425 -1.636361,0.72713 -0.467341,0.17203 -0.924481,0.36378 -1.379752,0.56472 -0.186822,0.0667 -0.211605,0.14923 -0.309464,0.25626 -0.120242,0.15168 -0.268666,0.31192 -0.314327,0.48902 0.09906,-0.11084 0.06064,-0.44855 0.147615,-0.20292 0.11507,0.16487 0.236395,0.3324 0.377608,0.48062 0.331743,0.30333 0.695409,0.57002 1.068974,0.81925 0.432521,0.27969 0.909647,0.47472 1.390584,0.65296 0.628226,0.22521 1.277515,0.38161 1.928388,0.52476 0.747326,0.15224 1.512054,0.19898 2.271156,0.25871 0.786641,0.064 1.577526,0.0444 2.366029,0.0386 0.765579,0.0142 1.528488,-0.0474 2.291367,-0.10157 0.836589,-0.0606 1.674062,-0.10773 2.511671,-0.1516 0.809644,-0.0211 1.614711,-0.10802 2.420579,-0.18257 0.907413,-0.0845 1.816307,-0.15065 2.725753,-0.20855 0.979717,-0.0684 1.962165,-0.0868 2.941845,-0.15359 1.076009,-0.0651 2.147443,-0.17659 3.218956,-0.29146 1.228348,-0.14275 2.462867,-0.21873 3.693737,-0.33388 1.346299,-0.11631 2.686409,-0.29024 4.02874,-0.44369 1.384277,-0.16626 2.775104,-0.26754 4.161678,-0.41048 1.327675,-0.15745 2.660108,-0.2713 3.988233,-0.42374 1.369531,-0.1693 2.741771,-0.31387 4.115671,-0.44241 1.41566,-0.12928 2.83401,-0.22546 4.25261,-0.31557 1.35788,-0.0854 2.71691,-0.1508 4.07607,-0.21183 1.2989,-0.0373 2.59433,-0.13783 3.89046,-0.22532 1.34459,-0.10819 2.68673,-0.24124 4.02318,-0.42476 1.35794,-0.18565 2.71139,-0.39981 4.06497,-0.61434 1.30771,-0.19994 2.60991,-0.43389 3.91049,-0.67543 1.34547,-0.26712 2.69117,-0.53201 4.02964,-0.83262 1.34012,-0.30645 2.67144,-0.64896 4.01195,-0.95409 1.25818,-0.31215 2.52453,-0.58892 3.78655,-0.88474 1.22589,-0.29105 2.46149,-0.53792 3.69954,-0.7708 1.06215,-0.19064 2.11577,-0.42443 3.17614,-0.62485 0.97004,-0.1631 1.93687,-0.33999 2.90185,-0.5305 0.90046,-0.18531 1.80712,-0.33748 2.71546,-0.47823 0.87226,-0.13139 1.7481,-0.23684 2.62516,-0.33017 0.84731,-0.0886 1.69649,-0.15665 2.54602,-0.21959 0.84187,-0.0622 1.68485,-0.10706 2.52801,-0.14732 0.84667,-0.0187 1.68908,-0.1038 2.53215,-0.17729 0.88611,-0.0809 1.77363,-0.14404 2.66143,-0.20289 0.8063,-0.0911 1.61532,-0.16278 2.41948,-0.27153 0.87245,-0.13705 1.75182,-0.2262 2.62412,-0.3632 0.89702,-0.13763 1.79021,-0.29672 2.68403,-0.45334 0.98728,-0.17873 1.97647,-0.35024 2.96114,-0.54318 1.08349,-0.22555 2.17856,-0.38716 3.26721,-0.58384 1.13982,-0.22184 2.29089,-0.37557 3.43652,-0.56194 1.18973,-0.1959 2.38322,-0.36658 3.5733,-0.5602 1.16997,-0.20284 2.34971,-0.34168 3.52196,-0.52893 1.03889,-0.15712 2.07112,-0.34835 3.1028,-0.5462 0.94187,-0.16976 1.88076,-0.35167 2.81793,-0.54552 0.90809,-0.17211 1.81482,-0.34798 2.71964,-0.53663 0.82407,-0.15846 1.64324,-0.33645 2.46212,-0.51937 0.74422,-0.15091 1.4825,-0.3237 2.2194,-0.50636 0.71403,-0.15989 1.42442,-0.33219 2.13367,-0.51187 0.65276,-0.14681 1.29208,-0.34322 1.93627,-0.52247 0.52308,-0.1376 1.03437,-0.31696 1.53826,-0.51274 0.49723,-0.19792 0.97825,-0.43339 1.4693,-0.6461 0.43746,-0.19747 0.8998,-0.35449 1.32181,-0.58464 0.4837,-0.25362 0.97475,-0.49082 1.47828,-0.70234 0.38316,-0.19899 0.7931,-0.34304 1.1784,-0.53652 0.43644,-0.22488 0.88367,-0.4274 1.33752,-0.61427 0.38004,-0.13432 0.74305,-0.30711 1.11332,-0.46543 0.36067,-0.15923 0.73694,-0.27734 1.0985,-0.43387 0.40791,-0.21307 0.86356,-0.30838 1.28641,-0.48086 0.4383,-0.16756 0.88149,-0.32064 1.32794,-0.46487 0.35705,-0.0841 0.691,-0.22729 1.03327,-0.35556 0.33559,-0.13666 0.68303,-0.23279 1.03333,-0.32229 3.4806,-0.80035 4.61246,4.12195 1.13187,4.9223 v 0 c -0.13355,0.0352 -0.26437,0.0808 -0.39349,0.12982 -0.414,0.15499 -0.82376,0.3238 -1.25334,0.43225 -0.38402,0.12386 -0.76488,0.25586 -1.1416,0.40067 -0.34564,0.12301 -0.70055,0.22218 -1.03281,0.38007 -0.36512,0.15582 -0.73859,0.28777 -1.10609,0.43712 -0.39229,0.16735 -0.77886,0.348 -1.1801,0.4934 -0.3699,0.15098 -0.7314,0.32091 -1.08688,0.50339 -0.46795,0.21811 -0.94363,0.41943 -1.41069,0.63982 -0.39031,0.1577 -0.76181,0.35518 -1.13685,0.54555 -0.52155,0.25726 -1.05595,0.48881 -1.59299,0.71166 -0.55157,0.23838 -1.09049,0.50585 -1.65196,0.72094 -0.6587,0.25422 -1.32684,0.48671 -2.00937,0.66894 -0.68146,0.18899 -1.35814,0.39559 -2.04818,0.55218 -0.71758,0.18171 -1.43619,0.35714 -2.15874,0.51815 -0.77483,0.19203 -1.55132,0.37381 -2.33362,0.53327 -0.84214,0.18802 -1.68479,0.37082 -2.53208,0.53447 -0.9074,0.18918 -1.81661,0.36654 -2.72744,0.53825 -0.96106,0.19879 -1.92393,0.38552 -2.88974,0.55983 -1.08478,0.20803 -2.17046,0.40802 -3.26263,0.5742 -1.16615,0.18396 -2.33852,0.32683 -3.50245,0.5258 -1.19119,0.19375 -2.38568,0.36509 -3.57658,0.56073 -1.11711,0.18031 -2.23896,0.33194 -3.35034,0.54721 -1.06477,0.19069 -2.13499,0.35129 -3.1947,0.57025 -1.01657,0.19731 -2.03685,0.37703 -3.05591,0.56072 -0.92728,0.16242 -1.85403,0.32685 -2.78457,0.46991 -0.90858,0.13863 -1.82238,0.24017 -2.73109,0.37856 -0.91428,0.11952 -1.83235,0.21083 -2.7496,0.30432 -0.8529,0.0565 -1.70554,0.11698 -2.5568,0.19486 -0.90892,0.0792 -1.81741,0.16836 -2.73007,0.19064 -0.799,0.0381 -1.59784,0.0804 -2.39562,0.13925 -0.79596,0.0589 -1.59161,0.1223 -2.38551,0.20513 -0.79725,0.0845 -1.59337,0.18025 -2.38632,0.29902 -0.83955,0.12972 -1.6775,0.27033 -2.50964,0.44201 -0.97866,0.1932 -1.95911,0.37375 -2.94301,0.53844 -1.06177,0.20025 -2.11644,0.43578 -3.18013,0.62561 -1.16459,0.21875 -2.3269,0.45063 -3.47998,0.72445 -1.2728,0.29834 -2.54987,0.57776 -3.81888,0.89221 -1.34561,0.30588 -2.68144,0.65168 -4.02701,0.95749 -1.39942,0.31341 -2.80583,0.59223 -4.21266,0.87013 -1.34434,0.24966 -2.69047,0.49096 -4.04212,0.69807 -1.38937,0.22019 -2.77871,0.43955 -4.17255,0.63021 -1.45057,0.19694 -2.90667,0.34527 -4.3661,0.45969 -1.33395,0.09 -2.66727,0.19255 -4.00403,0.2317 -1.32795,0.0596 -2.65579,0.12334 -3.9825,0.20675 -1.36851,0.0869 -2.7368,0.17936 -4.10251,0.3038 -1.33968,0.12518 -2.67766,0.26662 -4.01306,0.43175 -1.347497,0.15306 -2.69876,0.27184 -4.045786,0.42999 -1.367295,0.13957 -2.738323,0.24212 -4.103399,0.40415 -1.377632,0.15743 -2.75305,0.33539 -4.13476,0.45468 -1.207382,0.11162 -2.417956,0.18852 -3.622893,0.32679 -1.139351,0.12214 -2.27888,0.2391 -3.422914,0.30915 -0.984565,0.0639 -1.971101,0.09 -2.955713,0.1545 -0.861178,0.0547 -1.721828,0.11729 -2.581075,0.19726 -0.872795,0.0807 -1.745067,0.17208 -2.621808,0.19713 -0.806369,0.0422 -1.61261,0.0874 -2.417993,0.14583 -0.869546,0.0617 -1.739527,0.12683 -2.612023,0.1141 -0.933344,0.007 -1.86904,0.0242 -2.800073,-0.0541 -0.992382,-0.0784 -1.990025,-0.1507 -2.964881,-0.36226 -0.883815,-0.19635 -1.764051,-0.41576 -2.61502,-0.72865 -0.850255,-0.32255 -1.685925,-0.68922 -2.444092,-1.1978 -0.730849,-0.49871 -1.44559,-1.03115 -2.046891,-1.68501 -0.623421,-0.73426 -1.165588,-1.53166 -1.440935,-2.4664 -0.253183,-1.01013 -0.334291,-2.03232 0.04505,-3.02908 0.329862,-0.76108 0.756973,-1.46171 1.331181,-2.06617 0.560226,-0.58171 1.184806,-1.0783 1.932755,-1.39917 0.478195,-0.21104 0.958131,-0.41644 1.449619,-0.59493 0.54548,-0.2309 1.084251,-0.47588 1.623218,-0.72154 0.414653,-0.17644 0.825238,-0.3626 1.219418,-0.58164 0.286077,-0.17561 0.571493,-0.35483 0.839154,-0.55735 0.261603,-0.23521 0.533362,-0.46219 0.771741,-0.72114 0.21581,-0.24155 0.418882,-0.49037 0.60931,-0.75257 0.202399,-0.30094 0.403475,-0.60278 0.580259,-0.91981 0.232876,-0.44956 0.491111,-0.8846 0.716336,-1.33814 0.243422,-0.43695 0.485921,-0.87439 0.705183,-1.32415 0.273757,-0.51492 0.513763,-1.04874 0.834528,-1.53809 0.334952,-0.53683 0.646769,-1.08994 1.05622,-1.57641 0.409706,-0.50049 0.832479,-0.99014 1.312298,-1.4259 0.511711,-0.4576 1.025535,-0.91703 1.594887,-1.30296 0.591047,-0.39746 1.198294,-0.77026 1.833558,-1.09363 0.610223,-0.32395 1.22911,-0.6339 1.867418,-0.89922 0.600375,-0.24029 1.198575,-0.49188 1.826925,-0.65173 0.48912,-0.12625 0.983235,-0.23813 1.481056,-0.3241 3.522836,-0.58714 4.353176,4.3949 0.830341,4.98204 z"
       id="path4144"
       style="opacity:1;fill:#d38d5f;fill-opacity:1;stroke:none;stroke-width:2.5;stroke-linecap:round;stroke-linejoin:round;stroke-miterlimit:4;stroke-dasharray:none;stroke-dashoffset:0;stroke-opacity:1" />
    <path
       inkscape:connector-curvature="0"
       d="m 222.03779,932.819 c 0.27737,-0.25317 0.50898,-0.54699 0.7408,-0.84073 0.37514,-0.4853 0.73157,-0.98458 1.11282,-1.46527 0.41141,-0.52371 0.81772,-1.05134 1.21586,-1.58525 0.40482,-0.50285 0.75695,-1.04282 1.11957,-1.57567 0.3473,-0.50718 0.64028,-1.04724 0.93343,-1.58653 0.34024,-0.63766 0.61054,-1.31024 0.87238,-1.9831 0.30374,-0.78185 0.61437,-1.56047 0.90744,-2.34645 0.32057,-0.93847 0.66664,-1.86773 0.99048,-2.80508 0.33716,-1.01707 0.68304,-2.03093 1.04135,-3.04075 0.33117,-0.95688 0.63964,-1.92175 0.93445,-2.89044 0.2558,-0.92517 0.49054,-1.85606 0.71608,-2.78905 0.1967,-0.82778 0.38898,-1.65584 0.4992,-2.49993 0.10887,-0.91646 0.17162,-1.83756 0.23589,-2.75797 0.0563,-0.82364 0.11898,-1.64611 0.11942,-2.4719 -0.003,-0.76558 -0.0121,-1.53023 -0.0658,-2.29398 -0.0385,-0.72487 -0.11969,-1.44424 -0.21954,-2.16274 -0.11156,-0.72057 -0.17242,-1.44806 -0.27948,-2.16905 -0.10795,-0.69872 -0.20936,-1.3978 -0.34486,-2.09172 -0.14819,-0.71167 -0.27718,-1.4269 -0.39435,-2.14425 -0.11475,-0.58464 -0.24489,-1.16541 -0.39261,-1.74248 -0.13,-0.53351 -0.30717,-1.05371 -0.50395,-1.5658 -0.19741,-0.52736 -0.39111,-1.05792 -0.62643,-1.56987 -0.23154,-0.53053 -0.48472,-1.05124 -0.74067,-1.57034 -0.34729,-0.63926 -0.66294,-1.29471 -1.00024,-1.93913 -0.37054,-0.74878 -0.77457,-1.48007 -1.1586,-2.22182 -0.39054,-0.72063 -0.75763,-1.453 -1.11739,-2.18931 -0.38307,-0.83036 -0.8097,-1.63943 -1.22165,-2.45557 -0.43045,-0.86051 -0.88266,-1.70947 -1.33426,-2.55895 -0.46997,-0.87432 -0.93262,-1.75309 -1.37704,-2.64074 -0.44372,-0.93101 -0.88649,-1.8622 -1.28809,-2.81226 -0.42888,-1.0095 -0.87375,-2.01211 -1.29387,-3.02531 -0.412,-1.0313 -0.83257,-2.05848 -1.20746,-3.10403 -0.36596,-0.97408 -0.70816,-1.95633 -1.01426,-2.95083 -0.30577,-1.00675 -0.53841,-2.03309 -0.74862,-3.06335 -0.17785,-0.97763 -0.35333,-1.95543 -0.53494,-2.93241 -0.17954,-0.94993 -0.33606,-1.90403 -0.47151,-2.86119 -0.1295,-0.94309 -0.28779,-1.88186 -0.42217,-2.82433 -0.1515,-0.90194 -0.31819,-1.80118 -0.46509,-2.70391 -0.13902,-0.84686 -0.25414,-1.69727 -0.36037,-2.54878 -0.10906,-0.80493 -0.15626,-1.61658 -0.25235,-2.42276 -0.1099,-0.8055 -0.21139,-1.61204 -0.30364,-2.41974 -0.0896,-0.79849 -0.16134,-1.59879 -0.22685,-2.39957 -0.0857,-0.81582 -0.10307,-1.63389 -0.0945,-2.45336 0.0113,-0.71924 0.0273,-1.4384 0.0403,-2.15761 -0.003,-0.8301 0.0657,-1.65745 0.12436,-2.48477 0.0776,-0.81767 0.2028,-1.62971 0.30466,-2.4445 0.11072,-0.85325 0.30508,-1.69154 0.48793,-2.53127 0.15844,-0.84838 0.41651,-1.67071 0.6973,-2.485 0.24676,-0.72881 0.47256,-1.4642 0.71405,-2.19475 0.22743,-0.7221 0.49877,-1.42949 0.75341,-2.14233 0.19799,-0.58655 0.38138,-1.17731 0.58713,-1.76122 0.1859,-0.57285 0.41729,-1.1286 0.6362,-1.68922 0.12777,-0.328 0.2493,-0.65788 0.38136,-0.98416 1.36409,-3.30066 6.03193,-1.37155 4.66784,1.92911 v 0 c -0.12774,0.29222 -0.22001,0.59891 -0.34459,0.89266 -0.1985,0.50807 -0.41127,1.01026 -0.57721,1.53037 -0.20816,0.59061 -0.38962,1.18963 -0.59434,1.78155 -0.24115,0.67505 -0.49914,1.34458 -0.71425,2.02846 -0.24835,0.75129 -0.47974,1.50788 -0.73505,2.25691 -0.21639,0.62673 -0.42167,1.25728 -0.53673,1.91227 -0.15074,0.69223 -0.31531,1.38233 -0.41153,2.08494 -0.0911,0.72474 -0.19817,1.44749 -0.27808,2.17361 -0.0524,0.73896 -0.11789,1.47766 -0.11253,2.21919 -0.0129,0.70681 -0.0284,1.41356 -0.0398,2.12039 -0.008,0.6642 0.004,1.3262 0.0781,1.98735 0.061,0.74697 0.12769,1.49349 0.21106,2.23835 0.0917,0.8046 0.1944,1.60779 0.30256,2.41035 0.0902,0.79247 0.14584,1.58849 0.24719,2.37983 0.0984,0.78959 0.20477,1.5782 0.33376,2.36347 0.15182,0.93539 0.32806,1.86651 0.48002,2.80187 0.13444,0.94483 0.29411,1.88577 0.42317,2.83132 0.12423,0.8845 0.27052,1.7658 0.43595,2.64354 0.17631,0.9488 0.34794,1.89819 0.51851,2.84799 0.17664,0.87034 0.37103,1.73768 0.62771,2.58848 0.28196,0.92144 0.60388,1.82932 0.9415,2.73179 0.34543,0.96824 0.73927,1.91712 1.11818,2.87254 0.4153,1.00394 0.85826,1.9961 1.28185,2.99655 0.35719,0.85076 0.75839,1.68139 1.15174,2.51587 0.42418,0.85062 0.86958,1.69089 1.31909,2.52832 0.46816,0.88118 0.93684,1.76189 1.38361,2.65423 0.42132,0.83553 0.85817,1.6636 1.25039,2.51346 0.34308,0.70225 0.69351,1.40047 1.06628,2.08763 0.37952,0.73605 0.78248,1.45993 1.14877,2.20289 0.35496,0.68115 0.6917,1.37142 1.05546,2.04806 0.28179,0.57423 0.56243,1.14932 0.8183,1.73569 0.26538,0.60091 0.51035,1.21081 0.73374,1.82864 0.26439,0.6934 0.50207,1.39758 0.6798,2.11871 0.18452,0.72168 0.34716,1.44852 0.48426,2.18082 0.10866,0.66649 0.22915,1.33081 0.36709,1.99194 0.15074,0.77539 0.26747,1.55593 0.38637,2.33676 0.1033,0.73072 0.17593,1.46543 0.28325,2.19571 0.11537,0.83282 0.20811,1.6674 0.25534,2.50722 0.0606,0.88365 0.0768,1.76822 0.0779,2.65389 -0.003,0.9398 -0.0637,1.87634 -0.13169,2.8135 -0.0718,1.02713 -0.14299,2.055 -0.26841,3.07728 -0.13886,1.01691 -0.35243,2.01886 -0.59588,3.01579 -0.2488,1.02865 -0.50728,2.05524 -0.79388,3.07406 -0.3176,1.04132 -0.64862,2.0789 -1.00593,3.10732 -0.35366,0.99671 -0.69464,1.99756 -1.02758,3.0014 -0.33727,0.97581 -0.6965,1.9436 -1.03178,2.92009 -0.30218,0.8104 -0.6222,1.61333 -0.93532,2.41947 -0.34046,0.86898 -0.69487,1.73576 -1.13946,2.55763 -0.37449,0.68892 -0.75577,1.37487 -1.19973,2.02237 -0.40443,0.58959 -0.79468,1.18915 -1.24251,1.74785 -0.43247,0.57943 -0.87351,1.15237 -1.32049,1.72065 -0.38052,0.46788 -0.71662,0.97032 -1.09359,1.44109 -0.35385,0.44735 -0.71704,0.88802 -1.13224,1.28073 -2.52538,2.52538 -6.09681,-1.04605 -3.57143,-3.57143 z"
       id="path4156"
       style="opacity:1;fill:#d38d5f;fill-opacity:1;stroke:none;stroke-width:2.5;stroke-linecap:round;stroke-linejoin:round;stroke-miterlimit:4;stroke-dasharray:none;stroke-dashoffset:0;stroke-opacity:1" />
    <path
       inkscape:connector-curvature="0"
       d="m 192.08846,908.53736 c 0.18491,-0.5126 0.45756,-0.98488 0.70842,-1.46634 0.3009,-0.53334 0.61494,-1.05906 0.91119,-1.59502 0.31938,-0.58847 0.65436,-1.16844 0.95303,-1.76787 0.31377,-0.62792 0.59468,-1.26826 0.83532,-1.92756 0.25432,-0.74883 0.45702,-1.51374 0.68232,-2.27161 0.22736,-0.7227 0.4085,-1.458 0.567,-2.19844 0.14974,-0.70682 0.20157,-1.43019 0.26334,-2.14884 0.0647,-0.77397 0.11036,-1.54936 0.15359,-2.32478 0.006,-0.7056 -0.0167,-1.41113 -0.0337,-2.11647 -0.0468,-0.68438 -0.11697,-1.36691 -0.17573,-2.05034 -0.0602,-0.7048 -0.16843,-1.40471 -0.25482,-2.10674 -0.0725,-0.74955 -0.16844,-1.49501 -0.28166,-2.23935 -0.0837,-0.68219 -0.22802,-1.35383 -0.36293,-2.02709 -0.11938,-0.59344 -0.20776,-1.19226 -0.35235,-1.7802 -0.11715,-0.5404 -0.26852,-1.07084 -0.41613,-1.60328 -0.15732,-0.56913 -0.3175,-1.13911 -0.49965,-1.701 -0.23592,-0.64487 -0.40043,-1.31134 -0.58657,-1.97119 -0.23101,-0.84095 -0.43255,-1.69034 -0.62323,-2.54133 -0.1774,-0.92924 -0.39401,-1.8499 -0.59928,-2.77321 -0.18522,-0.91717 -0.37404,-1.83358 -0.55665,-2.7513 -0.2132,-1.0225 -0.33094,-2.06086 -0.49923,-3.09071 -0.16908,-0.9797 -0.33352,-1.96007 -0.47252,-2.94453 -0.14144,-1.03214 -0.2464,-2.06873 -0.34213,-3.10595 -0.11985,-0.98904 -0.24465,-1.97737 -0.35381,-2.96767 -0.14552,-1.02697 -0.28623,-2.05432 -0.40427,-3.08485 -0.13224,-1.16819 -0.22727,-2.33996 -0.31115,-3.51246 -0.0953,-1.3007 -0.0905,-2.6062 -0.0979,-3.90964 -0.005,-1.17392 -0.008,-2.34784 -0.0111,-3.52176 -0.0207,-1.16178 0.009,-2.3222 0.0577,-3.4828 0.0551,-1.14292 0.0805,-2.28724 0.15394,-3.42916 0.0653,-1.30171 0.25333,-2.58951 0.44981,-3.87632 0.23767,-1.54463 0.5905,-3.06743 0.94102,-4.5893 0.32949,-1.43682 0.7392,-2.85171 1.20406,-4.25003 0.45267,-1.35113 0.94532,-2.68863 1.45727,-4.01831 0.44029,-1.16048 0.913,-2.30642 1.41651,-3.44068 0.46379,-1.03742 0.96437,-2.05741 1.47914,-3.0703 0.49166,-0.93867 1.04408,-1.8425 1.64789,-2.71267 0.59914,-0.85818 1.27751,-1.65627 1.98316,-2.42778 0.62548,-0.69335 1.31161,-1.32511 2.01803,-1.9341 0.73884,-0.62176 1.51934,-1.19037 2.3119,-1.74098 0.70987,-0.48175 1.45391,-0.90915 2.18663,-1.35444 0.7294,-0.43726 1.49738,-0.8041 2.2766,-1.14251 0.6489,-0.28324 1.31374,-0.52577 1.98521,-0.74916 0.64984,-0.19195 1.31882,-0.30632 1.98684,-0.41325 0.59013,-0.0776 1.18641,-0.0762 1.78046,-0.0812 0.59979,0.0188 1.19751,0.0882 1.78866,0.18871 0.51624,0.0947 1.0152,0.24845 1.50945,0.42188 0.49941,0.19126 0.97373,0.43944 1.43486,0.70857 0.36726,0.19537 0.67422,0.47839 1.01403,0.71347 0.43332,0.3086 0.81001,0.68134 1.15804,1.08148 0.28107,0.3084 0.5352,0.63796 0.77452,0.9794 0.29305,0.43095 0.52145,0.89813 0.71845,1.37914 0.16968,0.42249 0.29445,0.86007 0.40388,1.30137 0.0986,0.41812 0.17242,0.8413 0.2418,1.26505 0.0395,0.37839 0.11997,0.74055 0.18574,1.11383 0.0761,0.54588 0.10387,1.0961 0.10181,1.64662 -0.0117,0.63559 -0.0905,1.26467 -0.18663,1.89203 -0.0519,0.52514 -0.19758,1.03548 -0.27928,1.55463 -0.009,0.0529 -0.0177,0.10574 -0.0265,0.15861 -0.59455,3.52159 -5.57484,2.68077 -4.98029,-0.84082 v 0 c 0.0134,-0.0786 0.0267,-0.15723 0.0401,-0.23585 0.0903,-0.46677 0.19898,-0.92882 0.25352,-1.40222 0.0626,-0.40794 0.12394,-0.81433 0.12929,-1.22829 -0.002,-0.25431 -0.015,-0.51175 -0.0425,-0.76631 -0.066,-0.3261 -0.13727,-0.71715 -0.17985,-1.07697 -0.0477,-0.29167 -0.0966,-0.58312 -0.16128,-0.87163 -0.0533,-0.21819 -0.10903,-0.43579 -0.19348,-0.64451 -0.0488,-0.12057 -0.0993,-0.23959 -0.16505,-0.35178 -0.13902,-0.19996 -0.2863,-0.38998 -0.45417,-0.56792 -0.11469,-0.13409 -0.0837,-0.11593 -0.2347,-0.24818 -0.23623,-0.16635 -0.46576,-0.35978 -0.67204,-0.49402 -0.18106,-0.10698 -0.36782,-0.20396 -0.55384,-0.30024 -0.25381,-0.0892 -0.49584,-0.1798 -0.76508,-0.22277 -0.26945,-0.0403 -0.54472,-0.07 -0.81698,-0.1027 -0.34217,0.003 -0.68432,0.007 -1.02631,0.0181 -0.39896,0.0636 -0.79683,0.13309 -1.19167,0.21907 -0.53245,0.17645 -1.05983,0.36729 -1.57399,0.59239 -0.56709,0.24313 -1.12535,0.50896 -1.6573,0.82256 -0.64529,0.39186 -1.29986,0.76879 -1.92878,1.18684 -0.64888,0.45006 -1.28899,0.91309 -1.89602,1.41894 -0.55797,0.48005 -1.10247,0.97491 -1.59451,1.52391 -0.55584,0.60146 -1.08625,1.22786 -1.55837,1.89784 -0.47415,0.67717 -0.90144,1.38466 -1.2899,2.11459 -0.47492,0.93399 -0.93739,1.87415 -1.36521,2.83081 -0.46939,1.05735 -0.91017,2.12534 -1.31989,3.20749 -0.48486,1.25706 -0.95,2.52209 -1.37868,3.79948 -0.41641,1.2452 -0.77921,2.50639 -1.07371,3.78637 -0.32223,1.39907 -0.65,2.7983 -0.87003,4.21808 -0.17469,1.14404 -0.34815,2.28795 -0.40285,3.44572 -0.0747,1.10188 -0.0901,2.20703 -0.1475,3.30991 -0.0458,1.08585 -0.0741,2.17129 -0.0532,3.25828 0.003,1.1684 0.006,2.3368 0.011,3.50519 0.007,1.19283 -4.5e-4,2.38774 0.0851,3.57813 0.0786,1.1012 0.16737,2.20174 0.29132,3.29891 0.11832,1.0375 0.26472,2.07104 0.40659,3.1055 0.11225,1.02005 0.24394,2.03766 0.36284,3.05692 0.0881,0.95693 0.18437,1.91331 0.31415,2.86563 0.13331,0.95036 0.2951,1.89618 0.45703,2.84204 0.15581,0.97102 0.27118,1.94872 0.46723,2.91314 0.17459,0.88055 0.35711,1.7595 0.53318,2.63973 0.20469,0.92154 0.42145,1.8404 0.59809,2.76791 0.16984,0.76335 0.35141,1.52488 0.55731,2.27928 0.168,0.60236 0.31846,1.20995 0.53461,1.79784 0.19796,0.6259 0.38204,1.25699 0.55593,1.88985 0.16133,0.58383 0.32557,1.16637 0.45636,1.75812 0.15794,0.65523 0.27194,1.31837 0.39674,1.98051 0.15041,0.75065 0.30782,1.50032 0.40401,2.26043 0.12028,0.79178 0.22401,1.58495 0.3013,2.38218 0.0937,0.76322 0.2111,1.52409 0.27402,2.29066 0.0675,0.78678 0.15252,1.57237 0.19279,2.36121 0.0202,0.83949 0.0502,1.67953 0.0273,2.51925 -0.0461,0.82607 -0.0951,1.65208 -0.16436,2.47659 -0.0802,0.92989 -0.15839,1.86373 -0.35758,2.77734 -0.18713,0.86718 -0.39855,1.72893 -0.66356,2.57604 -0.25576,0.86031 -0.48419,1.72933 -0.78345,2.57603 -0.3092,0.83583 -0.66249,1.65146 -1.06106,2.44873 -0.33287,0.66032 -0.69465,1.30488 -1.05069,1.95288 -0.27777,0.49948 -0.56421,0.9941 -0.85309,1.4872 -0.01,0.0191 -0.53167,1.02203 -0.39176,0.72146 -1.12939,3.38816 -5.92096,1.79096 -4.79158,-1.59719 z"
       id="path4160"
       style="opacity:1;fill:#d38d5f;fill-opacity:1;stroke:none;stroke-width:2.5;stroke-linecap:round;stroke-linejoin:round;stroke-miterlimit:4;stroke-dasharray:none;stroke-dashoffset:0;stroke-opacity:1" />
    <path
       inkscape:connector-curvature="0"
       d="m 211.22159,808.61422 c -0.14571,-0.42465 -0.25613,-0.86006 -0.3564,-1.29729 -0.0904,-0.50516 -0.18826,-1.00725 -0.2941,-1.50936 -0.13009,-0.59891 -0.23307,-1.20295 -0.32052,-1.80939 -0.10298,-0.70475 -0.17246,-1.4115 -0.18915,-2.12348 -0.0234,-0.74374 0.0187,-1.48502 0.0779,-2.22594 0.0602,-0.82761 0.18579,-1.64855 0.33796,-2.46365 0.12734,-0.75805 0.29077,-1.50819 0.45792,-2.25817 0.16986,-0.74537 0.36029,-1.48675 0.56361,-2.22374 0.19697,-0.72142 0.43572,-1.43003 0.66135,-2.14272 0.25721,-0.75209 0.52559,-1.50077 0.81066,-2.24274 0.27579,-0.73181 0.58121,-1.45193 0.89332,-2.16884 0.22309,-0.47779 0.45379,-0.95186 0.6771,-1.42956 1.51277,-3.23521 6.08806,-1.09583 4.57528,2.13939 v 0 c -0.2049,0.43809 -0.41393,0.87411 -0.62314,1.31014 -0.28499,0.65125 -0.56137,1.30653 -0.81223,1.97178 -0.25114,0.64205 -0.47645,1.29439 -0.70583,1.94445 -0.2076,0.65557 -0.42864,1.30691 -0.61015,1.97042 -0.18311,0.65221 -0.34763,1.31057 -0.50023,1.97046 -0.15471,0.69378 -0.30723,1.38712 -0.42319,2.0888 -0.12044,0.64081 -0.22205,1.286 -0.26777,1.93699 -0.046,0.57269 -0.0846,1.14448 -0.0629,1.71965 0.008,0.50678 0.0696,1.00818 0.13912,1.51019 0.0708,0.49788 0.15626,0.99347 0.26318,1.48498 0.1003,0.47665 0.19901,0.95304 0.27756,1.43376 0.0611,0.27547 0.13028,0.54967 0.22218,0.81668 1.12939,3.38815 -3.66218,4.98534 -4.79157,1.59719 z"
       id="path4166"
       style="opacity:1;fill:#d38d5f;fill-opacity:1;stroke:none;stroke-width:2.5;stroke-linecap:round;stroke-linejoin:round;stroke-miterlimit:4;stroke-dasharray:none;stroke-dashoffset:0;stroke-opacity:1" />
    <path
       inkscape:connector-curvature="0"
       d="m 203.86079,805.59433 c -0.2008,-0.35621 -0.37134,-0.72754 -0.55658,-1.09148 -0.20899,-0.42825 -0.42567,-0.85191 -0.62114,-1.28676 -0.16102,-0.42362 -0.37726,-0.82141 -0.58354,-1.22384 -0.20929,-0.40209 -0.45392,-0.78349 -0.70387,-1.16106 -0.26407,-0.35237 -0.53585,-0.69731 -0.82246,-1.03161 -0.29826,-0.35817 -0.65164,-0.66405 -0.99185,-0.98069 -0.39562,-0.34627 -0.8074,-0.67287 -1.20735,-1.01432 -0.36052,-0.27951 -0.7247,-0.55422 -1.08577,-0.83305 -0.16825,-0.11382 -0.33336,-0.23161 -0.49793,-0.35072 -2.88501,-2.1052 0.0922,-6.18521 2.9772,-4.08001 v 0 c 0.19989,0.14838 0.40989,0.28209 0.60787,0.43326 0.42657,0.32944 0.85968,0.65049 1.27859,0.98967 0.45604,0.38958 0.9289,0.75867 1.37293,1.16214 0.47781,0.44727 0.96726,0.88527 1.38518,1.39146 0.42033,0.49262 0.82218,1.00042 1.19703,1.52869 0.35193,0.53303 0.69199,1.07428 0.98517,1.64242 0.24636,0.48066 0.50043,0.95869 0.69794,1.46223 0.16058,0.35993 0.34194,0.70933 0.51446,1.06351 0.13128,0.25872 0.26315,0.52102 0.38512,0.78157 1.83748,3.06247 -2.49351,5.66107 -4.331,2.59859 z"
       id="path4168"
       style="opacity:1;fill:#d38d5f;fill-opacity:1;stroke:none;stroke-width:2.5;stroke-linecap:round;stroke-linejoin:round;stroke-miterlimit:4;stroke-dasharray:none;stroke-dashoffset:0;stroke-opacity:1" />
    <ellipse
       ry="6.5659914"
       rx="6.3134532"
       cy="781.6413"
       cx="218.44548"
       id="path4174"
       style="opacity:1;fill:#d38d5f;fill-opacity:1;stroke:none;stroke-width:2.5;stroke-linecap:round;stroke-linejoin:round;stroke-miterlimit:4;stroke-dasharray:none;stroke-dashoffset:0;stroke-opacity:1" />
    <ellipse
       style="opacity:1;fill:#d38d5f;fill-opacity:1;stroke:none;stroke-width:2.5;stroke-linecap:round;stroke-linejoin:round;stroke-miterlimit:4;stroke-dasharray:none;stroke-dashoffset:0;stroke-opacity:1"
       id="ellipse4176"
       cx="196.7272"
       cy="791.7428"
       rx="6.3134532"
       ry="6.5659914" />
  </g>
  <path
     style="opacity:1;fill:#5f361a;fill-opacity:1;stroke:none;stroke-width:3.69055;stroke-linecap:round;stroke-linejoin:round;stroke-miterlimit:4;stroke-dasharray:none;stroke-dashoffset:0;stroke-opacity:1"
     d="m 309.25278,258.3923 c -2.74505,5.13834 -2.69283,11.27724 -3.34648,16.96034 -0.60402,5.1119 -0.0159,10.3991 -1.39728,15.3744 -2.38127,4.7141 -8.31141,5.2013 -12.84619,5.6447 -9.27949,0.5815 -18.54711,-1.7284 -27.81839,-0.8361 -5.55627,0.6623 -9.9648,4.301 -14.68783,6.9158 -4.29294,1.831 -9.05563,1.9677 -13.64733,1.2334 -2.38101,-1.3902 -4.41793,0.083 -4.99109,2.541 -2.2536,4.7514 -5.3807,9.023 -8.36718,13.298 -0.51958,2.6522 2.88883,3.4071 4.63746,4.4351 5.48461,2.4295 11.36545,4.4934 17.46189,3.8537 3.1313,0.1607 6.18081,-0.2093 8.98147,-1.7028 6.19052,-2.628 12.72993,-4.5615 19.45513,-5.1568 9.55825,-1.1375 19.19789,-2.2958 28.76318,-2.568 6.71146,0.1201 13.66683,2.2884 20.49831,1.3638 5.17147,-1.5747 7.22091,-7.2514 9.57707,-11.5644 1.34572,-3.3157 3.38825,-6.6287 3.53217,-10.2671 -0.73224,-2.7103 -4.18382,-2.3605 -6.17963,-3.6603 -8.81758,-4.0749 -13.63749,-13.4929 -15.88124,-22.4999 -0.93031,-4.1221 -1.28938,-8.381 -1.51119,-12.5568 -0.18784,-1.05071 -1.40661,-1.26633 -2.23285,-0.80804 z"
     id="path4193"
     inkscape:connector-curvature="0" />
  <path
     style="opacity:1;fill:#5f361a;fill-opacity:1;stroke:none;stroke-width:3.69055;stroke-linecap:round;stroke-linejoin:round;stroke-miterlimit:4;stroke-dasharray:none;stroke-dashoffset:0;stroke-opacity:1"
     d="m 185.79259,194.40354 c -13.92433,0.17731 -27.43185,7.26412 -35.86325,18.29216 -4.08603,4.79557 -6.49217,10.86701 -6.67846,17.1714 -0.48702,1.65492 1.07542,4.02495 2.80695,2.59215 3.11986,-3.86675 6.3885,-7.62321 10.2269,-10.88193 9.64389,-8.76801 23.90236,-10.47628 36.18116,-7.71378 6.735,1.67574 12.17847,6.24755 16.62613,11.38386 5.39946,6.17613 11.18055,12.07471 15.08683,19.33083 1.76458,1.60848 3.44342,-1.08577 2.60016,-2.71883 -2.5156,-10.56832 -4.83806,-21.6162 -11.0756,-30.72635 -4.78266,-6.2624 -10.82013,-11.91936 -18.1195,-15.08612 -3.72651,-1.48393 -7.83047,-1.63227 -11.79132,-1.64339 z"
     id="path4197"
     inkscape:connector-curvature="0" />
  <path
     style="opacity:1;fill:#5f361a;fill-opacity:1;stroke:none;stroke-width:3.69055;stroke-linecap:round;stroke-linejoin:round;stroke-miterlimit:4;stroke-dasharray:none;stroke-dashoffset:0;stroke-opacity:1"
     id="path4211"
     d="m 43.798855,215.23828 c 0.125626,-0.62467 0.320135,-1.23385 0.520502,-1.83787 0.402368,-1.20543 0.853993,-2.39336 1.292808,-3.58572 0.668514,-1.86334 1.401494,-3.70223 2.152572,-5.53351 0.930514,-2.30825 2.046885,-4.53227 3.215963,-6.72689 1.380848,-2.54045 2.849043,-5.03228 4.35059,-7.50289 1.592346,-2.60467 3.318167,-5.12362 5.110494,-7.59377 1.925063,-2.61545 4.04371,-5.07962 6.186762,-7.5168 2.403251,-2.71718 4.966367,-5.28585 7.585298,-7.79357 2.685487,-2.55636 5.481346,-4.99233 8.276266,-7.42729 2.7423,-2.36954 5.52319,-4.69326 8.31935,-6.99874 2.71931,-2.23919 5.51268,-4.38579 8.33312,-6.4954 2.74463,-2.0438 5.56951,-3.976 8.4018,-5.89531 2.78427,-1.87141 5.64271,-3.62789 8.52028,-5.35105 2.73463,-1.62577 5.49972,-3.19921 8.30032,-4.70837 2.73231,-1.46237 5.5037,-2.8497 8.2915,-4.20267 2.62276,-1.27132 5.28169,-2.46522 7.94241,-3.65421 2.56026,-1.14832 5.1491,-2.23113 7.74344,-3.29964 2.36467,-0.98923 4.75847,-1.90611 7.16086,-2.79899 2.10513,-0.78722 4.22561,-1.5324 6.3391,-2.29672 1.84751,-0.67044 3.71079,-1.29741 5.58387,-1.89244 1.73626,-0.55063 3.49668,-1.01639 5.25913,-1.47386 1.64452,-0.41845 3.29572,-0.80969 4.94685,-1.20101 1.57002,-0.36675 3.14023,-0.73289 4.70817,-1.10854 1.60231,-0.38848 3.22023,-0.70561 4.84326,-0.99325 1.58798,-0.27589 3.18634,-0.48494 4.78234,-0.70759 1.56737,-0.21976 3.13991,-0.39916 4.71364,-0.56624 1.40951,-0.14821 2.82137,-0.27267 4.23398,-0.38703 1.22168,-0.0818 2.44005,-0.20213 3.65861,-0.32017 0.54517,-0.0607 1.09277,-0.0933 1.64005,-0.12695 2.63115,-0.16174 2.85989,3.55926 0.22874,3.72099 v 0 c -0.50368,0.0308 -1.00771,0.0598 -1.50933,0.11662 -1.23812,0.11987 -2.47608,0.24196 -3.71735,0.32539 -1.38167,0.11175 -2.76259,0.2335 -4.14123,0.37837 -1.5331,0.16268 -3.06508,0.33725 -4.59199,0.5513 -1.55089,0.21635 -3.10416,0.41907 -4.64739,0.68623 -1.54987,0.27426 -3.09484,0.57682 -4.62485,0.9478 -1.5709,0.37624 -3.14397,0.74328 -4.71696,1.11063 -1.62542,0.38519 -3.25092,0.77025 -4.86991,1.18191 -1.6981,0.44076 -3.39456,0.8882 -5.06747,1.41861 -1.82641,0.57969 -3.64296,1.19162 -5.44437,1.84507 -2.10317,0.76055 -4.2133,1.50214 -6.3082,2.28541 -2.36184,0.87767 -4.71526,1.77889 -7.03988,2.75162 -2.56039,1.05443 -5.11541,2.12285 -7.64214,3.25615 -2.62493,1.17299 -5.24825,2.35041 -7.83577,3.60452 -2.74052,1.32982 -5.46487,2.69345 -8.1509,4.13072 -2.75125,1.48192 -5.46689,3.02833 -8.15334,4.62482 -2.81793,1.68722 -5.61736,3.40671 -8.34417,5.23879 -2.7844,1.88671 -5.56183,3.7857 -8.26028,5.79451 -2.77348,2.07415 -5.52028,4.18478 -8.19432,6.38637 -2.77013,2.28401 -5.52523,4.58595 -8.24211,6.93329 -2.751,2.39661 -5.50342,4.79367 -8.147131,7.30933 -2.54246,2.43332 -5.03056,4.92607 -7.363871,7.56258 -2.066759,2.3496 -4.111138,4.72434 -5.969185,7.24477 -1.73359,2.38735 -3.401618,4.82279 -4.941847,7.34028 -1.465428,2.41036 -2.897892,4.84168 -4.246276,7.31981 -1.111237,2.08408 -2.17325,4.19571 -3.056794,6.38831 -0.734004,1.78918 -1.450271,3.5858 -2.103153,5.40647 -0.425902,1.15689 -0.864427,2.30942 -1.255305,3.47885 -0.141083,0.41867 -0.271319,0.8413 -0.379253,1.26986 -0.433375,2.60025 -4.110675,1.98737 -3.6773,-0.61288 z"
     inkscape:connector-curvature="0" />
  <path
     style="opacity:1;fill:#5f361a;fill-opacity:1;stroke:none;stroke-width:3.69055;stroke-linecap:round;stroke-linejoin:round;stroke-miterlimit:4;stroke-dasharray:none;stroke-dashoffset:0;stroke-opacity:1"
     d="m 176.14341,106.69962 c -15.29815,0.50666 -30.29206,4.4893 -44.64745,9.58655 -15.03908,5.46775 -28.42723,14.83144 -39.5171,26.29132 -8.26366,7.9693 -16.04154,16.59291 -22.039704,26.41506 -0.911899,1.75793 1.698861,3.08327 2.786552,1.55747 16.163062,-15.41482 33.839002,-29.45309 53.759042,-39.71968 14.89884,-7.7298 30.51673,-14.22212 46.68957,-18.85855 3.60006,-1.17135 7.59581,-1.40819 10.9392,-3.13001 0.95539,-3.06006 -3.18495,-2.20417 -4.98665,-2.21242 -0.99449,0.0235 -1.98897,0.0468 -2.98346,0.0703 z"
     id="path4213"
     inkscape:connector-curvature="0" />
  <path
     style="opacity:1;fill:#5f361a;fill-opacity:1;stroke:none;stroke-width:3.69055;stroke-linecap:round;stroke-linejoin:round;stroke-miterlimit:4;stroke-dasharray:none;stroke-dashoffset:0;stroke-opacity:1"
     d="m 204.73925,187.05163 c -2.14156,0.14113 -1.70572,2.92531 -0.0289,3.50622 7.76533,5.79332 14.80158,12.9507 18.66546,21.97176 5.0286,11.59134 7.85291,23.93874 9.82975,36.34531 1.22257,7.66806 1.29464,15.47722 1.9776,23.23312 1.07314,2.0536 3.22891,0.2129 3.42075,-1.4191 4.44973,-9.7597 8.09156,-20.57172 6.03524,-31.41576 -0.88002,-6.95813 -2.64192,-13.83327 -6.05567,-20.00604 -4.40796,-8.49789 -8.9232,-17.23503 -15.73483,-24.08814 -4.91099,-4.59037 -11.59869,-6.99264 -18.10932,-8.12737 z"
     id="path4219"
     inkscape:connector-curvature="0" />
  <path
     style="opacity:1;fill:#502d16;fill-opacity:1;stroke:none;stroke-width:3.69055;stroke-linecap:round;stroke-linejoin:round;stroke-miterlimit:4;stroke-dasharray:none;stroke-dashoffset:0;stroke-opacity:1"
     id="path4138"
     d="m 137.35841,243.80609 c -0.89893,-1.08459 -1.46954,-2.38067 -2.02586,-3.66132 -0.72657,-1.7839 -1.11364,-3.67188 -1.40658,-5.56763 -0.2842,-2.08091 -0.33095,-4.17706 -0.28546,-6.27322 0.0374,-2.4096 0.41456,-4.78063 0.97108,-7.11917 0.67106,-2.63475 1.73614,-5.13942 2.96656,-7.55559 1.32873,-2.5391 2.94265,-4.90105 4.70641,-7.15358 1.95588,-2.45274 4.17051,-4.67983 6.45472,-6.82373 2.26032,-2.14164 4.72623,-4.04842 7.27579,-5.82985 2.64122,-1.82691 5.53629,-3.20302 8.4706,-4.48079 2.88878,-1.25469 5.85008,-2.31466 8.87478,-3.18728 3.05441,-0.8325 6.20208,-1.22394 9.35286,-1.44395 3.07388,-0.18371 6.15317,-0.12548 9.22216,0.10038 2.98054,0.27106 5.88188,0.98213 8.70001,1.96637 2.48511,0.96003 4.85258,2.1943 7.12769,3.57367 2.30158,1.44665 4.38255,3.20793 6.46916,4.94168 2.34098,1.98837 4.54151,4.12216 6.58429,6.41421 2.12419,2.47269 3.92108,5.1989 5.54515,8.01849 1.51302,2.74489 2.80443,5.60109 3.95953,8.51232 0.98088,2.70382 1.82374,5.4563 2.65345,8.2097 0.84632,2.87664 1.5812,5.78397 2.31673,8.69033 0.78622,3.1255 1.48738,6.27241 2.11517,9.43335 0.67536,3.49515 1.11145,7.02964 1.5051,10.56566 0.42404,3.77041 0.65594,7.5586 0.83175,11.3475 0.20538,3.7045 0.27974,7.4101 0.21855,11.1193 -0.0434,4.0931 -0.88056,8.0983 -1.85576,12.0539 -0.93288,3.6717 -2.15007,7.2588 -3.50539,10.7932 -1.3113,3.3721 -2.92162,6.6123 -4.61982,9.8029 -1.7557,3.2689 -3.92973,6.2735 -6.21371,9.187 -2.26218,2.9293 -4.82898,5.6003 -7.51092,8.1435 -2.73194,2.5523 -5.70033,4.819 -8.70736,7.032 -2.94614,2.138 -6.01332,4.0993 -9.16936,5.9107 -3.19481,1.8046 -6.51904,3.3614 -9.86372,4.8637 -3.83533,1.7625 -7.79475,3.2192 -11.80665,4.5204 -4.0573,1.3417 -8.22367,2.2784 -12.40417,3.1364 -4.15118,0.7978 -8.35459,1.2583 -12.56801,1.5562 -4.27565,0.3451 -8.55915,0.2743 -12.83339,-0.022 -4.64325,-0.3406 -9.22776,-1.1676 -13.78468,-2.0903 -4.65396,-0.9508 -9.21344,-2.2672 -13.70575,-3.7992 -4.4275,-1.4928 -8.62345,-3.5454 -12.74988,-5.7156 -4.16827,-2.2948 -8.11236,-4.9631 -12.01836,-7.6722 -4.12479,-2.8677 -7.959888,-6.1099 -11.687323,-9.4694 -3.86268,-3.5271 -7.359516,-7.4228 -10.798115,-11.3564 -3.154853,-3.7301 -6.258262,-7.5033 -9.281148,-11.3412 -2.862189,-3.6375 -5.557249,-7.3911 -7.942108,-11.3582 -2.440378,-4.0363 -4.235693,-8.3999 -5.851899,-12.8166 -1.604157,-4.5104 -2.740301,-9.1651 -3.723063,-13.8443 -1.001671,-4.87689 -1.34796,-9.85046 -1.473566,-14.81722 -0.135798,-5.08541 0.115485,-10.16432 0.561807,-15.22825 0.497485,-5.24251 1.280028,-10.45294 2.252087,-15.62693 1.076782,-5.50691 2.56509,-10.91702 4.210403,-16.27733 1.763302,-5.66154 3.941961,-11.17312 6.29452,-16.61161 2.527118,-5.77554 5.563556,-11.30394 8.711782,-16.75859 3.178142,-5.56353 6.830809,-10.82883 10.665455,-15.95442 4.09104,-5.39004 8.707871,-10.34451 13.386128,-15.22224 4.57252,-4.73243 9.44772,-9.15601 14.51375,-13.35124 4.87837,-4.06207 10.22141,-7.49257 15.67704,-10.71478 5.45149,-3.20773 11.27851,-5.67555 17.17686,-7.92254 6.23889,-2.30337 12.66241,-4.03917 19.1046,-5.66415 6.13732,-1.51172 12.36048,-2.62655 18.61718,-3.50338 5.82384,-0.75134 11.69658,-0.75506 17.55333,-0.55965 5.54528,0.25871 11.06865,0.84502 16.56138,1.63547 4.91686,0.76808 9.76827,1.88105 14.56656,3.19013 4.38427,1.22106 8.6399,2.83335 12.83499,4.5858 3.8547,1.6721 7.53613,3.70409 11.1785,5.78962 3.35585,1.94259 6.57924,4.10772 9.71542,6.38528 2.84852,2.09258 5.51322,4.42049 8.1871,6.7282 2.5893,2.1913 5.09274,4.47693 7.5606,6.80312 2.47599,2.25112 4.70639,4.74678 6.89283,7.274 2.14013,2.53778 4.09633,5.22342 6.00314,7.93862 2.00394,2.72526 3.72927,5.63305 5.45895,8.53489 1.73993,3.01315 3.43514,6.05225 5.12684,9.09266 1.83813,3.3158 3.53406,6.70693 5.19635,10.11336 1.69582,3.60676 3.34901,7.23425 4.96769,10.87633 1.65203,3.72687 3.22141,7.48899 4.72156,11.27932 1.46595,3.71472 2.80335,7.47846 4.13895,11.24148 1.21589,3.38836 2.45826,6.76707 3.68584,10.15118 1.1427,3.22419 2.17935,6.48568 3.17702,9.75731 0.93897,3.01238 1.85197,6.03314 2.66969,9.08085 0.80763,2.80909 1.46592,5.65601 2.11287,8.50531 0.63324,2.77386 0.98754,5.5955 1.37143,8.4108 0.34952,2.63605 0.53383,5.29007 0.71477,7.9419 0.0753,2.2101 0.36886,4.3999 0.7461,6.5759 0.36714,1.9945 1.12402,3.8722 1.86239,5.7495 0.71134,1.9509 1.71941,3.7602 2.78149,5.5364 0.84771,1.3644 1.91614,2.5725 3.08135,3.672 0.95058,0.8971 2.15745,1.3816 3.34816,1.8716 1.2967,0.5596 2.64357,0.9719 4.0096,1.3204 2.51201,0.5694 4.40438,1.997 5.93553,4.0204 1.28418,2.1034 1.64144,4.4632 1.68301,6.881 -0.0118,2.4975 -0.72008,4.8977 -1.53333,7.2344 -0.84578,2.3376 -1.85736,4.6054 -2.86548,6.8754 -0.94948,2.245 -2.10192,4.3916 -3.29192,6.5157 -1.10597,1.9574 -2.48379,3.7236 -3.99742,5.3776 -1.4128,1.5043 -3.04875,2.7455 -4.82079,3.7899 -1.81283,0.9846 -3.79175,1.5545 -5.80985,1.9227 -1.95969,0.3353 -3.94857,0.2627 -5.92319,0.1495 -1.93232,-0.087 -3.85166,-0.3276 -5.77053,-0.5583 -1.8412,-0.2705 -3.69486,-0.4383 -5.53744,-0.6973 -1.58779,-0.2502 -3.17974,-0.3896 -4.78545,-0.4235 -2.1575,0.027 -4.29789,0.3452 -6.44342,0.5464 -2.41879,0.2067 -4.8405,0.3771 -7.26224,0.5448 -2.07653,0.1483 -4.15226,0.3168 -6.22055,0.5562 -2.45349,0.3184 -4.90543,0.6498 -7.3575,0.9803 -2.10479,0.2684 -4.2044,0.5799 -6.28685,0.9882 -1.75005,0.2568 -3.40102,0.8717 -5.05429,1.4702 -1.77113,0.6543 -3.50805,1.3955 -5.26531,2.0847 -1.69404,0.6686 -3.39992,1.2788 -5.16674,1.7239 -1.77712,0.4051 -3.59522,0.5474 -5.40298,0.7412 -1.56405,0.1397 -3.13225,0.2107 -4.70218,0.1907 -1.51737,-0.076 -3.02886,-0.2689 -4.52548,-0.5273 -1.19888,-0.2383 -2.39781,-0.4767 -3.5902,-0.7458 -1.2855,-0.3065 -2.53707,-0.734 -3.79174,-1.145 -1.19519,-0.3885 -2.35565,-0.8704 -3.53488,-1.3028 -1.10296,-0.3901 -2.19194,-0.8152 -3.27221,-1.2639 -1.12869,-0.4811 -2.23085,-1.0116 -3.29038,-1.6295 -0.89154,-0.5701 -1.7214,-1.2289 -2.54815,-1.8874 -0.10703,-0.085 -0.21394,-0.1712 -0.32061,-0.257 -6.10872,-4.8962 0.81555,-13.5352 6.92429,-8.639 v 0 c 0.0988,0.079 0.19664,0.1587 0.29587,0.237 0.47177,0.3761 0.94508,0.7506 1.43279,1.1059 0.44617,0.2602 1.18622,0.5876 1.75533,0.8462 0.93531,0.389 1.8783,0.7564 2.8341,1.0927 1.0613,0.3891 2.10654,0.8198 3.17849,1.179 0.92145,0.3037 1.84079,0.6179 2.77935,0.8649 1.0224,0.232 2.05125,0.433 3.07845,0.6427 0.91045,0.1694 1.833,0.2655 2.75343,0.3585 1.12334,0.02 2.2443,-0.041 3.36431,-0.1289 1.31152,-0.1404 2.6291,-0.2384 3.92727,-0.4811 1.30575,-0.3108 2.54188,-0.8176 3.79659,-1.2893 1.84504,-0.7154 3.66092,-1.5068 5.52225,-2.1813 2.1923,-0.7935 4.39935,-1.5593 6.71118,-1.9281 2.2935,-0.4424 4.60184,-0.801 6.91946,-1.0922 2.52409,-0.3402 5.04793,-0.6817 7.57383,-1.0072 2.23428,-0.2546 4.47536,-0.4443 6.71842,-0.6021 2.33422,-0.1615 4.6683,-0.3259 6.99976,-0.5235 2.5719,-0.2378 5.13815,-0.624 7.72739,-0.5911 2.04061,0.05 4.06817,0.2183 6.08647,0.5307 1.76279,0.2549 3.53993,0.3983 5.30121,0.6665 1.69229,0.2034 3.38438,0.423 5.08875,0.4976 1.13814,0.067 2.28788,0.1572 3.42168,-0.012 0.75614,-0.1003 1.49016,-0.3301 2.19089,-0.6286 0.81958,-0.4017 1.49065,-1.0495 2.15241,-1.6649 0.93986,-1.0148 1.80196,-2.0894 2.48866,-3.2963 1.0234,-1.8248 2.02238,-3.6646 2.83165,-5.597 0.89074,-2.0044 1.79201,-4.0031 2.54331,-6.0659 0.40682,-1.1265 0.81692,-2.2855 0.90217,-3.4883 0.009,-0.2858 -0.20607,-1.5453 0.22611,-0.7261 0.30649,0.3061 1.5611,0.967 0.47272,0.4875 -1.88335,-0.486 -3.74025,-1.0658 -5.53117,-1.8312 -2.44557,-1.0348 -4.82791,-2.2305 -6.75068,-4.1076 -1.85463,-1.8051 -3.57431,-3.7531 -4.91345,-5.9797 -1.36483,-2.2953 -2.64346,-4.6436 -3.575,-7.1538 -1.01444,-2.5803 -1.99094,-5.183 -2.4706,-7.9268 -0.4346,-2.5492 -0.78391,-5.1137 -0.8805,-7.701 -0.16184,-2.4028 -0.32759,-4.8077 -0.63882,-7.19666 -0.3395,-2.49432 -0.64195,-4.99581 -1.19811,-7.45456 -0.61512,-2.7108 -1.2394,-5.41954 -2.01052,-8.09137 -0.78256,-2.92687 -1.66655,-5.82515 -2.56583,-8.71808 -0.94037,-3.08793 -1.91918,-6.16584 -2.99443,-9.20967 -1.236,-3.40813 -2.48754,-6.81058 -3.7116,-10.22305 -1.29154,-3.63894 -2.58344,-7.27914 -4.00021,-10.87172 -1.44285,-3.64877 -2.95493,-7.26932 -4.54433,-10.85695 -1.56415,-3.52169 -3.16436,-7.02806 -4.80022,-10.51696 -1.57477,-3.22839 -3.18025,-6.44294 -4.92116,-9.5858 -1.63763,-2.94446 -3.2807,-5.88645 -4.96188,-8.80624 -1.5894,-2.66658 -3.16518,-5.34464 -5.01238,-7.84528 -1.68935,-2.41109 -3.42372,-4.7952 -5.31349,-7.05441 -1.93979,-2.24363 -3.91019,-4.46739 -6.11316,-6.46017 -2.34998,-2.21547 -4.73302,-4.39278 -7.20036,-6.47797 -2.44214,-2.10785 -4.8715,-4.23998 -7.46816,-6.15793 -2.80626,-2.04768 -5.70027,-3.98246 -8.70366,-5.73004 -3.24456,-1.85966 -6.51972,-3.67937 -9.94816,-5.18282 -3.75311,-1.57273 -7.56005,-3.02118 -11.48257,-4.12011 -4.35711,-1.19483 -8.76427,-2.2035 -13.2287,-2.91173 -5.0914,-0.73832 -10.21248,-1.27733 -15.35253,-1.52802 -5.21988,-0.17888 -10.45422,-0.19467 -15.64709,0.4594 -5.86234,0.81678 -11.69228,1.86314 -17.44329,3.2741 -6.02611,1.51801 -12.03684,3.13254 -17.87588,5.27715 -5.3162,2.01721 -10.57199,4.22713 -15.48701,7.11009 -4.95681,2.91938 -9.81462,6.02454 -14.2458,9.71031 -4.74422,3.91798 -9.29885,8.06284 -13.58078,12.48461 -4.36855,4.5513 -8.68663,9.16854 -12.513175,14.19367 -3.576075,4.77006 -6.978709,9.67351 -9.939597,14.85431 -2.938203,5.0856 -5.77754,10.2374 -8.139572,15.62126 -2.194248,5.06257 -4.225464,10.19336 -5.871239,15.46399 -1.527072,4.96553 -2.910599,9.9765 -3.913962,15.0776 -0.912375,4.81754 -1.632858,9.67197 -2.103628,14.5536 -0.41552,4.64934 -0.644612,9.31289 -0.521704,13.98248 0.09801,4.29468 0.388236,8.59736 1.241942,12.81617 0.867983,4.1627 1.872586,8.3044 3.287858,12.3195 1.366434,3.7621 2.877067,7.4847 4.949724,10.9227 2.127829,3.5724 4.582602,6.9209 7.141663,10.1963 2.904658,3.6907 5.890817,7.3159 8.91961,10.9054 3.148731,3.6055 6.345056,7.1822 9.87748,10.4209 3.37399,3.049 6.84609,5.991 10.58192,8.5932 3.53558,2.4539 7.10155,4.8767 10.86531,6.9721 3.61734,1.9071 7.28939,3.7251 11.17286,5.0358 4.03833,1.3842 8.13923,2.5657 12.32422,3.4248 4.08727,0.8297 8.19778,1.5851 12.36265,1.8969 3.7578,0.2699 7.52367,0.3256 11.28322,0.022 3.72603,-0.2574 7.44267,-0.6642 11.11539,-1.3572 3.7807,-0.7753 7.55162,-1.6084 11.22046,-2.8244 3.631,-1.172 7.21193,-2.4916 10.68096,-4.0872 3.01502,-1.3528 6.01404,-2.7496 8.89631,-4.3709 2.79367,-1.5956 5.5009,-3.3364 8.10958,-5.2207 2.64154,-1.9434 5.25852,-3.921 7.66237,-6.1591 2.29292,-2.1604 4.47986,-4.4394 6.4089,-6.9352 1.88698,-2.3999 3.69719,-4.8649 5.15181,-7.5577 1.4883,-2.7886 2.90302,-5.6191 4.05526,-8.566 1.19569,-3.1063 2.26814,-6.2593 3.09414,-9.4863 0.78386,-3.1432 1.49156,-6.322 1.53222,-9.578 0.0604,-3.4761 -0.0148,-6.9481 -0.20846,-10.4198 -0.16398,-3.5512 -0.37859,-7.10203 -0.77572,-10.63596 -0.35824,-3.22568 -0.75016,-6.4507 -1.36234,-9.63979 -0.58573,-2.97176 -1.25179,-5.92819 -1.98739,-8.86654 -0.69506,-2.7466 -1.38777,-5.49454 -2.18476,-8.21388 -0.73937,-2.45661 -1.49359,-4.91085 -2.34773,-7.33025 -0.95389,-2.42077 -2.0271,-4.79238 -3.27023,-7.07986 -1.2349,-2.16984 -2.61251,-4.26253 -4.22155,-6.17616 -1.65952,-1.88346 -3.47482,-3.60942 -5.37808,-5.24621 -1.67959,-1.39611 -3.34502,-2.82826 -5.18045,-4.01827 -1.60183,-1.00072 -3.29868,-1.84959 -5.04115,-2.57743 -1.88308,-0.68448 -3.83357,-1.14577 -5.82863,-1.36056 -2.54757,-0.19665 -5.10451,-0.23662 -7.65687,-0.0939 -2.36961,0.14689 -4.73784,0.44446 -7.03991,1.04046 -2.56317,0.72714 -5.06221,1.64265 -7.50935,2.69734 -2.26557,0.98293 -4.51456,2.01181 -6.55943,3.41404 -2.11908,1.46784 -4.16008,3.05355 -6.03509,4.82608 -1.88363,1.75722 -3.70875,3.58574 -5.32597,5.59496 -1.34345,1.68755 -2.54989,3.47374 -3.56431,5.38031 -0.85731,1.62054 -1.56075,3.32545 -2.04642,5.09543 -0.39452,1.55625 -0.62834,3.13944 -0.65918,4.7474 -0.0343,1.45721 -0.0198,2.91201 0.16266,4.36133 0.1429,0.96592 0.31311,1.92897 0.63118,2.85556 0.18392,0.4355 0.33423,0.91305 0.55761,1.19148 4.83985,6.15346 -3.86246,12.99806 -8.70234,6.84462 z"
     inkscape:connector-curvature="0" />
</svg>
